<svg xmlns="http://www.w3.org/2000/svg" xmlns:xlink="http://www.w3.org/1999/xlink" viewBox="0 0 294.27 338.8"><defs><style>.cls-1{fill:url(#White_Black_2);}.cls-2{fill:url(#linear-gradient);}.cls-3{fill:url(#linear-gradient-2);}.cls-4{fill:url(#linear-gradient-3);}.cls-5{fill:url(#linear-gradient-4);}.cls-6{fill:url(#linear-gradient-5);}.cls-7{fill:url(#linear-gradient-6);}.cls-8{fill:url(#linear-gradient-7);}.cls-9{fill:url(#linear-gradient-8);}.cls-10{isolation:isolate;}.cls-101,.cls-11,.cls-112,.cls-113,.cls-116,.cls-126,.cls-127,.cls-130,.cls-140,.cls-141,.cls-144,.cls-159,.cls-166,.cls-169,.cls-170,.cls-40,.cls-49,.cls-50,.cls-51,.cls-52,.cls-53,.cls-55,.cls-56,.cls-57,.cls-58,.cls-59,.cls-65,.cls-70,.cls-75,.cls-81,.cls-86,.cls-91,.cls-96{mix-blend-mode:color-dodge;}.cls-11,.cls-40{opacity:0.5;}.cls-11{fill:url(#New_Gradient_Swatch_copy_2);}.cls-12{mask:url(#mask);}.cls-13{fill:url(#linear-gradient-9);}.cls-14{fill:url(#linear-gradient-10);}.cls-15{fill:url(#linear-gradient-11);}.cls-16{fill:url(#linear-gradient-12);}.cls-17{fill:url(#linear-gradient-13);}.cls-18{fill:url(#linear-gradient-14);}.cls-19{fill:url(#linear-gradient-15);}.cls-20{fill:url(#linear-gradient-16);}.cls-21{fill:url(#linear-gradient-17);}.cls-22{fill:url(#linear-gradient-18);}.cls-23{fill:url(#linear-gradient-19);}.cls-111,.cls-114,.cls-125,.cls-128,.cls-139,.cls-142,.cls-146,.cls-147,.cls-148,.cls-149,.cls-150,.cls-151,.cls-152,.cls-153,.cls-154,.cls-155,.cls-156,.cls-157,.cls-24,.cls-37{mix-blend-mode:multiply;}.cls-25,.cls-26,.cls-27,.cls-28,.cls-29,.cls-30,.cls-31,.cls-32,.cls-33,.cls-34,.cls-35,.cls-36{fill:#45108a;}.cls-25{opacity:0;}.cls-26{opacity:0.02;}.cls-27{opacity:0.04;}.cls-28{opacity:0.05;}.cls-29{opacity:0.07;}.cls-30{opacity:0.09;}.cls-31{opacity:0.11;}.cls-32{opacity:0.13;}.cls-33{opacity:0.15;}.cls-34{opacity:0.16;}.cls-35{opacity:0.18;}.cls-157,.cls-36{opacity:0.2;}.cls-37{fill:url(#radial-gradient);}.cls-38{fill:url(#linear-gradient-20);}.cls-39{fill:url(#linear-gradient-21);}.cls-41{fill:url(#Radial_Gradient_1);}.cls-108,.cls-110,.cls-122,.cls-124,.cls-136,.cls-138,.cls-42,.cls-89,.cls-94,.cls-99{mix-blend-mode:screen;}.cls-42{fill:url(#radial-gradient-2);}.cls-43{fill:#231f20;}.cls-44{fill:url(#radial-gradient-3);}.cls-45{fill:#f1f2f2;}.cls-46{fill:url(#radial-gradient-4);}.cls-47{fill:url(#radial-gradient-5);}.cls-48{fill:url(#New_Gradient_Swatch_copy_9);}.cls-49{fill:url(#radial-gradient-6);}.cls-50{fill:url(#radial-gradient-7);}.cls-51{fill:url(#radial-gradient-8);}.cls-52{fill:url(#radial-gradient-9);}.cls-53{fill:url(#radial-gradient-10);}.cls-54{opacity:0.8;}.cls-55{fill:url(#Radial_Gradient_1-2);}.cls-56{fill:url(#Radial_Gradient_1-3);}.cls-57{fill:url(#Radial_Gradient_1-4);}.cls-58{fill:url(#Radial_Gradient_1-5);}.cls-59{fill:url(#Radial_Gradient_1-6);}.cls-60{mask:url(#mask-2);}.cls-61{opacity:0.95;}.cls-62{fill:url(#linear-gradient-22);}.cls-63{fill:url(#linear-gradient-23);}.cls-64{fill:url(#linear-gradient-24);}.cls-65{fill:url(#Radial_Gradient_1-7);}.cls-66{mask:url(#mask-3);}.cls-67{fill:url(#linear-gradient-25);}.cls-68{fill:url(#linear-gradient-26);}.cls-69{fill:url(#linear-gradient-27);}.cls-70{fill:url(#Radial_Gradient_1-8);}.cls-71{mask:url(#mask-4);}.cls-72{fill:url(#linear-gradient-28);}.cls-73{fill:url(#linear-gradient-29);}.cls-74{fill:url(#linear-gradient-30);}.cls-75{fill:url(#Radial_Gradient_1-9);}.cls-76{mask:url(#mask-5);}.cls-77{fill:url(#linear-gradient-31);}.cls-78{fill:url(#linear-gradient-32);}.cls-79{fill:url(#linear-gradient-33);}.cls-80{fill:url(#linear-gradient-34);}.cls-81{fill:url(#Radial_Gradient_1-10);}.cls-82{mask:url(#mask-6);}.cls-83{fill:url(#linear-gradient-35);}.cls-84{fill:url(#linear-gradient-36);}.cls-85{fill:url(#linear-gradient-37);}.cls-86{fill:url(#Radial_Gradient_1-11);}.cls-87{mask:url(#mask-7);}.cls-88,.cls-93,.cls-98{opacity:0.9;}.cls-88{fill:url(#linear-gradient-38);}.cls-89,.cls-94,.cls-99{opacity:0.7;}.cls-89{fill:url(#linear-gradient-39);}.cls-90{fill:url(#linear-gradient-40);}.cls-91{fill:url(#Radial_Gradient_1-12);}.cls-92{mask:url(#mask-8);}.cls-93{fill:url(#linear-gradient-41);}.cls-94{fill:url(#linear-gradient-42);}.cls-95{fill:url(#linear-gradient-43);}.cls-96{fill:url(#Radial_Gradient_1-13);}.cls-97{mask:url(#mask-9);}.cls-98{fill:url(#linear-gradient-44);}.cls-99{fill:url(#linear-gradient-45);}.cls-100{fill:url(#linear-gradient-46);}.cls-101{fill:url(#Radial_Gradient_1-14);}.cls-102{fill:url(#linear-gradient-47);}.cls-103{fill:url(#linear-gradient-48);}.cls-104{fill:url(#linear-gradient-49);}.cls-105{fill:url(#linear-gradient-50);}.cls-106{fill:#fdd65b;}.cls-107{fill:url(#linear-gradient-51);}.cls-108{fill:url(#White_Black_Radial);}.cls-109{fill:url(#linear-gradient-52);}.cls-110{fill:url(#White_Black_Radial-2);}.cls-111{fill:url(#linear-gradient-53);}.cls-112{fill:url(#radial-gradient-11);}.cls-113{fill:url(#radial-gradient-12);}.cls-114{fill:url(#linear-gradient-54);}.cls-115{fill:url(#linear-gradient-55);}.cls-116{fill:url(#radial-gradient-13);}.cls-117{fill:url(#linear-gradient-56);}.cls-118{fill:url(#linear-gradient-57);}.cls-119{fill:url(#linear-gradient-58);}.cls-120{fill:url(#linear-gradient-59);}.cls-121{fill:url(#linear-gradient-60);}.cls-122{fill:url(#White_Black_Radial-3);}.cls-123{fill:url(#linear-gradient-61);}.cls-124{fill:url(#White_Black_Radial-4);}.cls-125{fill:url(#linear-gradient-62);}.cls-126{fill:url(#radial-gradient-14);}.cls-127{fill:url(#radial-gradient-15);}.cls-128{fill:url(#linear-gradient-63);}.cls-129{fill:url(#linear-gradient-64);}.cls-130{fill:url(#radial-gradient-16);}.cls-131{fill:url(#linear-gradient-65);}.cls-132{fill:url(#linear-gradient-66);}.cls-133{fill:url(#linear-gradient-67);}.cls-134{fill:url(#linear-gradient-68);}.cls-135{fill:url(#linear-gradient-69);}.cls-136{fill:url(#White_Black_Radial-5);}.cls-137{fill:url(#linear-gradient-70);}.cls-138{fill:url(#White_Black_Radial-6);}.cls-139{fill:url(#linear-gradient-71);}.cls-140{fill:url(#radial-gradient-17);}.cls-141{fill:url(#radial-gradient-18);}.cls-142{fill:url(#linear-gradient-72);}.cls-143{fill:url(#linear-gradient-73);}.cls-144{fill:url(#radial-gradient-19);}.cls-145{opacity:0.6;}.cls-146{opacity:0.1;fill:url(#linear-gradient-74);}.cls-147{opacity:0.11;fill:url(#linear-gradient-75);}.cls-148{opacity:0.12;fill:url(#linear-gradient-76);}.cls-149{opacity:0.13;fill:url(#linear-gradient-77);}.cls-150{opacity:0.14;fill:url(#linear-gradient-78);}.cls-151{opacity:0.15;fill:url(#linear-gradient-79);}.cls-152{opacity:0.15;fill:url(#linear-gradient-80);}.cls-153{opacity:0.16;fill:url(#linear-gradient-81);}.cls-154{opacity:0.17;fill:url(#linear-gradient-82);}.cls-155{opacity:0.18;fill:url(#linear-gradient-83);}.cls-156{opacity:0.19;fill:url(#linear-gradient-84);}.cls-157{fill:#25054d;}.cls-158{fill:url(#New_Gradient_Swatch_copy_8);}.cls-159{fill:url(#radial-gradient-20);}.cls-160{fill:url(#linear-gradient-85);}.cls-161{fill:url(#New_Gradient_Swatch_copy_8-2);}.cls-162{fill:url(#linear-gradient-86);}.cls-163{fill:url(#linear-gradient-87);}.cls-164{fill:url(#New_Gradient_Swatch_copy_8-3);}.cls-165{fill:url(#New_Gradient_Swatch_copy_8-4);}.cls-166{fill:url(#radial-gradient-21);}.cls-167{fill:url(#New_Gradient_Swatch_copy_8-5);}.cls-168{fill:url(#New_Gradient_Swatch_copy_8-6);}.cls-169{fill:url(#radial-gradient-22);}.cls-170{fill:url(#New_Gradient_Swatch_copy);}</style><linearGradient id="White_Black_2" x1="99.61" y1="96.19" x2="192.42" y2="272.83" gradientUnits="userSpaceOnUse"><stop offset="0" stop-color="#fff"/><stop offset="1"/></linearGradient><linearGradient id="linear-gradient" x1="4124.26" y1="2572.19" x2="4124.26" y2="2456.91" gradientTransform="translate(-3864.48 -2302.72)" gradientUnits="userSpaceOnUse"><stop offset="0.56" stop-color="#fff"/><stop offset="0.61" stop-color="#f5f4f5"/><stop offset="0.69" stop-color="#d8d8d9"/><stop offset="0.8" stop-color="#abaaab"/><stop offset="0.92" stop-color="#6c6c6d"/><stop offset="1" stop-color="#414042"/></linearGradient><linearGradient id="linear-gradient-2" x1="4141.43" y1="2539.67" x2="4141.43" y2="2446.07" gradientTransform="translate(-3898.82 -2259.77)" xlink:href="#linear-gradient"/><linearGradient id="linear-gradient-3" x1="4159" y1="2530.41" x2="4159" y2="2436.8" gradientTransform="translate(-3933.95 -2241.25)" xlink:href="#linear-gradient"/><linearGradient id="linear-gradient-4" x1="4176.35" y1="2519.59" x2="4176.35" y2="2425.98" gradientTransform="translate(-3968.65 -2219.6)" xlink:href="#linear-gradient"/><linearGradient id="linear-gradient-5" x1="4193.75" y1="2509.68" x2="4193.75" y2="2416.08" gradientTransform="translate(-4003.44 -2199.8)" xlink:href="#linear-gradient"/><linearGradient id="linear-gradient-6" x1="6789.11" y1="2548.06" x2="6789.11" y2="2441.89" gradientTransform="translate(-6504.57 -2263.75)" xlink:href="#linear-gradient"/><linearGradient id="linear-gradient-7" x1="6808.28" y1="2536.86" x2="6808.28" y2="2430.69" gradientTransform="translate(-6542.92 -2241.34)" xlink:href="#linear-gradient"/><linearGradient id="linear-gradient-8" x1="6827.65" y1="2524.96" x2="6827.65" y2="2418.79" gradientTransform="translate(-6581.66 -2217.56)" xlink:href="#linear-gradient"/><radialGradient id="New_Gradient_Swatch_copy_2" cx="4165.54" cy="-1346.5" r="31.85" gradientTransform="matrix(2.76, 0, 0, 0.9, -11380.47, 1421.3)" gradientUnits="userSpaceOnUse"><stop offset="0" stop-color="#dc3daa"/><stop offset="0.11" stop-color="#b5328c"/><stop offset="0.28" stop-color="#7f2362"/><stop offset="0.45" stop-color="#51173f"/><stop offset="0.61" stop-color="#2e0d23"/><stop offset="0.76" stop-color="#150610"/><stop offset="0.89" stop-color="#050104"/><stop offset="1"/></radialGradient><mask id="mask" x="-29.43" y="-28.9" width="322.68" height="408.05" maskUnits="userSpaceOnUse"><polygon class="cls-1" points="-28.53 -28.9 292.69 -28.9 293.25 149.36 286.05 238.44 38.95 379.15 -29.43 343.16 -28.53 -28.9"/></mask><linearGradient id="linear-gradient-9" x1="73.46" y1="193.18" x2="152.71" y2="272.68" gradientUnits="userSpaceOnUse"><stop offset="0" stop-color="#5513ab"/><stop offset="1" stop-color="#be3bff"/></linearGradient><linearGradient id="linear-gradient-10" x1="104.59" y1="230.07" x2="87.22" y2="260.16" xlink:href="#linear-gradient-9"/><linearGradient id="linear-gradient-11" x1="-5.96" y1="259.11" x2="72.79" y2="337.61" xlink:href="#linear-gradient-9"/><linearGradient id="linear-gradient-12" x1="75.95" y1="251.62" x2="50.48" y2="295.73" xlink:href="#linear-gradient-9"/><linearGradient id="linear-gradient-13" x1="-10.3" y1="311.14" x2="110.78" y2="331.43" xlink:href="#linear-gradient-9"/><linearGradient id="linear-gradient-14" x1="23.34" y1="211.34" x2="137.84" y2="324.59" xlink:href="#linear-gradient-9"/><linearGradient id="linear-gradient-15" x1="173.51" y1="119.3" x2="141.51" y2="226.8" xlink:href="#linear-gradient-9"/><linearGradient id="linear-gradient-16" x1="145.57" y1="209.45" x2="225.82" y2="126.45" xlink:href="#linear-gradient-9"/><linearGradient id="linear-gradient-17" x1="237.89" y1="70.69" x2="311.13" y2="22.86" xlink:href="#linear-gradient-9"/><linearGradient id="linear-gradient-18" x1="163.21" y1="230.12" x2="390.71" y2="295.62" xlink:href="#linear-gradient-9"/><linearGradient id="linear-gradient-19" x1="147.8" y1="27.98" x2="288.8" y2="159.48" xlink:href="#linear-gradient-9"/><radialGradient id="radial-gradient" cx="948.35" cy="-4262.56" r="32.9" gradientTransform="translate(-957.24 2301.09) scale(1.18 0.49)" gradientUnits="userSpaceOnUse"><stop offset="0.19" stop-color="#5f5c5d"/><stop offset="1" stop-color="#fff"/></radialGradient><linearGradient id="linear-gradient-20" x1="92.43" y1="69.42" x2="178.3" y2="214.86" gradientUnits="userSpaceOnUse"><stop offset="0.06" stop-color="#200041"/><stop offset="0.23" stop-color="#210243"/><stop offset="0.32" stop-color="#25084b"/><stop offset="0.39" stop-color="#2c1358"/><stop offset="0.42" stop-color="#311b61"/><stop offset="0.47" stop-color="#351f65"/><stop offset="0.53" stop-color="#422c73"/><stop offset="0.6" stop-color="#584188"/><stop offset="0.66" stop-color="#765fa7"/><stop offset="0.69" stop-color="#8770b8"/><stop offset="0.7" stop-color="#7e67ae"/><stop offset="0.73" stop-color="#5c468d"/><stop offset="0.76" stop-color="#442e75"/><stop offset="0.79" stop-color="#362066"/><stop offset="0.81" stop-color="#311b61"/><stop offset="0.86" stop-color="#2a1155"/><stop offset="0.94" stop-color="#230446"/><stop offset="1" stop-color="#200041"/></linearGradient><linearGradient id="linear-gradient-21" x1="-309.87" y1="1939.97" x2="-174.24" y2="1939.97" gradientTransform="matrix(0.87, 0.5, 0, 1.15, 339.2, -1975.05)" gradientUnits="userSpaceOnUse"><stop offset="0" stop-color="#311b61"/><stop offset="0.2" stop-color="#290f52"/><stop offset="0.49" stop-color="#200041"/><stop offset="1" stop-color="#0f001f"/></linearGradient><radialGradient id="Radial_Gradient_1" cx="153.98" cy="105.75" r="32.55" xlink:href="#White_Black_2"/><radialGradient id="radial-gradient-2" cx="-14604.26" cy="3852.12" r="25.69" gradientTransform="matrix(0, 0.4, 1, 0, -3823.29, 6084.83)" gradientUnits="userSpaceOnUse"><stop offset="0" stop-color="#470186"/><stop offset="0.15" stop-color="#330160"/><stop offset="0.31" stop-color="#21003d"/><stop offset="0.48" stop-color="#120022"/><stop offset="0.65" stop-color="#08000f"/><stop offset="0.82" stop-color="#020004"/><stop offset="1"/></radialGradient><radialGradient id="radial-gradient-3" cx="129.58" cy="-2582.21" r="64.54" gradientTransform="translate(-1937.1 3422.45) rotate(30.31) scale(1 1.5)" gradientUnits="userSpaceOnUse"><stop offset="0" stop-color="#ff63ce"/><stop offset="0.41" stop-color="#9f19ab"/><stop offset="0.62" stop-color="#901bb8"/><stop offset="0.82" stop-color="#7c1dc9"/><stop offset="0.99" stop-color="#6d23d5"/><stop offset="1" stop-color="#6b24d6"/></radialGradient><radialGradient id="radial-gradient-4" cx="129.58" cy="-2582.21" r="46.1" gradientTransform="matrix(0.86, 0.5, -0.76, 1.29, -1937.1, 3422.45)" xlink:href="#radial-gradient-3"/><radialGradient id="radial-gradient-5" cx="129.58" cy="-2582.21" r="27.66" gradientTransform="translate(-1937.11 3422.45) rotate(30.31) scale(1 1.5)" xlink:href="#radial-gradient-3"/><linearGradient id="New_Gradient_Swatch_copy_9" x1="116.77" y1="152.11" x2="135.72" y2="140.12" gradientTransform="translate(90.39 -45.71) rotate(30.31)" gradientUnits="userSpaceOnUse"><stop offset="0.04" stop-color="#9f19ab"/><stop offset="0.24" stop-color="#ae25b1"/><stop offset="0.65" stop-color="#d744bf"/><stop offset="1" stop-color="#ff63ce"/></linearGradient><radialGradient id="radial-gradient-6" cx="136.5" cy="-2583.75" r="60.31" gradientTransform="translate(0 4017.32) scale(1 1.5)" gradientUnits="userSpaceOnUse"><stop offset="0" stop-color="#fff"/><stop offset="0.07" stop-color="#d8d8d8"/><stop offset="0.16" stop-color="#a6a6a6"/><stop offset="0.26" stop-color="#797979"/><stop offset="0.37" stop-color="#545454"/><stop offset="0.47" stop-color="#353535"/><stop offset="0.59" stop-color="#1e1e1e"/><stop offset="0.7" stop-color="#0d0d0d"/><stop offset="0.84" stop-color="#030303"/><stop offset="1"/></radialGradient><radialGradient id="radial-gradient-7" cx="134.42" cy="-2583.3" r="43.13" xlink:href="#radial-gradient-6"/><radialGradient id="radial-gradient-8" cx="132.33" cy="-2582.84" r="25.96" xlink:href="#radial-gradient-6"/><radialGradient id="radial-gradient-9" cx="130.36" cy="143.8" r="8.77" gradientTransform="matrix(1, 0, 0, 1, 0, 0)" xlink:href="#radial-gradient-6"/><radialGradient id="radial-gradient-10" cx="-12633.47" cy="3126.93" r="17.79" gradientTransform="matrix(0, 0.45, 1, 0, -2940.82, 5876.31)" gradientUnits="userSpaceOnUse"><stop offset="0" stop-color="#972a74"/><stop offset="0.04" stop-color="#8a266a"/><stop offset="0.19" stop-color="#601b4a"/><stop offset="0.35" stop-color="#3d112f"/><stop offset="0.51" stop-color="#230a1b"/><stop offset="0.67" stop-color="#0f040c"/><stop offset="0.83" stop-color="#040103"/><stop offset="1"/></radialGradient><radialGradient id="Radial_Gradient_1-2" cx="122.58" cy="280.67" r="20.55" xlink:href="#White_Black_2"/><radialGradient id="Radial_Gradient_1-3" cx="163.75" cy="237.23" r="26.73" xlink:href="#White_Black_2"/><radialGradient id="Radial_Gradient_1-4" cx="85.2" cy="315.63" r="23.24" xlink:href="#White_Black_2"/><radialGradient id="Radial_Gradient_1-5" cx="233.86" cy="177.84" r="26.09" xlink:href="#White_Black_2"/><radialGradient id="Radial_Gradient_1-6" cx="252.63" cy="61.5" r="54.67" xlink:href="#White_Black_2"/><mask id="mask-2" x="238.37" y="147.38" width="42.83" height="126.74" maskUnits="userSpaceOnUse"><rect class="cls-2" x="238.37" y="147.38" width="42.83" height="126.74" transform="translate(519.57 421.49) rotate(180)"/></mask><linearGradient id="linear-gradient-22" x1="2957.65" y1="152.16" x2="2947.65" y2="169.49" gradientTransform="translate(-2689.59)" xlink:href="#linear-gradient-9"/><linearGradient id="linear-gradient-23" x1="2951.45" y1="216.29" x2="3040.05" y2="209.49" gradientTransform="translate(-2689.59)" xlink:href="#linear-gradient-9"/><linearGradient id="linear-gradient-24" x1="2917.1" y1="211.17" x2="2970.85" y2="220.18" gradientTransform="translate(-2689.59)" xlink:href="#linear-gradient-9"/><radialGradient id="Radial_Gradient_1-7" cx="2941.07" cy="189.3" r="37.73" gradientTransform="translate(-2689.59)" xlink:href="#White_Black_2"/><mask id="mask-3" x="221.2" y="180.76" width="42.83" height="102.91" maskUnits="userSpaceOnUse"><rect class="cls-3" x="221.2" y="180.76" width="42.83" height="102.91" transform="translate(485.24 464.44) rotate(180)"/></mask><linearGradient id="linear-gradient-25" x1="2940.48" y1="181.57" x2="2930.48" y2="198.9" gradientTransform="translate(-2689.59)" xlink:href="#linear-gradient-9"/><linearGradient id="linear-gradient-26" x1="2934.71" y1="235.74" x2="3016.56" y2="229.46" gradientTransform="translate(-2689.59)" xlink:href="#linear-gradient-9"/><linearGradient id="linear-gradient-27" x1="2903.08" y1="231.18" x2="2950.77" y2="239.17" gradientTransform="translate(-2689.59)" xlink:href="#linear-gradient-9"/><radialGradient id="Radial_Gradient_1-8" cx="2923.91" cy="213.82" r="31.14" gradientTransform="translate(-2689.59)" xlink:href="#White_Black_2"/><mask id="mask-4" x="203.63" y="190.03" width="42.83" height="102.91" maskUnits="userSpaceOnUse"><rect class="cls-4" x="203.63" y="190.03" width="42.83" height="102.91" transform="translate(450.1 482.97) rotate(180)"/></mask><linearGradient id="linear-gradient-28" x1="2922.92" y1="212.08" x2="2912.91" y2="229.41" gradientTransform="translate(-2689.59)" xlink:href="#linear-gradient-9"/><linearGradient id="linear-gradient-29" x1="2917.6" y1="255.59" x2="2992.22" y2="249.87" gradientTransform="translate(-2689.59)" xlink:href="#linear-gradient-9"/><linearGradient id="linear-gradient-30" x1="2888.89" y1="251.64" x2="2930.09" y2="258.54" gradientTransform="translate(-2689.59)" xlink:href="#linear-gradient-9"/><radialGradient id="Radial_Gradient_1-9" cx="2906.34" cy="239.11" r="24.27" gradientTransform="translate(-2689.59)" xlink:href="#White_Black_2"/><mask id="mask-5" x="186.28" y="200.85" width="42.83" height="102.91" maskUnits="userSpaceOnUse"><rect class="cls-5" x="186.28" y="200.85" width="42.83" height="102.91" transform="translate(415.4 504.61) rotate(180)"/></mask><linearGradient id="linear-gradient-31" x1="2905.57" y1="245.49" x2="2895.56" y2="262.82" gradientTransform="translate(-2689.59)" xlink:href="#linear-gradient-9"/><linearGradient id="linear-gradient-32" x1="2905.57" y1="279.14" x2="2895.56" y2="296.46" gradientTransform="translate(-2689.59)" xlink:href="#linear-gradient-9"/><linearGradient id="linear-gradient-33" x1="2900.73" y1="277.67" x2="2967.68" y2="272.53" gradientTransform="translate(-2689.59)" xlink:href="#linear-gradient-9"/><linearGradient id="linear-gradient-34" x1="2875.13" y1="274.35" x2="2909.43" y2="280.1" gradientTransform="translate(-2689.59)" xlink:href="#linear-gradient-9"/><radialGradient id="Radial_Gradient_1-10" cx="2888.99" cy="266.96" r="17.44" gradientTransform="translate(-2689.59)" xlink:href="#White_Black_2"/><mask id="mask-6" x="168.89" y="210.75" width="42.83" height="102.91" maskUnits="userSpaceOnUse"><rect class="cls-6" x="168.89" y="210.75" width="42.83" height="102.91" transform="translate(380.61 524.42) rotate(180)"/></mask><linearGradient id="linear-gradient-35" x1="2888.17" y1="271.25" x2="2878.17" y2="288.58" gradientTransform="translate(-2689.59)" xlink:href="#linear-gradient-9"/><linearGradient id="linear-gradient-36" x1="2883.67" y1="295.47" x2="2945.24" y2="290.75" gradientTransform="translate(-2689.59)" xlink:href="#linear-gradient-9"/><linearGradient id="linear-gradient-37" x1="2860.26" y1="292.61" x2="2889.71" y2="297.54" gradientTransform="translate(-2689.59)" xlink:href="#linear-gradient-9"/><radialGradient id="Radial_Gradient_1-11" cx="2871.59" cy="288.83" r="13.34" gradientTransform="translate(-2689.59)" xlink:href="#White_Black_2"/><mask id="mask-7" x="268.95" y="171.87" width="31.17" height="116.72" maskUnits="userSpaceOnUse"><rect class="cls-7" x="268.95" y="171.87" width="31.17" height="116.72" transform="translate(569.07 460.46) rotate(180)"/></mask><linearGradient id="linear-gradient-38" x1="274.9" y1="254.15" x2="294.05" y2="254.15" gradientUnits="userSpaceOnUse"><stop offset="0" stop-color="#671ab9"/><stop offset="0.27" stop-color="#be3bff"/><stop offset="0.36" stop-color="#982de1"/><stop offset="0.46" stop-color="#741fc4"/><stop offset="0.54" stop-color="#5d16b2"/><stop offset="0.59" stop-color="#5513ab"/><stop offset="0.68" stop-color="#5d16b1"/><stop offset="0.82" stop-color="#721ec2"/><stop offset="0.9" stop-color="#8023cd"/><stop offset="1" stop-color="#6619b8"/></linearGradient><linearGradient id="linear-gradient-39" x1="284.54" y1="227.8" x2="284.54" y2="264.05" gradientUnits="userSpaceOnUse"><stop offset="0" stop-color="#e2953f"/><stop offset="0.08" stop-color="#bd7c35"/><stop offset="0.21" stop-color="#8b5c27"/><stop offset="0.34" stop-color="#60401b"/><stop offset="0.46" stop-color="#3e2911"/><stop offset="0.59" stop-color="#23170a"/><stop offset="0.73" stop-color="#0f0a04"/><stop offset="0.86" stop-color="#040201"/><stop offset="1"/></linearGradient><linearGradient id="linear-gradient-40" x1="290.02" y1="212.91" x2="281.1" y2="227.58" xlink:href="#linear-gradient-9"/><radialGradient id="Radial_Gradient_1-12" cx="284.54" cy="225.17" r="7.2" xlink:href="#White_Black_2"/><mask id="mask-8" x="249.78" y="183.07" width="31.17" height="116.72" maskUnits="userSpaceOnUse"><rect class="cls-8" x="249.78" y="183.07" width="31.17" height="116.72" transform="translate(530.73 482.87) rotate(180)"/></mask><linearGradient id="linear-gradient-41" x1="255.73" y1="273.98" x2="274.88" y2="273.98" xlink:href="#linear-gradient-38"/><linearGradient id="linear-gradient-42" x1="265.36" y1="255.69" x2="265.36" y2="288.03" xlink:href="#linear-gradient-39"/><linearGradient id="linear-gradient-43" x1="270.85" y1="241.38" x2="261.93" y2="256.05" xlink:href="#linear-gradient-9"/><radialGradient id="Radial_Gradient_1-13" cx="265.36" cy="253.64" r="7.2" xlink:href="#White_Black_2"/><mask id="mask-9" x="230.41" y="194.97" width="31.17" height="116.72" maskUnits="userSpaceOnUse"><rect class="cls-9" x="230.41" y="194.97" width="31.17" height="116.72" transform="translate(491.98 506.66) rotate(180)"/></mask><linearGradient id="linear-gradient-44" x1="236.35" y1="294.51" x2="255.51" y2="294.51" xlink:href="#linear-gradient-38"/><linearGradient id="linear-gradient-45" x1="245.99" y1="284.69" x2="245.99" y2="307" xlink:href="#linear-gradient-39"/><linearGradient id="linear-gradient-46" x1="251.47" y1="270.53" x2="242.55" y2="285.21" xlink:href="#linear-gradient-9"/><radialGradient id="Radial_Gradient_1-14" cx="245.99" cy="282.8" r="7.2" xlink:href="#White_Black_2"/><linearGradient id="linear-gradient-47" x1="274.89" y1="224.26" x2="294.04" y2="224.26" gradientUnits="userSpaceOnUse"><stop offset="0" stop-color="#ffbb96"/><stop offset="0.23" stop-color="#fffbc9"/><stop offset="0.54" stop-color="#f9b673"/><stop offset="0.64" stop-color="#f9b876"/><stop offset="0.72" stop-color="#fabe81"/><stop offset="0.81" stop-color="#fcc993"/><stop offset="0.86" stop-color="#fed2a3"/><stop offset="0.97" stop-color="#ffc28c"/></linearGradient><linearGradient id="linear-gradient-48" x1="274.79" y1="222.43" x2="274.8" y2="222.43" xlink:href="#linear-gradient-47"/><linearGradient id="linear-gradient-49" x1="274.89" y1="225.37" x2="294.04" y2="225.37" xlink:href="#linear-gradient-47"/><linearGradient id="linear-gradient-50" x1="294.25" y1="222.43" x2="294.25" y2="222.43" xlink:href="#linear-gradient-47"/><linearGradient id="linear-gradient-51" x1="302.5" y1="201.96" x2="283.47" y2="221.11" gradientUnits="userSpaceOnUse"><stop offset="0.04" stop-color="#ffba78"/><stop offset="0.4" stop-color="#ffc987"/><stop offset="1" stop-color="#feeca8"/></linearGradient><radialGradient id="White_Black_Radial" cx="280.34" cy="224.22" r="12.23" xlink:href="#White_Black_2"/><linearGradient id="linear-gradient-52" x1="292.34" y1="212.18" x2="278.12" y2="226.5" xlink:href="#linear-gradient-51"/><radialGradient id="White_Black_Radial-2" cx="287.95" cy="215.41" r="5.38" xlink:href="#White_Black_2"/><linearGradient id="linear-gradient-53" x1="294.96" y1="209.08" x2="281.53" y2="222.59" xlink:href="#linear-gradient-47"/><radialGradient id="radial-gradient-11" cx="10669.09" cy="-9718.02" r="13.81" gradientTransform="matrix(0.04, -0.35, 0.24, 0.03, 2254.98, 4228.83)" gradientUnits="userSpaceOnUse"><stop offset="0" stop-color="#f49587"/><stop offset="0.12" stop-color="#bd7368"/><stop offset="0.24" stop-color="#8b554d"/><stop offset="0.36" stop-color="#603b35"/><stop offset="0.48" stop-color="#3e2622"/><stop offset="0.61" stop-color="#231513"/><stop offset="0.74" stop-color="#0f0908"/><stop offset="0.86" stop-color="#040202"/><stop offset="1"/></radialGradient><radialGradient id="radial-gradient-12" cx="15325.51" cy="-8669.01" r="13.81" gradientTransform="matrix(0.05, -0.14, 0.29, 0.1, 2033.28, 3238.87)" xlink:href="#radial-gradient-11"/><linearGradient id="linear-gradient-54" x1="279.41" y1="220.17" x2="289.96" y2="220.17" xlink:href="#linear-gradient-47"/><linearGradient id="linear-gradient-55" x1="274.02" y1="228.68" x2="286.29" y2="218.11" xlink:href="#linear-gradient-51"/><radialGradient id="radial-gradient-13" cx="286.61" cy="218.13" r="4.31" gradientTransform="matrix(1, 0, 0, 1, 0, 0)" xlink:href="#radial-gradient-11"/><linearGradient id="linear-gradient-56" x1="255.82" y1="252.54" x2="274.97" y2="252.54" xlink:href="#linear-gradient-47"/><linearGradient id="linear-gradient-57" x1="255.73" y1="250.71" x2="255.73" y2="250.71" xlink:href="#linear-gradient-47"/><linearGradient id="linear-gradient-58" x1="255.82" y1="253.65" x2="274.97" y2="253.65" xlink:href="#linear-gradient-47"/><linearGradient id="linear-gradient-59" x1="275.18" y1="250.71" x2="275.18" y2="250.71" xlink:href="#linear-gradient-47"/><linearGradient id="linear-gradient-60" x1="283.43" y1="230.24" x2="264.4" y2="249.39" xlink:href="#linear-gradient-51"/><radialGradient id="White_Black_Radial-3" cx="261.27" cy="252.5" r="12.23" xlink:href="#White_Black_2"/><linearGradient id="linear-gradient-61" x1="273.27" y1="240.47" x2="259.05" y2="254.78" xlink:href="#linear-gradient-51"/><radialGradient id="White_Black_Radial-4" cx="268.88" cy="243.69" r="5.38" xlink:href="#White_Black_2"/><linearGradient id="linear-gradient-62" x1="275.89" y1="237.37" x2="262.47" y2="250.87" xlink:href="#linear-gradient-47"/><radialGradient id="radial-gradient-14" cx="10583.79" cy="-9782.92" r="13.81" xlink:href="#radial-gradient-11"/><radialGradient id="radial-gradient-15" cx="15106.04" cy="-8698.55" r="13.81" gradientTransform="matrix(0.05, -0.14, 0.29, 0.1, 2033.28, 3238.87)" xlink:href="#radial-gradient-11"/><linearGradient id="linear-gradient-63" x1="260.5" y1="248.59" x2="271.05" y2="248.59" xlink:href="#linear-gradient-47"/><linearGradient id="linear-gradient-64" x1="255.11" y1="257.09" x2="267.39" y2="246.53" xlink:href="#linear-gradient-51"/><radialGradient id="radial-gradient-16" cx="267.71" cy="246.55" r="4.31" gradientTransform="matrix(1, 0, 0, 1, 0, 0)" xlink:href="#radial-gradient-11"/><linearGradient id="linear-gradient-65" x1="236.26" y1="281.75" x2="255.41" y2="281.75" xlink:href="#linear-gradient-47"/><linearGradient id="linear-gradient-66" x1="236.17" y1="279.92" x2="236.17" y2="279.92" xlink:href="#linear-gradient-47"/><linearGradient id="linear-gradient-67" x1="236.26" y1="282.86" x2="255.41" y2="282.86" xlink:href="#linear-gradient-47"/><linearGradient id="linear-gradient-68" x1="255.62" y1="279.92" x2="255.62" y2="279.92" xlink:href="#linear-gradient-47"/><linearGradient id="linear-gradient-69" x1="263.87" y1="259.45" x2="244.84" y2="278.6" xlink:href="#linear-gradient-51"/><radialGradient id="White_Black_Radial-5" cx="241.71" cy="281.71" r="12.23" xlink:href="#White_Black_2"/><linearGradient id="linear-gradient-70" x1="253.71" y1="269.68" x2="239.49" y2="283.99" xlink:href="#linear-gradient-51"/><radialGradient id="White_Black_Radial-6" cx="249.32" cy="272.9" r="5.38" xlink:href="#White_Black_2"/><linearGradient id="linear-gradient-71" x1="256.33" y1="266.58" x2="242.91" y2="280.09" xlink:href="#linear-gradient-47"/><radialGradient id="radial-gradient-17" cx="10495.72" cy="-9849.41" r="13.81" xlink:href="#radial-gradient-11"/><radialGradient id="radial-gradient-18" cx="14879.65" cy="-8728.65" r="13.81" gradientTransform="matrix(0.05, -0.14, 0.29, 0.1, 2033.28, 3238.87)" xlink:href="#radial-gradient-11"/><linearGradient id="linear-gradient-72" x1="240.87" y1="277.67" x2="251.42" y2="277.67" xlink:href="#linear-gradient-47"/><linearGradient id="linear-gradient-73" x1="235.48" y1="286.18" x2="247.75" y2="275.61" xlink:href="#linear-gradient-51"/><radialGradient id="radial-gradient-19" cx="248.07" cy="275.63" r="4.31" gradientTransform="matrix(1, 0, 0, 1, 0, 0)" xlink:href="#radial-gradient-11"/><linearGradient id="linear-gradient-74" x1="5738.32" y1="-768.47" x2="5767.76" y2="-815.26" gradientTransform="matrix(0.56, -0.83, 0.83, 0.56, -2447.77, 5359.04)" gradientUnits="userSpaceOnUse"><stop offset="0" stop-color="#fff"/><stop offset="1" stop-color="#8969c3"/></linearGradient><linearGradient id="linear-gradient-75" x1="5338.65" y1="-1127.47" x2="5368.79" y2="-1175.36" gradientTransform="matrix(0.6, -0.75, 0.75, 0.6, -2225.24, 4871.86)" gradientUnits="userSpaceOnUse"><stop offset="0" stop-color="#ebe8ef"/><stop offset="1" stop-color="#8060b8"/></linearGradient><linearGradient id="linear-gradient-76" x1="4853.55" y1="-1438.3" x2="4884.05" y2="-1486.77" gradientTransform="translate(-2002.72 4384.67) rotate(-46.6) scale(0.93)" gradientUnits="userSpaceOnUse"><stop offset="0" stop-color="#d7d2df"/><stop offset="1" stop-color="#7757ae"/></linearGradient><linearGradient id="linear-gradient-77" x1="4290.61" y1="-1674.39" x2="4321.05" y2="-1722.76" gradientTransform="translate(-1780.2 3897.49) rotate(-41.5) scale(0.91)" gradientUnits="userSpaceOnUse"><stop offset="0" stop-color="#c4bbce"/><stop offset="1" stop-color="#6e4ea3"/></linearGradient><linearGradient id="linear-gradient-78" x1="3668.61" y1="-1810.09" x2="3698.5" y2="-1857.59" gradientTransform="translate(-1557.67 3410.3) rotate(-36.17) scale(0.89)" gradientUnits="userSpaceOnUse"><stop offset="0" stop-color="#b0a4be"/><stop offset="1" stop-color="#654598"/></linearGradient><linearGradient id="linear-gradient-79" x1="3014.02" y1="-1827.66" x2="3042.86" y2="-1873.49" gradientTransform="matrix(0.76, -0.45, 0.45, 0.76, -1335.15, 2923.11)" gradientUnits="userSpaceOnUse"><stop offset="0" stop-color="#9c8dae"/><stop offset="1" stop-color="#5c3c8d"/></linearGradient><linearGradient id="linear-gradient-80" x1="2361.88" y1="-1719.3" x2="2389.19" y2="-1762.7" gradientTransform="translate(-1112.62 2435.93) rotate(-25.18) scale(0.88)" gradientUnits="userSpaceOnUse"><stop offset="0" stop-color="#88779e"/><stop offset="1" stop-color="#523283"/></linearGradient><linearGradient id="linear-gradient-81" x1="1748.02" y1="-1490.81" x2="1773.41" y2="-1531.17" gradientTransform="translate(-890.1 1948.74) rotate(-19.71) scale(0.89)" gradientUnits="userSpaceOnUse"><stop offset="0" stop-color="#74608e"/><stop offset="1" stop-color="#492978"/></linearGradient><linearGradient id="linear-gradient-82" x1="1202.95" y1="-1160.52" x2="1226.13" y2="-1197.37" gradientTransform="translate(-667.57 1461.56) rotate(-14.39) scale(0.91)" gradientUnits="userSpaceOnUse"><stop offset="0" stop-color="#60497e"/><stop offset="1" stop-color="#40206d"/></linearGradient><linearGradient id="linear-gradient-83" x1="747.08" y1="-755.19" x2="767.9" y2="-788.28" gradientTransform="translate(-445.05 974.37) rotate(-9.29) scale(0.93)" gradientUnits="userSpaceOnUse"><stop offset="0" stop-color="#4d326d"/><stop offset="1" stop-color="#371762"/></linearGradient><linearGradient id="linear-gradient-84" x1="389.25" y1="-304.43" x2="407.68" y2="-333.73" gradientTransform="translate(-222.52 487.19) rotate(-4.48) scale(0.96)" gradientUnits="userSpaceOnUse"><stop offset="0" stop-color="#391c5d"/><stop offset="1" stop-color="#2e0e58"/></linearGradient><linearGradient id="New_Gradient_Swatch_copy_8" x1="4664.52" y1="-808.68" x2="4664.11" y2="-824.07" gradientTransform="translate(-2681.35 4070.81) rotate(-45)" gradientUnits="userSpaceOnUse"><stop offset="0.04" stop-color="#ffa98c"/><stop offset="0.32" stop-color="#ffb892"/><stop offset="0.86" stop-color="#fee1a3"/><stop offset="1" stop-color="#feeca8"/></linearGradient><radialGradient id="radial-gradient-20" cx="4658.71" cy="-819.49" r="8.73" gradientTransform="translate(-2681.35 4070.81) rotate(-45)" xlink:href="#radial-gradient-6"/><linearGradient id="linear-gradient-85" x1="1218.9" y1="1075.96" x2="1216.75" y2="1072.23" gradientTransform="translate(-1098.08 -924.51)" gradientUnits="userSpaceOnUse"><stop offset="0.01" stop-color="#f9b595"/><stop offset="0.13" stop-color="#fbc59c"/><stop offset="0.18" stop-color="#f9ba97"/><stop offset="0.25" stop-color="#f8ae92"/><stop offset="0.33" stop-color="#f7aa90"/><stop offset="0.43" stop-color="#f8b394"/><stop offset="0.59" stop-color="#fccb9d"/><stop offset="0.73" stop-color="#ffe4a7"/><stop offset="0.97" stop-color="#f7aa90"/></linearGradient><linearGradient id="New_Gradient_Swatch_copy_8-2" x1="1207.2" y1="1079.5" x2="1209.69" y2="1079.5" gradientTransform="translate(-1098.08 -924.51)" xlink:href="#New_Gradient_Swatch_copy_8"/><linearGradient id="linear-gradient-86" x1="1170.19" y1="1104.39" x2="1168.1" y2="1100.77" gradientTransform="translate(-1098.08 -924.51)" gradientUnits="userSpaceOnUse"><stop offset="0.04" stop-color="#1e1f21"/><stop offset="0.12" stop-color="#2d2e30"/><stop offset="0.14" stop-color="#323336"/><stop offset="0.27" stop-color="#0e0e0f"/><stop offset="0.35" stop-color="#131415"/><stop offset="0.46" stop-color="#232326"/><stop offset="0.59" stop-color="#3c3d41"/><stop offset="0.73" stop-color="#5e6167"/><stop offset="0.77" stop-color="#696c73"/><stop offset="1" stop-color="#37383c"/></linearGradient><linearGradient id="linear-gradient-87" x1="4652.16" y1="-815.83" x2="4655.61" y2="-818.92" gradientTransform="translate(-2681.35 4070.81) rotate(-45)" gradientUnits="userSpaceOnUse"><stop offset="0.04" stop-color="#1e1f21"/><stop offset="0.31" stop-color="#2c2e30"/><stop offset="0.84" stop-color="#515359"/><stop offset="1" stop-color="#5d6066"/></linearGradient><linearGradient id="New_Gradient_Swatch_copy_8-3" x1="4663.63" y1="-820.82" x2="4660.71" y2="-825.86" xlink:href="#New_Gradient_Swatch_copy_8"/><linearGradient id="New_Gradient_Swatch_copy_8-4" x1="1132.48" y1="1117.89" x2="1171" y2="1106.35" gradientTransform="translate(-1098.08 -924.51)" xlink:href="#New_Gradient_Swatch_copy_8"/><radialGradient id="radial-gradient-21" cx="4661" cy="-823.08" r="6.3" gradientTransform="translate(-2681.35 4070.81) rotate(-45)" xlink:href="#radial-gradient-6"/><linearGradient id="New_Gradient_Swatch_copy_8-5" x1="4660.85" y1="-806.86" x2="4663.41" y2="-810.58" xlink:href="#New_Gradient_Swatch_copy_8"/><linearGradient id="New_Gradient_Swatch_copy_8-6" x1="4666.86" y1="-816.77" x2="4662.58" y2="-804.74" xlink:href="#New_Gradient_Swatch_copy_8"/><radialGradient id="radial-gradient-22" cx="4653.8" cy="-811.36" r="5.49" gradientTransform="translate(-2681.35 4070.81) rotate(-45)" xlink:href="#radial-gradient-6"/><radialGradient id="New_Gradient_Swatch_copy" cx="3415.85" cy="-18527.56" r="9.29" gradientTransform="matrix(1.42, -0.84, 0.09, 0.15, -3051.99, 5885.75)" xlink:href="#radial-gradient-10"/></defs><g class="cls-10"><g id="Layer_2" data-name="Layer 2"><g id="Layer_1-2" data-name="Layer 1"><ellipse class="cls-11" cx="134.94" cy="209.77" rx="88.06" ry="28.66" transform="translate(-71.99 70.52) rotate(-23.31)"/><g class="cls-12"><polygon class="cls-13" points="130.81 264.65 71.4 229.45 91.28 197.11 150.69 232.31 130.81 264.65"/><polygon class="cls-14" points="71.85 229.29 131.23 264.51 111.23 276.05 51.85 240.84 71.85 229.29"/><polygon class="cls-15" points="15.32 271.97 74.05 306.97 59.38 332.17 0 296.95 15.32 271.97"/><polygon class="cls-16" points="15.32 271.97 74.05 306.97 103.02 289.4 43.63 254.19 15.32 271.97"/><polygon class="cls-17" points="59.45 338.8 0.05 303.6 0.05 296.9 59.45 332.1 59.45 338.8"/><polygon class="cls-18" points="103.05 289.35 43.64 254.15 52.14 240.65 111.55 275.85 103.05 289.35"/><polygon class="cls-19" points="149.82 164.1 208.55 199.1 150.88 232.5 91.5 197.29 149.82 164.1"/><polygon class="cls-20" points="149.82 164.1 208.55 199.1 232.01 161.9 172.63 126.69 149.82 164.1"/><polygon class="cls-21" points="273.88 138.32 279.04 135.93 207.74 0 202.11 1.94 273.88 138.32"/><polygon class="cls-22" points="231.82 114.04 231.82 162.16 208.8 199.1 150.68 232.31 130.8 264.1 111.24 276.04 102.74 289.44 73.92 306.6 59.45 332.1 59.45 338.8 236.71 237.6 236.71 112.73 231.82 114.04"/><polygon class="cls-23" points="172.69 79.9 172.69 128.2 231.82 162.34 231.82 114.04 273.88 138.32 202.26 1.77 130.63 55.62 172.69 79.9"/></g><g class="cls-24"><path class="cls-25" d="M128.24,85.58c0,32.28,22.89,71.75,51,88,7.7,4.45,15.31,6.8,22,6.8,15.91,0,25.8-13,25.8-34,0-32.28-22.89-71.76-51-88-7.7-4.45-15.31-6.8-22-6.8C138.12,51.55,128.24,64.59,128.24,85.58Z"/><path class="cls-26" d="M129.4,86.92c0,31.35,22.23,69.69,49.56,85.46,7.48,4.33,14.88,6.61,21.39,6.61,15.45,0,25.05-12.66,25.05-33.05,0-31.35-22.23-69.69-49.56-85.47-7.48-4.32-14.88-6.6-21.38-6.6C139,53.87,129.4,66.53,129.4,86.92Z"/><path class="cls-27" d="M130.57,88.25c0,30.43,21.57,67.63,48.09,82.94,7.26,4.2,14.43,6.41,20.75,6.41,15,0,24.31-12.29,24.31-32.06,0-30.43-21.57-67.63-48.09-82.94-7.26-4.2-14.44-6.41-20.75-6.41C139.88,56.19,130.57,68.48,130.57,88.25Z"/><path class="cls-28" d="M131.73,89.59c0,29.5,20.91,65.57,46.62,80.41,7,4.06,14,6.21,20.12,6.21C213,176.21,222,164.3,222,145.13c0-29.5-20.92-65.57-46.62-80.41-7-4.06-14-6.21-20.12-6.21C140.76,58.51,131.73,70.42,131.73,89.59Z"/><path class="cls-29" d="M132.89,90.93c0,28.57,20.26,63.5,45.16,77.88,6.81,3.93,13.55,6,19.48,6,14.08,0,22.83-11.53,22.83-30.1,0-28.57-20.26-63.5-45.16-77.88-6.81-3.93-13.55-6-19.48-6C141.64,60.83,132.89,72.36,132.89,90.93Z"/><path class="cls-30" d="M134.06,92.27c0,27.64,19.59,61.44,43.68,75.35,6.6,3.8,13.12,5.82,18.85,5.82,13.63,0,22.09-11.16,22.09-29.13,0-27.64-19.6-61.44-43.69-75.34-6.59-3.81-13.11-5.83-18.85-5.83C142.52,63.14,134.06,74.31,134.06,92.27Z"/><path class="cls-31" d="M135.22,93.61c0,26.71,18.94,59.37,42.22,72.81,6.37,3.68,12.67,5.63,18.22,5.63,13.16,0,21.34-10.79,21.34-28.15,0-26.71-18.94-59.37-42.22-72.81-6.37-3.68-12.67-5.63-18.22-5.63C143.4,65.46,135.22,76.25,135.22,93.61Z"/><path class="cls-32" d="M136.38,95c0,25.78,18.28,57.31,40.75,70.28,6.15,3.55,12.24,5.43,17.59,5.43,12.7,0,20.6-10.41,20.6-27.17,0-25.78-18.28-57.31-40.75-70.28-6.15-3.55-12.23-5.43-17.59-5.43C144.28,67.78,136.38,78.19,136.38,95Z"/><path class="cls-33" d="M137.55,96.29c0,24.85,17.62,55.24,39.28,67.75,5.93,3.42,11.79,5.23,16.95,5.23,12.25,0,19.86-10,19.86-26.19,0-24.85-17.62-55.24-39.28-67.75-5.93-3.42-11.8-5.23-17-5.23C145.16,70.1,137.55,80.13,137.55,96.29Z"/><path class="cls-34" d="M138.71,97.63c0,23.92,17,53.18,37.81,65.22,5.71,3.29,11.36,5,16.32,5,11.79,0,19.12-9.66,19.12-25.21,0-23.92-17-53.18-37.82-65.21-5.7-3.3-11.35-5-16.31-5C146,72.42,138.71,82.08,138.71,97.63Z"/><path class="cls-35" d="M139.87,99c0,23,16.31,51.11,36.35,62.68,5.49,3.17,10.91,4.85,15.68,4.85,11.34,0,18.38-9.29,18.38-24.24,0-23-16.31-51.11-36.35-62.68-5.49-3.17-10.91-4.84-15.68-4.84C146.91,74.74,139.87,84,139.87,99Z"/><path class="cls-36" d="M141,100.31c0,22.06,15.64,49.05,34.88,60.15,5.26,3,10.46,4.65,15.05,4.65,10.87,0,17.63-8.91,17.63-23.26,0-22.06-15.65-49-34.88-60.15-5.27-3-10.47-4.65-15.05-4.65C147.79,77.05,141,86,141,100.31Z"/></g><ellipse class="cls-37" cx="162.76" cy="206.47" rx="38.85" ry="16.17"/><path class="cls-38" d="M134.71,73.63C102.27,54.9,76,69.9,76,107.12s26.29,82.57,58.73,101.3,58.73,3.73,58.73-33.49S167.14,92.36,134.71,73.63Zm0,114.05c-22.46-13-40.66-44.36-40.66-70.13s18.2-36.15,40.66-23.18,40.66,44.36,40.66,70.13S157.16,200.64,134.71,187.68Z"/><path class="cls-39" d="M129.58,76.61C97.14,57.89,70.85,72.88,70.85,110.1s26.29,82.57,58.73,101.3,58.73,3.74,58.73-33.49S162,95.34,129.58,76.61Z"/><g class="cls-40"><path class="cls-41" d="M130.45,76.12c-16.45-9.5-31.32-10.32-42-4,10.59-5.8,25.1-4.78,41.11,4.46,32.44,18.73,58.73,64.08,58.73,101.3,0,18.35-6.39,31.29-16.75,37.46,10.87-6,17.62-19.1,17.62-38C189.18,140.2,162.89,94.84,130.45,76.12Z"/></g><ellipse class="cls-42" cx="28.94" cy="202.64" rx="25.7" ry="10.35" transform="translate(-97.54 41.7) rotate(-30.04)"/><ellipse class="cls-43" cx="129.58" cy="144.01" rx="47.8" ry="82.8" transform="translate(-54.97 85.08) rotate(-30.31)"/><ellipse class="cls-44" cx="129.58" cy="144.01" rx="45.63" ry="79.04" transform="matrix(0.86, -0.5, 0.5, 0.86, -54.97, 85.08)"/><ellipse class="cls-45" cx="129.58" cy="144.01" rx="39.11" ry="67.74" transform="translate(-54.97 85.08) rotate(-30.31)"/><ellipse class="cls-46" cx="129.58" cy="144.01" rx="32.59" ry="56.45" transform="translate(-54.97 85.08) rotate(-30.31)"/><ellipse class="cls-45" cx="129.58" cy="144.01" rx="26.07" ry="45.16" transform="matrix(0.86, -0.5, 0.5, 0.86, -54.97, 85.08)"/><ellipse class="cls-47" cx="129.58" cy="144.01" rx="19.56" ry="33.87" transform="translate(-54.97 85.08) rotate(-30.31)"/><ellipse class="cls-45" cx="129.58" cy="144.01" rx="13.04" ry="22.58" transform="translate(-54.97 85.08) rotate(-30.31)"/><ellipse class="cls-48" cx="129.58" cy="144.01" rx="6.52" ry="11.29" transform="translate(-54.97 85.08) rotate(-30.31)"/><path class="cls-49" d="M129.58,79.68c-16.85-9.73-32-9.91-42.23-2.34,10.24-6.83,24.92-6.36,41.22,3.06,31,17.87,56.06,61.17,56.06,96.69,0,16.2-5.22,28-13.83,34.3,9.21-6.14,14.84-18.2,14.84-35C185.64,140.85,160.54,97.55,129.58,79.68Z"/><path class="cls-50" d="M129.58,98.06c-12.15-7-23-7.08-30.37-1.51,7.31-4.83,17.76-4.47,29.36,2.23,22.12,12.77,40.05,43.69,40.05,69.07,0,11.43-3.65,19.77-9.67,24.34,6.62-4.38,10.67-13,10.67-25.06C169.62,141.75,151.7,110.83,129.58,98.06Z"/><path class="cls-51" d="M129.58,116.44c-7.45-4.3-14.11-4.26-18.52-.69,4.39-2.82,10.61-2.58,17.51,1.41,13.27,7.66,24,26.21,24,41.44,0,6.67-2.07,11.6-5.51,14.38,4-2.6,6.52-7.8,6.52-15.1C153.61,142.65,142.85,124.1,129.58,116.44Z"/><path class="cls-52" d="M129.58,134.82c-2.66-1.54-5-1.4-6.46,0,1.43-.7,3.34-.54,5.45.68,4.43,2.55,8,8.73,8,13.81a6.19,6.19,0,0,1-1.55,4.52c1.57-.77,2.56-2.58,2.56-5.24C137.59,143.56,134,137.37,129.58,134.82Z"/><ellipse class="cls-53" cx="186.1" cy="150.9" rx="17.79" ry="8.06" transform="translate(-42.43 78.93) rotate(-21.56)"/><g class="cls-54"><polygon class="cls-55" points="52.14 240.65 111.36 275.35 130.61 264.29 111.8 276.23 102.74 289.44 110.73 276.04 52.14 240.65"/><polygon class="cls-56" points="91.39 197.03 150.61 231.73 198.55 205.23 151.05 232.6 135.05 257.35 149.99 232.41 91.39 197.03"/><polygon class="cls-57" points="15.8 272.35 73.86 305.98 98.17 292.23 74.3 306.85 60.05 330.98 73.23 306.66 15.8 272.35"/><polygon class="cls-58" points="208.8 199.1 231.82 162.34 231.82 114.04 231.05 161.6 208.8 199.1"/><polygon class="cls-59" points="273.55 138.38 202.05 1.79 202.88 1.63 274.21 137.96 273.55 138.38"/></g><g class="cls-60"><g class="cls-61"><polygon class="cls-62" points="261.46 156.69 273.43 163.6 261.46 170.52 249.49 163.6 261.46 156.69"/><polygon class="cls-63" points="273.44 261.2 261.46 268.11 261.46 170.52 273.44 163.6 273.44 261.2"/><polygon class="cls-64" points="261.46 268.11 249.49 261.2 249.49 163.6 261.46 170.52 261.46 268.11"/></g><polygon class="cls-65" points="249.49 163.6 261.4 170.02 273.44 163.6 261.82 170.78 261.46 268.11 260.89 170.69 249.49 163.6"/></g><g class="cls-66"><g class="cls-61"><polygon class="cls-67" points="244.29 186.09 256.26 193.01 244.29 199.93 232.32 193.01 244.29 186.09"/><polygon class="cls-68" points="256.27 270.76 244.29 277.67 244.29 199.93 256.27 193.01 256.27 270.76"/><polygon class="cls-69" points="244.29 277.67 232.32 270.76 232.32 193.01 244.29 199.93 244.29 277.67"/></g><polygon class="cls-70" points="232.32 193.01 244.23 199.43 256.27 193.01 244.66 200.19 244.29 277.67 243.72 200.1 232.32 193.01"/></g><g class="cls-71"><g class="cls-61"><polygon class="cls-72" points="226.72 216.61 238.69 223.53 226.72 230.44 214.75 223.52 226.72 216.61"/><polygon class="cls-73" points="238.7 280.02 226.72 286.94 226.72 230.44 238.7 223.52 238.7 280.02"/><polygon class="cls-74" points="226.73 286.94 214.75 280.02 214.75 223.52 226.73 230.44 226.73 286.94"/></g><polygon class="cls-75" points="214.75 223.52 226.66 229.94 238.7 223.52 227.09 230.7 226.73 286.94 226.16 230.61 214.75 223.52"/></g><g class="cls-76"><g class="cls-61"><polygon class="cls-77" points="209.37 250.01 221.34 256.93 209.37 263.85 197.4 256.93 209.37 250.01"/><polygon class="cls-78" points="209.37 283.66 221.34 290.58 209.37 297.49 197.4 290.57 209.37 283.66"/><polygon class="cls-79" points="221.35 290.84 209.38 297.76 209.38 263.84 221.35 256.93 221.35 290.84"/><polygon class="cls-80" points="209.38 297.76 197.4 290.84 197.4 256.93 209.38 263.84 209.38 297.76"/></g><polygon class="cls-81" points="197.4 256.93 209.32 263.34 221.35 256.93 209.74 264.11 209.38 297.76 208.81 264.02 197.4 256.93"/></g><g class="cls-82"><g class="cls-61"><polygon class="cls-83" points="191.97 275.77 203.95 282.69 191.97 289.61 180 282.69 191.97 275.77"/><polygon class="cls-84" points="203.96 300.75 191.98 307.66 191.98 289.6 203.96 282.69 203.96 300.75"/><polygon class="cls-85" points="191.98 307.66 180 300.75 180 282.69 191.98 289.6 191.98 307.66"/></g><polygon class="cls-86" points="180 282.69 191.92 289.11 203.96 282.69 192.34 289.87 191.98 307.66 191.41 289.78 180 282.69"/></g><g class="cls-87"><path class="cls-88" d="M294.27,221.89H274.8v58.77h0s0,0,0,.08c0,3.13,4.36,5.66,9.74,5.66s9.73-2.53,9.73-5.66c0,0,0-.06,0-.08h0Z"/><path class="cls-89" d="M294.27,221.89H274.8v58.77h0s0,0,0,.08c0,3.13,4.36,5.66,9.74,5.66s9.73-2.53,9.73-5.66c0,0,0-.06,0-.08h0Z"/><ellipse class="cls-90" cx="284.54" cy="221.93" rx="9.73" ry="5.67"/><path class="cls-91" d="M284.54,227.5c-5.18,0-9.41-2.36-9.71-5.33,0,.11,0,.22,0,.33,0,3.13,4.36,5.67,9.74,5.67s9.73-2.54,9.73-5.67c0-.11,0-.22,0-.33C293.94,225.14,289.72,227.5,284.54,227.5Z"/></g><g class="cls-92"><path class="cls-93" d="M275.09,250.36H255.63v41.5h0s0,.05,0,.08c0,3.13,4.36,5.67,9.73,5.67s9.73-2.54,9.73-5.67v-.08h0Z"/><path class="cls-94" d="M275.09,250.36H255.63v41.5h0s0,.05,0,.08c0,3.13,4.36,5.67,9.73,5.67s9.73-2.54,9.73-5.67v-.08h0Z"/><ellipse class="cls-95" cx="265.36" cy="250.4" rx="9.73" ry="5.67"/><path class="cls-96" d="M265.36,256c-5.18,0-9.4-2.36-9.7-5.33,0,.11,0,.22,0,.33,0,3.13,4.36,5.67,9.73,5.67s9.73-2.54,9.73-5.67c0-.11,0-.22,0-.33C274.77,253.61,270.54,256,265.36,256Z"/></g><g class="cls-97"><path class="cls-98" d="M255.72,279.52H236.26v24.24h0v.07c0,3.13,4.36,5.67,9.73,5.67s9.73-2.54,9.73-5.67v-.07h0Z"/><path class="cls-99" d="M255.72,279.52H236.26v24.24h0v.07c0,3.13,4.36,5.67,9.73,5.67s9.73-2.54,9.73-5.67v-.07h0Z"/><ellipse class="cls-100" cx="245.99" cy="279.55" rx="9.73" ry="5.67"/><path class="cls-101" d="M246,285.13c-5.18,0-9.4-2.36-9.7-5.34,0,.12,0,.23,0,.34,0,3.13,4.36,5.67,9.73,5.67s9.73-2.54,9.73-5.67c0-.11,0-.22,0-.34C255.39,282.77,251.17,285.13,246,285.13Z"/></g><path class="cls-102" d="M294.25,220H274.79v2.75h0s0,.05,0,.08c0,3.12,4.36,5.66,9.73,5.66s9.73-2.54,9.73-5.66v-.08h0Z"/><g class="cls-24"><path class="cls-103" d="M274.79,222.39v.08s0-.05,0-.08Z"/><path class="cls-104" d="M284.52,227.89c-5.37,0-9.73-2.53-9.73-5.66v.53h0s0,.05,0,.08c0,3.12,4.36,5.66,9.73,5.66s9.73-2.54,9.73-5.66v-.08h0v-.53C294.25,225.36,289.9,227.89,284.52,227.89Z"/><path class="cls-105" d="M294.25,222.47v-.08h0Z"/></g><g class="cls-24"><path class="cls-106" d="M287.5,228.23l.28-.06V221h-.28Z"/><path class="cls-106" d="M288.73,227.94l.27-.08V221h-.27Z"/><path class="cls-106" d="M290,227.54l.27-.12V221H290Z"/><path class="cls-106" d="M286.28,228.4l.27,0V221h-.27Z"/><path class="cls-106" d="M292.39,226.16c.09-.08.19-.15.27-.23v-5h-.27Z"/><path class="cls-106" d="M293.61,224.84a4,4,0,0,0,.28-.48V221h-.28Z"/><path class="cls-106" d="M291.17,227l.27-.14V221h-.27Z"/><path class="cls-106" d="M285.06,228.48h.27V221h-.27Z"/><path class="cls-106" d="M283.84,228.48h.27V221h-.27Z"/><path class="cls-106" d="M281.39,228.2l.27.05V221h-.27Z"/><path class="cls-106" d="M282.61,228.39l.28,0V221h-.28Z"/><path class="cls-106" d="M280.17,227.9l.27.07v-7h-.27Z"/><path class="cls-106" d="M275.28,224.6a3.87,3.87,0,0,0,.27.43V221h-.27Z"/><path class="cls-106" d="M276.5,226l.28.21V221h-.28Z"/><path class="cls-106" d="M279,227.47l.27.11V221H279Z"/><path class="cls-106" d="M277.73,226.88l.27.15V221h-.27Z"/></g><ellipse class="cls-107" cx="284.52" cy="220.05" rx="9.73" ry="5.67"/><path class="cls-108" d="M284.52,225.57c-5.26,0-9.53-2.44-9.71-5.47,0,.06,0,.13,0,.19,0,3.13,4.36,5.67,9.73,5.67s9.73-2.54,9.73-5.67a1.23,1.23,0,0,0,0-.19C294.05,223.13,289.78,225.57,284.52,225.57Z"/><ellipse class="cls-109" cx="284.52" cy="220.05" rx="7.27" ry="4.23"/><path class="cls-110" d="M284.77,216c3.88,0,7,1.77,7.25,4,0-.08,0-.15,0-.23,0-2.34-3.26-4.24-7.27-4.24s-7.28,1.9-7.28,4.24c0,.08,0,.15,0,.23C277.72,217.8,280.88,216,284.77,216Z"/><path class="cls-111" d="M284.52,216.27c3.89,0,7.05,1.78,7.26,4,0-.08,0-.15,0-.23,0-2.34-3.26-4.23-7.28-4.23s-7.27,1.89-7.27,4.23a1.79,1.79,0,0,0,0,.23C277.47,218.05,280.64,216.27,284.52,216.27Z"/><path class="cls-112" d="M279.54,221.21c1.86.2,3.14,2.54,2.85,5.22s-2,4.69-3.89,4.49-3.14-2.53-2.86-5.21S277.67,221,279.54,221.21Z"/><path class="cls-113" d="M289.63,214.59c2.19.75,3.66,2.23,3.29,3.31s-2.44,1.36-4.62.62-3.66-2.23-3.29-3.31S287.45,213.85,289.63,214.59Z"/><path class="cls-114" d="M286.94,219.08l2.62.47c.44.08.54.42.16.57l-2.24.91c-.15.07-.23.16-.23.27l0,1.59c0,.26-.51.42-.88.26l-2.21-1a.88.88,0,0,0-.51,0l-2.6.5c-.44.09-.86-.16-.71-.41l.87-1.5a.21.21,0,0,0-.08-.29l-1.65-1.28c-.28-.21,0-.51.45-.51l2.75,0a.74.74,0,0,0,.46-.14l1.58-1.29a.76.76,0,0,1,1,.09l.83,1.52A.5.5,0,0,0,286.94,219.08Z"/><path class="cls-115" d="M286.94,218.78l2.62.48c.44.08.54.41.16.57l-2.24.91c-.15.06-.23.16-.23.26l0,1.59c0,.27-.51.42-.88.26l-2.21-.95a.88.88,0,0,0-.51-.05l-2.6.5c-.44.09-.86-.15-.71-.4l.87-1.51a.21.21,0,0,0-.08-.29l-1.65-1.28c-.28-.21,0-.51.45-.51l2.75,0a.74.74,0,0,0,.46-.14l1.58-1.29a.76.76,0,0,1,1,.09l.83,1.52A.5.5,0,0,0,286.94,218.78Z"/><path class="cls-116" d="M286.94,218.78l2.62.48c.44.08.54.41.16.57l-2.24.91c-.15.06-.23.16-.23.26l0,1.59c0,.27-.51.42-.88.26l-2.21-.95a.88.88,0,0,0-.51-.05l-2.6.5c-.44.09-.86-.15-.71-.4l.87-1.51a.21.21,0,0,0-.08-.29l-1.65-1.28c-.28-.21,0-.51.45-.51l2.75,0a.74.74,0,0,0,.46-.14l1.58-1.29a.76.76,0,0,1,1,.09l.83,1.52A.5.5,0,0,0,286.94,218.78Z"/><path class="cls-117" d="M275.18,248.29H255.73V251h0v.08c0,3.13,4.35,5.66,9.73,5.66s9.72-2.53,9.72-5.66V251h0Z"/><g class="cls-24"><path class="cls-118" d="M255.73,250.68v0Z"/><path class="cls-119" d="M265.46,256.18c-5.38,0-9.73-2.54-9.73-5.67V251h0v.08c0,3.13,4.35,5.66,9.73,5.66s9.72-2.53,9.72-5.66V251h0v-.53C275.18,253.64,270.83,256.18,265.46,256.18Z"/><path class="cls-120" d="M275.18,250.75v-.07h0Z"/></g><g class="cls-24"><path class="cls-106" d="M268.43,256.51l.28-.06v-7.19h-.28Z"/><path class="cls-106" d="M269.66,256.22l.27-.08v-6.88h-.27Z"/><path class="cls-106" d="M270.88,255.82l.27-.12v-6.44h-.27Z"/><path class="cls-106" d="M267.21,256.69l.28,0v-7.4h-.28Z"/><path class="cls-106" d="M273.32,254.44l.28-.23v-5h-.28Z"/><path class="cls-106" d="M274.55,253.12q.15-.24.27-.48v-3.38h-.27Z"/><path class="cls-106" d="M272.1,255.25l.27-.15v-5.84h-.27Z"/><path class="cls-106" d="M266,256.77h.27v-7.5H266Z"/><path class="cls-106" d="M264.77,256.76H265v-7.51h-.27Z"/><path class="cls-106" d="M262.32,256.48l.28,0v-7.27h-.28Z"/><path class="cls-106" d="M263.55,256.67l.27,0v-7.44h-.27Z"/><path class="cls-106" d="M261.1,256.18l.27.07v-7h-.27Z"/><path class="cls-106" d="M256.21,252.88a4,4,0,0,0,.28.43v-4.05h-.28Z"/><path class="cls-106" d="M257.44,254.32l.27.21v-5.27h-.27Z"/><path class="cls-106" d="M259.88,255.76l.27.1v-6.6h-.27Z"/><path class="cls-106" d="M258.66,255.17l.27.14v-6.05h-.27Z"/></g><ellipse class="cls-121" cx="265.46" cy="248.33" rx="9.73" ry="5.67"/><path class="cls-122" d="M265.46,253.85c-5.26,0-9.54-2.43-9.72-5.47,0,.06,0,.13,0,.2,0,3.12,4.35,5.66,9.73,5.66s9.72-2.54,9.72-5.66c0-.07,0-.14,0-.2C275,251.42,270.71,253.85,265.46,253.85Z"/><path class="cls-123" d="M272.73,248.33c0,2.34-3.26,4.24-7.27,4.24s-7.28-1.9-7.28-4.24,3.26-4.23,7.28-4.23S272.73,246,272.73,248.33Z"/><path class="cls-124" d="M265.7,244.31c3.88,0,7.05,1.78,7.25,4a1.79,1.79,0,0,0,0-.23c0-2.34-3.26-4.23-7.27-4.23s-7.27,1.89-7.27,4.23c0,.08,0,.15,0,.23C258.65,246.09,261.81,244.31,265.7,244.31Z"/><path class="cls-125" d="M265.46,244.55c3.88,0,7,1.78,7.25,4,0-.08,0-.15,0-.23,0-2.34-3.26-4.23-7.27-4.23s-7.28,1.89-7.28,4.23c0,.08,0,.15,0,.23C258.41,246.33,261.57,244.55,265.46,244.55Z"/><path class="cls-126" d="M260.47,249.5c1.86.2,3.14,2.53,2.86,5.21s-2,4.69-3.9,4.49-3.14-2.53-2.86-5.21S258.6,249.3,260.47,249.5Z"/><path class="cls-127" d="M270.56,242.88c2.19.74,3.66,2.22,3.3,3.3s-2.44,1.36-4.63.62-3.66-2.23-3.29-3.31S268.38,242.13,270.56,242.88Z"/><path class="cls-128" d="M268,247.5l2.63.47c.44.08.53.42.16.57l-2.24.91c-.15.06-.24.16-.24.27l.05,1.59c0,.26-.52.41-.89.25l-2.21-.95a1,1,0,0,0-.51-.05l-2.6.51c-.43.08-.85-.16-.7-.41l.87-1.5a.22.22,0,0,0-.08-.3l-1.65-1.27c-.28-.21,0-.52.45-.51l2.74,0a.76.76,0,0,0,.46-.13l1.58-1.29a.76.76,0,0,1,1,.09l.82,1.51A.55.55,0,0,0,268,247.5Z"/><path class="cls-129" d="M268,247.2l2.63.48c.44.08.53.41.16.56l-2.24.92c-.15.06-.24.16-.24.26l.05,1.59c0,.26-.52.42-.89.26l-2.21-1a.79.79,0,0,0-.51,0l-2.6.5c-.43.09-.85-.15-.7-.41l.87-1.5a.21.21,0,0,0-.08-.29l-1.65-1.28c-.28-.21,0-.51.45-.51l2.74,0a.7.7,0,0,0,.46-.14l1.58-1.29a.77.77,0,0,1,1,.09l.82,1.52A.54.54,0,0,0,268,247.2Z"/><path class="cls-130" d="M268,247.2l2.63.48c.44.08.53.41.16.56l-2.24.92c-.15.06-.24.16-.24.26l.05,1.59c0,.26-.52.42-.89.26l-2.21-1a.79.79,0,0,0-.51,0l-2.6.5c-.43.09-.85-.15-.7-.41l.87-1.5a.21.21,0,0,0-.08-.29l-1.65-1.28c-.28-.21,0-.51.45-.51l2.74,0a.7.7,0,0,0,.46-.14l1.58-1.29a.77.77,0,0,1,1,.09l.82,1.52A.54.54,0,0,0,268,247.2Z"/><path class="cls-131" d="M255.62,277.5H236.17v2.75h0v.08c0,3.13,4.35,5.66,9.73,5.66s9.72-2.53,9.72-5.66v-.08h0Z"/><g class="cls-24"><path class="cls-132" d="M236.17,279.89v0Z"/><path class="cls-133" d="M245.9,285.39c-5.38,0-9.73-2.54-9.73-5.67v.53h0v.08c0,3.13,4.35,5.66,9.73,5.66s9.72-2.53,9.72-5.66v-.08h0v-.53C255.62,282.85,251.27,285.39,245.9,285.39Z"/><path class="cls-134" d="M255.62,280v-.07h0Z"/></g><g class="cls-24"><path class="cls-106" d="M248.88,285.72l.27-.06v-7.19h-.27Z"/><path class="cls-106" d="M250.1,285.43l.27-.08v-6.88h-.27Z"/><path class="cls-106" d="M251.32,285l.27-.12v-6.44h-.27Z"/><path class="cls-106" d="M247.65,285.9l.28,0v-7.4h-.28Z"/><path class="cls-106" d="M253.76,283.65l.28-.23v-4.95h-.28Z"/><path class="cls-106" d="M255,282.33q.15-.24.27-.48v-3.38H255Z"/><path class="cls-106" d="M252.54,284.46l.28-.15v-5.84h-.28Z"/><path class="cls-106" d="M246.43,286h.27v-7.5h-.27Z"/><path class="cls-106" d="M245.21,286h.27v-7.51h-.27Z"/><path class="cls-106" d="M242.77,285.69l.27.05v-7.27h-.27Z"/><path class="cls-106" d="M244,285.88l.27,0v-7.44H244Z"/><path class="cls-106" d="M241.54,285.39l.28.07v-7h-.28Z"/><path class="cls-106" d="M236.65,282.09a4,4,0,0,0,.28.43v-4h-.28Z"/><path class="cls-106" d="M237.88,283.53l.27.21v-5.27h-.27Z"/><path class="cls-106" d="M240.32,285l.27.1v-6.6h-.27Z"/><path class="cls-106" d="M239.1,284.38l.27.14v-6h-.27Z"/></g><ellipse class="cls-135" cx="245.9" cy="277.54" rx="9.73" ry="5.67"/><path class="cls-136" d="M245.9,283.06c-5.26,0-9.54-2.43-9.72-5.47,0,.06,0,.13,0,.2,0,3.12,4.35,5.66,9.73,5.66s9.72-2.54,9.72-5.66c0-.07,0-.14,0-.2C255.43,280.63,251.15,283.06,245.9,283.06Z"/><ellipse class="cls-137" cx="245.9" cy="277.54" rx="7.27" ry="4.23"/><path class="cls-138" d="M246.14,273.52c3.88,0,7.05,1.78,7.25,4a1.79,1.79,0,0,0,0-.23c0-2.34-3.26-4.23-7.27-4.23s-7.27,1.89-7.27,4.23a1.79,1.79,0,0,0,0,.23C239.09,275.3,242.25,273.52,246.14,273.52Z"/><path class="cls-139" d="M245.9,273.76c3.88,0,7,1.78,7.25,4a1.79,1.79,0,0,0,0-.23c0-2.34-3.26-4.23-7.27-4.23s-7.28,1.89-7.28,4.23c0,.08,0,.15,0,.23C238.85,275.54,242,273.76,245.9,273.76Z"/><path class="cls-140" d="M240.91,278.71c1.86.2,3.14,2.53,2.86,5.21s-2,4.69-3.9,4.49-3.14-2.53-2.86-5.21S239,278.51,240.91,278.71Z"/><path class="cls-141" d="M251,272.09c2.18.74,3.65,2.22,3.29,3.3s-2.44,1.36-4.63.62-3.66-2.23-3.29-3.31S248.82,271.34,251,272.09Z"/><path class="cls-142" d="M248.4,276.58l2.63.48c.44.08.53.41.15.57l-2.23.91c-.15.06-.24.16-.24.26l0,1.59c0,.27-.52.42-.89.26l-2.21-.95a.88.88,0,0,0-.51-.05l-2.6.5c-.44.09-.85-.15-.71-.4l.88-1.51a.21.21,0,0,0-.08-.29L241,276.67c-.27-.21,0-.51.45-.51l2.75,0a.7.7,0,0,0,.46-.14l1.58-1.29a.77.77,0,0,1,1,.09l.82,1.52A.52.52,0,0,0,248.4,276.58Z"/><path class="cls-143" d="M248.4,276.28l2.63.48c.44.08.53.42.15.57l-2.23.91c-.15.06-.24.16-.24.27l0,1.58c0,.27-.52.42-.89.26l-2.21-1a1,1,0,0,0-.51,0l-2.6.51c-.44.08-.85-.16-.71-.41l.88-1.5a.22.22,0,0,0-.08-.3L241,276.38c-.27-.22,0-.52.45-.51l2.75,0a.76.76,0,0,0,.46-.13l1.58-1.3a.77.77,0,0,1,1,.1l.82,1.51A.52.52,0,0,0,248.4,276.28Z"/><path class="cls-144" d="M248.4,276.28l2.63.48c.44.08.53.42.15.57l-2.23.91c-.15.06-.24.16-.24.27l0,1.58c0,.27-.52.42-.89.26l-2.21-1a1,1,0,0,0-.51,0l-2.6.51c-.44.08-.85-.16-.71-.41l.88-1.5a.22.22,0,0,0-.08-.3L241,276.38c-.27-.22,0-.52.45-.51l2.75,0a.76.76,0,0,0,.46-.13l1.58-1.3a.77.77,0,0,1,1,.1l.82,1.51A.52.52,0,0,0,248.4,276.28Z"/><g class="cls-145"><path class="cls-146" d="M128.81,143.72a.37.37,0,0,0,0,.09s-1.25,3.56-.68,9.78c.4,4.44.89,13.94,1.28,22.33s.68,15.68.68,15.68a.1.1,0,0,0,0,.07.79.79,0,0,0,.48.51,19,19,0,0,0,2.89.62,7.17,7.17,0,0,0,2.85.1.77.77,0,0,0,.39-.63.16.16,0,0,0,0-.07s-1-7.54-2.08-16.18-2.28-18.39-2.68-22.82c-.57-6.2-2.36-9.46-2.36-9.46a.21.21,0,0,0-.13-.15Z"/><path class="cls-147" d="M128.8,143.79a21.28,21.28,0,0,0-.5,2.54v0a31.11,31.11,0,0,0-.09,6.84c.38,4.2.87,13.41,1.27,21.59,0,.24,0,.47,0,.71.36,7.68.63,14.25.65,14.45,0,0,0,.06,0,.07a.85.85,0,0,0,.43.51,11.84,11.84,0,0,0,2.59.71h0l.67.11a4.46,4.46,0,0,0,2,0,.91.91,0,0,0,.32-.37v0a.35.35,0,0,0,0-.2.15.15,0,0,0,0-.07c0-.07-1-7.39-2-15.75s-2.18-17.81-2.56-22c0-.16,0-.33-.05-.49a30.66,30.66,0,0,0-1.48-6.95,1.12,1.12,0,0,1-.05-.13c-.36-1-.65-1.56-.65-1.56a.24.24,0,0,0-.12-.15l-.59.08A.13.13,0,0,0,128.8,143.79Z"/><path class="cls-148" d="M128.82,143.77s-.25,1.06-.44,2.46a.06.06,0,0,0,0,0,30.47,30.47,0,0,0-.08,6.58c.36,4,.86,12.89,1.26,20.85,0,.23,0,.46,0,.68.36,7.29.63,13.55.66,14a.34.34,0,0,0,0,.08.71.71,0,0,0,.39.49,6.38,6.38,0,0,0,2.34.82l.06,0c.2,0,.4.09.62.12a3.94,3.94,0,0,0,1.91,0,.85.85,0,0,0,.31-.36v0a.64.64,0,0,0,0-.2v0c0-.16-.92-7.26-1.91-15.33s-2.08-17.23-2.45-21.25c0-.16,0-.32,0-.47a29.34,29.34,0,0,0-1.4-6.71.61.61,0,0,0-.05-.12c-.32-.88-.61-1.51-.61-1.51a.18.18,0,0,0-.11-.15l-.54,0A.14.14,0,0,0,128.82,143.77Z"/><path class="cls-149" d="M128.84,143.74s-.21,1.13-.39,2.38a.06.06,0,0,1,0,0,30.22,30.22,0,0,0-.05,6.32c.34,3.73.83,12.37,1.25,20.11l0,.66c.35,6.89.62,12.85.68,13.46a.15.15,0,0,0,0,.08.75.75,0,0,0,.35.49c.25.41,1.21.65,2.1.93h.05a4.76,4.76,0,0,0,.57.13,3.47,3.47,0,0,0,1.81,0,.8.8,0,0,0,.29-.36,0,0,0,0,1,0,0,1.11,1.11,0,0,0,0-.19s0,0,0,0c0-.23-.88-7.11-1.82-14.91s-2-16.63-2.33-20.46c0-.16,0-.31,0-.45a29,29,0,0,0-1.31-6.46l0-.12c-.29-.77-.57-1.45-.57-1.45a.29.29,0,0,0-.1-.15l-.49,0S128.83,143.72,128.84,143.74Z"/><path class="cls-150" d="M128.85,143.72s-.17,1.2-.32,2.29a.09.09,0,0,0,0,.05,29.56,29.56,0,0,0,0,6.05c.32,3.49.82,11.84,1.24,19.37l0,.64c.34,6.49.61,12.15.68,13a.15.15,0,0,0,0,.08.78.78,0,0,0,.31.49,2.57,2.57,0,0,0,1.85,1l0,0c.16.05.34.1.53.14a2.9,2.9,0,0,0,1.69,0,.6.6,0,0,0,.27-.34l0,0a.51.51,0,0,0,0-.18.07.07,0,0,0,0,0c0-.3-.85-7-1.74-14.48s-1.88-16-2.21-19.68c0-.15,0-.29,0-.43a28.39,28.39,0,0,0-1.23-6.21.37.37,0,0,0,0-.11c-.25-.68-.53-1.4-.53-1.4a.22.22,0,0,0-.09-.15l-.44-.08S128.85,143.7,128.85,143.72Z"/><path class="cls-151" d="M128.87,143.7s-.14,1.27-.27,2.21a.08.08,0,0,1,0,0,29.66,29.66,0,0,0,0,5.79c.29,3.26.79,11.32,1.22,18.63l0,.61c.34,6.1.61,11.46.69,12.47a.19.19,0,0,0,0,.08.86.86,0,0,0,.27.49,2.05,2.05,0,0,0,1.61,1.13l0,0a2.7,2.7,0,0,0,.48.16,2.62,2.62,0,0,0,1.58,0,.57.57,0,0,0,.26-.33,0,0,0,0,0,0,0,.72.72,0,0,0,0-.17v0c0-.39-.81-6.83-1.65-14.06s-1.78-15.47-2.09-18.89c0-.15,0-.29,0-.42a28.33,28.33,0,0,0-1.14-6,.33.33,0,0,0-.06-.1l-.48-1.36a.23.23,0,0,0-.08-.14l-.4-.13S128.87,143.68,128.87,143.7Z"/><path class="cls-152" d="M128.88,143.67s-.09,1.35-.2,2.13a.06.06,0,0,0,0,0,29.39,29.39,0,0,0,0,5.53c.28,3,.78,10.8,1.22,17.89l0,.59c.33,5.7.6,10.76.7,12,0,0,0,.06,0,.08a.85.85,0,0,0,.24.48,1.76,1.76,0,0,0,1.36,1.25l0,0a2,2,0,0,0,.44.16,2.31,2.31,0,0,0,1.47,0,.54.54,0,0,0,.24-.32s0,0,0,0a.33.33,0,0,0,0-.15v0c0-.46-.77-6.69-1.56-13.63s-1.68-14.88-2-18.11c0-.14,0-.27,0-.4a28.13,28.13,0,0,0-1.06-5.71.31.31,0,0,0-.05-.1c-.18-.48-.44-1.3-.44-1.3s0-.12-.08-.14l-.34-.19Z"/><path class="cls-153" d="M128.9,143.65s-.06,1.42-.15,2v0a28,28,0,0,0,0,5.26c.25,2.8.75,10.28,1.2,17.16l0,.56c.33,5.31.6,10.06.72,11.48a.19.19,0,0,0,0,.08.93.93,0,0,0,.2.48A1.62,1.62,0,0,0,132,182.1l0,0a1.18,1.18,0,0,0,.39.18,2,2,0,0,0,1.36-.05.52.52,0,0,0,.23-.31s0,0,0,0a.5.5,0,0,0,0-.15v0c0-.53-.74-6.54-1.48-13.2-.76-6.81-1.58-14.3-1.86-17.32,0-.14,0-.26,0-.38a27.55,27.55,0,0,0-1-5.47.14.14,0,0,0-.05-.09c-.14-.39-.4-1.25-.4-1.25a.28.28,0,0,0-.06-.14l-.3-.24S128.9,143.64,128.9,143.65Z"/><path class="cls-154" d="M128.92,143.62s0,1.5-.09,2a.08.08,0,0,0,0,0,28.1,28.1,0,0,0,0,5c.23,2.56.74,9.76,1.19,16.42l0,.54c.31,4.91.59,9.36.72,11,0,0,0,.06,0,.08a1.14,1.14,0,0,0,.16.48c.14.85.52,1.4.87,1.45l0,0a.88.88,0,0,0,.35.18,1.72,1.72,0,0,0,1.25-.05.46.46,0,0,0,.21-.31v-.19c-.06-.62-.7-6.41-1.39-12.79-.71-6.54-1.48-13.7-1.74-16.53q0-.19,0-.36a28.32,28.32,0,0,0-.89-5.22.22.22,0,0,0,0-.08c-.11-.29-.36-1.2-.36-1.2a.35.35,0,0,0-.06-.14l-.24-.29Z"/><path class="cls-155" d="M128.93,143.6s0,1.57,0,1.88c0,0,0,0,0,0a27.17,27.17,0,0,0,.07,4.73c.21,2.32.71,9.24,1.17,15.68l0,.52c.31,4.51.58,8.66.73,10.48,0,0,0,.06,0,.08a3.23,3.23,0,0,0,.12.47c.25.92.4,1.53.63,1.57v0a.69.69,0,0,0,.3.2,1.45,1.45,0,0,0,1.14-.07.39.39,0,0,0,.2-.29v0a.25.25,0,0,0,0-.13v0c-.06-.69-.66-6.26-1.3-12.36-.67-6.28-1.38-13.12-1.62-15.74,0-.13,0-.24,0-.35a30.89,30.89,0,0,0-.81-5,.1.1,0,0,0-.05-.08c-.07-.19-.31-1.14-.31-1.14s0-.13-.05-.14l-.2-.35S128.93,143.6,128.93,143.6Z"/><path class="cls-156" d="M129,143.58s.05,1.63,0,1.79a.06.06,0,0,0,0,0,26.68,26.68,0,0,0,.08,4.47c.19,2.09.7,8.71,1.17,14.94l0,.49c.31,4.12.58,8,.74,10a.28.28,0,0,1,0,.09c0,.16.05.31.08.46.18,1,.27,1.65.38,1.67a.08.08,0,0,1,0,0,.52.52,0,0,0,.26.21,1.22,1.22,0,0,0,1-.08.35.35,0,0,0,.18-.28v-.17c-.08-.76-.63-6.12-1.23-11.93-.61-6-1.27-12.54-1.49-15l0-.33a34.69,34.69,0,0,0-.72-4.72.1.1,0,0,0-.06-.07c0-.1-.27-1.09-.27-1.09a.74.74,0,0,0,0-.14l-.15-.4Z"/><path class="cls-157" d="M129,143.55l.09,1.71s0,0,0,0a25.42,25.42,0,0,0,.11,4.21c.17,1.9.7,8.52,1.19,14.67s.93,11.81.93,11.81v0a.38.38,0,0,0,.21.22,1,1,0,0,0,.92-.08.33.33,0,0,0,.17-.27v0s-.55-5.58-1.15-11.63-1.23-12.58-1.4-14.48a42.17,42.17,0,0,0-.64-4.48.06.06,0,0,0,0-.06Z"/></g><path class="cls-158" d="M33,200.63l-3.8-.52a1.92,1.92,0,0,1-.25-3.75l21.28-5.82Z"/><path class="cls-159" d="M33.15,200.26l-3.8-.52a1.91,1.91,0,0,1-1.59-2.44,1.93,1.93,0,0,0,1.44,2.82l3.8.51,17.23-10.09-.91.25Z"/><path class="cls-160" d="M129.6,144.3a.2.2,0,0,1-.09.19s-2.43,3.31-8.37,6.75c-8.49,4.92-9.85,5.25-9.85,5.25-.23.13-.08-.16-.42-.36a2.72,2.72,0,0,1-1.25-2.14c0-.39-.36-.39-.14-.52,0,0,1-1,9.49-5.88,6-3.45,10.1-3.86,10.1-3.86a.23.23,0,0,1,.22,0A.69.69,0,0,1,129.6,144.3Z"/><path class="cls-161" d="M111.61,155.71c0,.79-.56,1.11-1.25.71a2.74,2.74,0,0,1-1.24-2.15c0-.78.55-1.1,1.24-.7A2.72,2.72,0,0,1,111.61,155.71Z"/><path class="cls-162" d="M111.36,155.74a.81.81,0,0,1-.34.75L32.37,202.8c-.22.12-.08-.15-.41-.34a2.62,2.62,0,0,1-1.18-2.05c0-.37-.35-.37-.14-.5l78.7-46.31a.85.85,0,0,1,.83.09A2.62,2.62,0,0,1,111.36,155.74Z"/><path class="cls-163" d="M32.67,202.06c0,.75-.53,1.05-1.19.67a2.6,2.6,0,0,1-1.18-2c0-.76.53-1.06,1.18-.68A2.6,2.6,0,0,1,32.67,202.06Z"/><path class="cls-164" d="M32.37,199.23,50,189.09,36.23,188A5.94,5.94,0,0,0,31,197.52Z"/><path class="cls-165" d="M32.64,199.18,50.24,189l-13.73-1.13a6,6,0,0,0-5.19,9.56Z"/><path class="cls-166" d="M31.58,197.58A6,6,0,0,1,36.77,188l13.34,1.1.13-.08-13.73-1.13a6,6,0,0,0-5.19,9.56l1.32,1.71.12-.07Z"/><path class="cls-167" d="M33.48,201.3l.43,1.55a5,5,0,0,0,9,1.34l8.19-12.87Z"/><path class="cls-168" d="M33.75,201.08l.43,1.55a5,5,0,0,0,9,1.33l8.19-12.87Z"/><path class="cls-169" d="M43.31,203.7a5,5,0,0,1-9-1.33l-.39-1.4-.19.11.43,1.55a5,5,0,0,0,9,1.33l8.19-12.87,0,0Z"/><path class="cls-170" d="M124.59,145.84c.47.8-5.06,4.93-12.35,9.23s-13.58,7.15-14,6.35,5.06-4.92,12.35-9.22S124.12,145.05,124.59,145.84Z"/></g></g></g></svg>