<svg width="291" height="227" viewBox="0 0 291 227" fill="none" xmlns="http://www.w3.org/2000/svg">
<g clip-path="url(#clip0_304_12127)">
<path d="M68.75 128.56L78.52 134.2V68.5299L68.75 62.8899V128.56Z" fill="#6E838A"/>
<path d="M56.21 121.32L68.75 128.56V62.8899L56.21 55.6599V121.32Z" fill="white"/>
<path d="M68.7402 128.61L56.2002 121.38V55.6599C56.2093 55.6546 56.2197 55.6519 56.2302 55.6519C56.2407 55.6519 56.2511 55.6546 56.2602 55.6599L68.7902 62.8999V128.57L68.7402 128.61ZM56.2602 121.32L68.6902 128.49V62.9199L56.2602 55.7399V121.32Z" fill="#231F20"/>
<path d="M88.2995 128.56L78.5195 134.2V68.5299L88.2995 62.8899V128.56Z" fill="#9AB0B8"/>
<path d="M34.8398 148.13L44.6198 153.77V88.1L34.8398 82.46V148.13Z" fill="#CAD7DB"/>
<path d="M22.3096 140.9L34.8396 148.13V82.46L22.3096 75.23V140.9Z" fill="#677E8F"/>
<path d="M54.3901 148.13L44.6201 153.77V88.1L54.3901 82.46V148.13Z" fill="#9AB0B8"/>
<path d="M88.2996 62.89L44.6196 88.1L22.3096 75.23L65.9796 50L88.2996 62.89Z" fill="#DEECF1"/>
<path d="M54.3896 85.09L78.5196 71.16V68.53L54.3896 82.46V85.09Z" fill="#CAD7DB"/>
<path d="M54.3896 112.57L76.8697 99.6101V72.1101L54.3896 85.0901V112.57Z" fill="#263040"/>
<g style="mix-blend-mode:multiply">
<path d="M57.6699 85.33L73.5999 76.13V75.76L57.6699 84.96V85.33Z" fill="#4F5465"/>
<path d="M57.6699 86.9201L73.5999 77.7201V77.3501L57.6699 86.5501V86.9201Z" fill="#4F5465"/>
<path d="M66.9795 80.74L73.5995 76.92V76.55L66.9795 80.3701V80.74Z" fill="#4F5465"/>
<path d="M57.6699 86.1199L64.2899 82.2999V81.9299L57.6699 85.7499V86.1199Z" fill="#4F5465"/>
<path d="M66.9795 82.3299L73.5995 78.5099V78.1399L66.9795 81.9599V82.3299Z" fill="#4F5465"/>
<path d="M57.6699 87.71L64.2899 83.89V83.52L57.6699 87.34V87.71Z" fill="#4F5465"/>
<path d="M57.6699 88.5099L73.5999 79.3099V78.9399L57.6699 88.1399V88.5099Z" fill="#4F5465"/>
<path d="M57.6699 90.1L73.5999 80.9V80.53L57.6699 89.73V90.1Z" fill="#4F5465"/>
<path d="M66.9795 83.92L73.5995 80.1V79.73L66.9795 83.56V83.92Z" fill="#4F5465"/>
<path d="M57.6699 89.3001L64.2899 85.4801V85.1101L57.6699 88.9301V89.3001Z" fill="#4F5465"/>
<path d="M66.9795 85.5201L73.5995 81.6901V81.3201L66.9795 85.1501V85.5201Z" fill="#4F5465"/>
<path d="M57.6699 90.8899L64.2899 87.07V86.7L57.6699 90.52V90.8899Z" fill="#4F5465"/>
<path d="M57.6699 91.6901L73.5999 82.4901V82.1201L57.6699 91.3201V91.6901Z" fill="#4F5465"/>
<path d="M57.6699 93.28L73.5999 84.08V83.71L57.6699 92.91V93.28Z" fill="#4F5465"/>
<path d="M66.9795 87.1099L73.5995 83.2799V82.9199L66.9795 86.7399V87.1099Z" fill="#4F5465"/>
<path d="M57.6699 92.48L64.2899 88.66V88.29L57.6699 92.12V92.48Z" fill="#4F5465"/>
<path d="M66.9795 88.7L73.5995 84.88V84.51L66.9795 88.33V88.7Z" fill="#4F5465"/>
<path d="M57.6699 94.0799L64.2899 90.2599V89.8899L57.6699 93.7099V94.0799Z" fill="#4F5465"/>
<path d="M57.6699 94.87L73.5999 85.67V85.3L57.6699 94.5V94.87Z" fill="#4F5465"/>
<path d="M57.6699 96.4599L73.5999 87.2599V86.8899L57.6699 96.0899V96.4599Z" fill="#4F5465"/>
<path d="M57.6699 98.05L73.5999 88.85V88.48L57.6699 97.69V98.05Z" fill="#4F5465"/>
<path d="M66.9795 90.2901L73.5995 86.4701V86.1001L66.9795 89.9201V90.2901Z" fill="#4F5465"/>
<path d="M57.6699 95.67L64.2899 91.85V91.48L57.6699 95.3V95.67Z" fill="#4F5465"/>
<path d="M66.9795 91.8799L73.5995 88.0599V87.6899L66.9795 91.5099V91.8799Z" fill="#4F5465"/>
<path d="M57.6699 97.2601L64.2899 93.4401V93.0701L57.6699 96.8901V97.2601Z" fill="#4F5465"/>
</g>
<g style="mix-blend-mode:multiply">
<path d="M57.6699 99.1999L73.5999 89.9999V89.6299L57.6699 98.8399V99.1999Z" fill="#4F5465"/>
<path d="M57.6699 100.8L73.5999 91.59V91.23L57.6699 100.43V100.8Z" fill="#4F5465"/>
<path d="M66.9795 94.6199L73.5995 90.7999V90.4299L66.9795 94.2499V94.6199Z" fill="#4F5465"/>
<path d="M57.6699 99.9998L64.2899 96.1798V95.8098L57.6699 99.6298V99.9998Z" fill="#4F5465"/>
<path d="M66.9795 96.2098L73.5995 92.3898V92.0198L66.9795 95.8398V96.2098Z" fill="#4F5465"/>
<path d="M57.6699 101.59L64.2899 97.7699V97.3999L57.6699 101.22V101.59Z" fill="#4F5465"/>
<path d="M57.6699 102.39L73.5999 93.1898V92.8198L57.6699 102.02V102.39Z" fill="#4F5465"/>
<path d="M57.6699 103.98L73.5999 94.7799V94.4099L57.6699 103.61V103.98Z" fill="#4F5465"/>
<path d="M66.9795 97.7999L73.5995 93.9799V93.6099L66.9795 97.4399V97.7999Z" fill="#4F5465"/>
<path d="M57.6699 103.18L64.2899 99.36V98.99L57.6699 102.81V103.18Z" fill="#4F5465"/>
<path d="M66.9795 99.4L73.5995 95.57V95.2L66.9795 99.0299V99.4Z" fill="#4F5465"/>
<path d="M57.6699 104.77L64.2899 100.95V100.58L57.6699 104.4V104.77Z" fill="#4F5465"/>
<path d="M57.6699 105.57L73.5999 96.37V96L57.6699 105.2V105.57Z" fill="#4F5465"/>
<path d="M57.6699 107.16L73.5999 97.9598V97.5898L57.6699 106.79V107.16Z" fill="#4F5465"/>
<path d="M66.9795 100.99L73.5995 97.1598V96.7998L66.9795 100.62V100.99Z" fill="#4F5465"/>
<path d="M57.6699 106.36L64.2899 102.54V102.17L57.6699 105.99V106.36Z" fill="#4F5465"/>
<path d="M66.9795 102.58L73.5995 98.7599V98.3899L66.9795 102.21V102.58Z" fill="#4F5465"/>
<path d="M57.6699 107.95L64.2899 104.13V103.76L57.6699 107.59V107.95Z" fill="#4F5465"/>
<path d="M57.6699 108.75L73.5999 99.5499V99.1799L57.6699 108.38V108.75Z" fill="#4F5465"/>
<path d="M57.6699 110.34L73.5999 101.14V100.77L57.6699 109.97V110.34Z" fill="#4F5465"/>
<path d="M66.9795 104.17L73.5995 100.35V99.98L66.9795 103.8V104.17Z" fill="#4F5465"/>
<path d="M57.6699 109.55L64.2899 105.72V105.35L57.6699 109.18V109.55Z" fill="#4F5465"/>
</g>
<path d="M44.6201 153.77L54.3901 159.41V123.85L44.6201 118.21V153.77Z" fill="#3B4759"/>
<path d="M44.6104 118.21L54.4004 112.57L54.3904 123.85L44.6104 118.21Z" fill="#4A5669"/>
<path d="M100.83 147.07L110.61 152.72V87.0499L100.83 81.3999V147.07Z" fill="#6E838A"/>
<path d="M88.2998 139.84L100.83 147.07V81.3999L88.2998 74.1699V139.84Z" fill="white"/>
<path d="M100.83 147.12L88.29 139.88V74.1699H88.34L100.86 81.3199V146.98C100.865 146.996 100.865 147.014 100.86 147.03L100.83 147.12ZM88.35 139.81L100.78 146.99V81.4399L88.35 74.2599V139.81Z" fill="#231F20"/>
<path d="M120.38 147.07L110.61 152.72V87.0499L120.38 81.3999V147.07Z" fill="#9AB0B8"/>
<path d="M66.9297 166.65L76.7097 172.29V106.62L66.9297 100.98V166.65Z" fill="#CAD7DB"/>
<path d="M54.4004 159.41L66.9304 166.65V100.98L54.4004 93.74V159.41Z" fill="#677E8F"/>
<path d="M86.48 166.65L76.71 172.29V106.62L86.48 100.98V166.65Z" fill="#9AB0B8"/>
<path d="M120.38 81.4L76.7104 106.62L54.4004 93.74L98.0704 68.52L120.38 81.4Z" fill="#DEECF1"/>
<path d="M86.4805 103.61L110.61 89.68V87.05L86.4805 100.98V103.61Z" fill="#CAD7DB"/>
<path d="M86.4805 131.08L108.96 118.12V90.6299L86.4805 103.61V131.08Z" fill="#263040"/>
<g style="mix-blend-mode:multiply">
<path d="M89.75 103.84L105.69 94.64V94.27L89.75 103.47V103.84Z" fill="#4F5465"/>
<path d="M89.75 105.43L105.69 96.2301V95.8601L89.75 105.06V105.43Z" fill="#4F5465"/>
<path d="M99.0703 99.2601L105.69 95.4401V95.0701L99.0703 98.8901V99.2601Z" fill="#4F5465"/>
<path d="M89.75 104.64L96.37 100.81V100.45L89.75 104.27V104.64Z" fill="#4F5465"/>
<path d="M99.0703 100.85L105.69 97.0299V96.6599L99.0703 100.48V100.85Z" fill="#4F5465"/>
<path d="M89.75 106.23L96.37 102.41V102.04L89.75 105.86V106.23Z" fill="#4F5465"/>
<path d="M89.75 107.02L105.69 97.82V97.45L89.75 106.65V107.02Z" fill="#4F5465"/>
<path d="M89.75 108.61L105.69 99.41V99.04L89.75 108.24V108.61Z" fill="#4F5465"/>
<path d="M99.0703 102.44L105.69 98.62V98.25L99.0703 102.07V102.44Z" fill="#4F5465"/>
<path d="M89.75 107.82L96.37 104V103.63L89.75 107.45V107.82Z" fill="#4F5465"/>
<path d="M99.0703 104.03L105.69 100.21V99.8401L99.0703 103.66V104.03Z" fill="#4F5465"/>
<path d="M89.75 109.41L96.37 105.59V105.22L89.75 109.04V109.41Z" fill="#4F5465"/>
<path d="M89.75 110.2L105.69 101V100.64L89.75 109.84V110.2Z" fill="#4F5465"/>
<path d="M89.75 111.8L105.69 102.6V102.23L89.75 111.43V111.8Z" fill="#4F5465"/>
<path d="M99.0703 105.62L105.69 101.8V101.43L99.0703 105.25V105.62Z" fill="#4F5465"/>
<path d="M89.75 111L96.37 107.18V106.81L89.75 110.63V111Z" fill="#4F5465"/>
<path d="M99.0703 107.21L105.69 103.39V103.02L99.0703 106.84V107.21Z" fill="#4F5465"/>
<path d="M89.75 112.59L96.37 108.77V108.4L89.75 112.22V112.59Z" fill="#4F5465"/>
<path d="M89.75 113.39L105.69 104.19V103.82L89.75 113.02V113.39Z" fill="#4F5465"/>
<path d="M89.75 114.98L105.69 105.78V105.41L89.75 114.61V114.98Z" fill="#4F5465"/>
<path d="M89.75 116.57L105.69 107.37V107L89.75 116.2V116.57Z" fill="#4F5465"/>
<path d="M99.0703 108.8L105.69 104.98V104.61L99.0703 108.44V108.8Z" fill="#4F5465"/>
<path d="M89.75 114.18L96.37 110.36V109.99L89.75 113.81V114.18Z" fill="#4F5465"/>
<path d="M99.0703 110.4L105.69 106.57V106.2L99.0703 110.03V110.4Z" fill="#4F5465"/>
<path d="M89.75 115.77L96.37 111.95V111.58L89.75 115.41V115.77Z" fill="#4F5465"/>
</g>
<g style="mix-blend-mode:multiply">
<path d="M89.75 117.72L105.69 108.52V108.15L89.75 117.35V117.72Z" fill="#4F5465"/>
<path d="M89.75 119.31L105.69 110.11V109.74L89.75 118.94V119.31Z" fill="#4F5465"/>
<path d="M99.0703 113.14L105.69 109.31V108.95L99.0703 112.77V113.14Z" fill="#4F5465"/>
<path d="M89.75 118.52L96.37 114.69V114.32L89.75 118.15V118.52Z" fill="#4F5465"/>
<path d="M99.0703 114.73L105.69 110.91V110.54L99.0703 114.36V114.73Z" fill="#4F5465"/>
<path d="M89.75 120.11L96.37 116.28V115.92L89.75 119.74V120.11Z" fill="#4F5465"/>
<path d="M89.75 120.9L105.69 111.7V111.33L89.75 120.53V120.9Z" fill="#4F5465"/>
<path d="M89.75 122.49L105.69 113.29V112.92L89.75 122.12V122.49Z" fill="#4F5465"/>
<path d="M99.0703 116.32L105.69 112.5V112.13L99.0703 115.95V116.32Z" fill="#4F5465"/>
<path d="M89.75 121.7L96.37 117.88V117.51L89.75 121.33V121.7Z" fill="#4F5465"/>
<path d="M99.0703 117.91L105.69 114.09V113.72L99.0703 117.54V117.91Z" fill="#4F5465"/>
<path d="M89.75 123.29L96.37 119.47V119.1L89.75 122.92V123.29Z" fill="#4F5465"/>
<path d="M89.75 124.08L105.69 114.88V114.51L89.75 123.72V124.08Z" fill="#4F5465"/>
<path d="M89.75 125.67L105.69 116.47V116.11L89.75 125.31V125.67Z" fill="#4F5465"/>
<path d="M99.0703 119.5L105.69 115.68V115.31L99.0703 119.13V119.5Z" fill="#4F5465"/>
<path d="M89.75 124.88L96.37 121.06V120.69L89.75 124.51V124.88Z" fill="#4F5465"/>
<path d="M99.0703 121.09L105.69 117.27V116.9L99.0703 120.72V121.09Z" fill="#4F5465"/>
<path d="M89.75 126.47L96.37 122.65V122.28L89.75 126.1V126.47Z" fill="#4F5465"/>
<path d="M89.75 127.27L105.69 118.06V117.7L89.75 126.9V127.27Z" fill="#4F5465"/>
<path d="M89.75 128.86L105.69 119.66V119.29L89.75 128.49V128.86Z" fill="#4F5465"/>
<path d="M99.0703 122.68L105.69 118.86V118.49L99.0703 122.31V122.68Z" fill="#4F5465"/>
<path d="M89.75 128.06L96.37 124.24V123.87L89.75 127.69V128.06Z" fill="#4F5465"/>
</g>
<path d="M76.7002 172.28L86.4802 177.92V142.37L76.7002 136.73V172.28Z" fill="#3B4759"/>
<path d="M76.7002 136.73L86.4802 131.08V142.37L76.7002 136.73Z" fill="#4A5669"/>
<path d="M132.91 165.58L142.69 171.22V105.55L132.92 99.9099L132.91 165.58Z" fill="#6E838A"/>
<path d="M120.38 158.34L132.91 165.58L132.92 99.9099L120.38 92.6699V158.34Z" fill="white"/>
<path d="M132.91 165.63L120.37 158.4C120.365 158.384 120.365 158.366 120.37 158.35V92.6699H120.42L132.96 99.8999V165.57L132.91 165.63ZM120.43 158.32L132.86 165.5V99.9399L120.43 92.7599V158.32Z" fill="#231F20"/>
<path d="M152.46 165.58L142.69 171.22V105.55L152.46 99.9099V165.58Z" fill="#9AB0B8"/>
<path d="M99.0098 185.15L108.79 190.79V125.12L99.0098 119.48V185.15Z" fill="#CAD7DB"/>
<path d="M86.4805 177.91L99.0105 185.15V119.48L86.4805 112.24V177.91Z" fill="#677E8F"/>
<path d="M118.56 185.15L108.79 190.79V125.12L118.56 119.48V185.15Z" fill="#9AB0B8"/>
<path d="M152.46 99.91L108.79 125.12L86.4805 112.24L130.15 87.02L152.46 99.91Z" fill="#DEECF1"/>
<path d="M118.56 122.11L142.69 108.18V105.55L118.56 119.48V122.11Z" fill="#CAD7DB"/>
<path d="M118.56 149.59L141.04 136.62V109.13L118.56 122.11V149.59Z" fill="#263040"/>
<g style="mix-blend-mode:multiply">
<path d="M121.83 122.34L137.77 113.14V112.77L121.83 121.97V122.34Z" fill="#4F5465"/>
<path d="M121.83 123.93L137.77 114.73V114.36L121.83 123.56V123.93Z" fill="#4F5465"/>
<path d="M131.15 117.76L137.77 113.94V113.57L131.15 117.39V117.76Z" fill="#4F5465"/>
<path d="M121.83 123.14L128.46 119.32V118.95L121.83 122.77V123.14Z" fill="#4F5465"/>
<path d="M131.15 119.35L137.77 115.53V115.16L131.15 118.98V119.35Z" fill="#4F5465"/>
<path d="M121.83 124.73L128.46 120.91V120.54L121.83 124.36V124.73Z" fill="#4F5465"/>
<path d="M121.83 125.53L137.77 116.32V115.95L121.83 125.16V125.53Z" fill="#4F5465"/>
<path d="M121.83 127.12L137.77 117.92V117.55L121.83 126.75V127.12Z" fill="#4F5465"/>
<path d="M131.15 120.94L137.77 117.12V116.75L131.15 120.57V120.94Z" fill="#4F5465"/>
<path d="M121.83 126.32L128.46 122.5V122.13L121.83 125.95V126.32Z" fill="#4F5465"/>
<path d="M131.15 122.53L137.77 118.71V118.34L131.15 122.16V122.53Z" fill="#4F5465"/>
<path d="M121.83 127.91L128.46 124.09V123.72L121.83 127.54V127.91Z" fill="#4F5465"/>
<path d="M121.83 128.71L137.77 119.51V119.14L121.83 128.34V128.71Z" fill="#4F5465"/>
<path d="M121.83 130.3L137.77 121.1V120.73L121.83 129.93V130.3Z" fill="#4F5465"/>
<path d="M131.15 124.12L137.77 120.3V119.93L131.15 123.75V124.12Z" fill="#4F5465"/>
<path d="M121.83 129.5L128.46 125.68V125.31L121.83 129.13V129.5Z" fill="#4F5465"/>
<path d="M131.15 125.72L137.77 121.89V121.52L131.15 125.35V125.72Z" fill="#4F5465"/>
<path d="M121.83 131.09L128.46 127.27V126.9L121.83 130.72V131.09Z" fill="#4F5465"/>
<path d="M121.83 131.89L137.77 122.69V122.32L121.83 131.52V131.89Z" fill="#4F5465"/>
<path d="M121.83 133.48L137.77 124.28V123.91L121.83 133.11V133.48Z" fill="#4F5465"/>
<path d="M121.83 135.07L137.77 125.87V125.5L121.83 134.7V135.07Z" fill="#4F5465"/>
<path d="M131.15 127.31L137.77 123.48V123.11L131.15 126.94V127.31Z" fill="#4F5465"/>
<path d="M121.83 132.69L128.46 128.86V128.49L121.83 132.32V132.69Z" fill="#4F5465"/>
<path d="M131.15 128.9L137.77 125.08V124.71L131.15 128.53V128.9Z" fill="#4F5465"/>
<path d="M121.83 134.28L128.46 130.45V130.08L121.83 133.91V134.28Z" fill="#4F5465"/>
</g>
<g style="mix-blend-mode:multiply">
<path d="M121.83 136.22L137.77 127.02V126.65L121.83 135.85V136.22Z" fill="#4F5465"/>
<path d="M121.83 137.81L137.77 128.61V128.24L121.83 137.44V137.81Z" fill="#4F5465"/>
<path d="M131.15 131.64L137.77 127.82V127.45L131.15 131.27V131.64Z" fill="#4F5465"/>
<path d="M121.83 137.02L128.46 133.19V132.83L121.83 136.65V137.02Z" fill="#4F5465"/>
<path d="M131.15 133.23L137.77 129.41V129.04L131.15 132.86V133.23Z" fill="#4F5465"/>
<path d="M121.83 138.61L128.46 134.79V134.42L121.83 138.24V138.61Z" fill="#4F5465"/>
<path d="M121.83 139.4L137.77 130.2V129.83L121.83 139.03V139.4Z" fill="#4F5465"/>
<path d="M121.83 141L137.77 131.79V131.42L121.83 140.63V141Z" fill="#4F5465"/>
<path d="M131.15 134.82L137.77 131V130.63L131.15 134.45V134.82Z" fill="#4F5465"/>
<path d="M121.83 140.2L128.46 136.38V136.01L121.83 139.83V140.2Z" fill="#4F5465"/>
<path d="M131.15 136.41L137.77 132.59V132.22L131.15 136.04V136.41Z" fill="#4F5465"/>
<path d="M121.83 141.79L128.46 137.97V137.6L121.83 141.42V141.79Z" fill="#4F5465"/>
<path d="M121.83 142.59L137.77 133.39V133.02L121.83 142.22V142.59Z" fill="#4F5465"/>
<path d="M121.83 144.18L137.77 134.98V134.61L121.83 143.81V144.18Z" fill="#4F5465"/>
<path d="M131.15 138L137.77 134.18V133.81L131.15 137.63V138Z" fill="#4F5465"/>
<path d="M121.83 143.38L128.46 139.56V139.19L121.83 143.01V143.38Z" fill="#4F5465"/>
<path d="M131.15 139.59L137.77 135.77V135.4L131.15 139.22V139.59Z" fill="#4F5465"/>
<path d="M121.83 144.97L128.46 141.15V140.78L121.83 144.6V144.97Z" fill="#4F5465"/>
<path d="M121.83 145.77L137.77 136.57V136.2L121.83 145.4V145.77Z" fill="#4F5465"/>
<path d="M121.83 147.36L137.77 138.16V137.79L121.83 146.99V147.36Z" fill="#4F5465"/>
<path d="M131.15 141.19L137.77 137.36V136.99L131.15 140.82V141.19Z" fill="#4F5465"/>
<path d="M121.83 146.56L128.46 142.74V142.37L121.83 146.19V146.56Z" fill="#4F5465"/>
</g>
<path d="M108.78 190.78L118.56 196.43V160.87L108.79 155.23L108.78 190.78Z" fill="#3B4759"/>
<path d="M108.78 155.23L118.56 149.58V160.87L108.78 155.23Z" fill="#4A5669"/>
<path d="M165 184.09L174.77 189.73V124.06L165 118.42V184.09Z" fill="#6E838A"/>
<path d="M152.46 176.85L165 184.09V118.42L152.46 111.18V176.85Z" fill="white"/>
<path d="M165.01 184.14L152.47 176.91C152.464 176.894 152.464 176.876 152.47 176.86V111.19C152.464 111.174 152.464 111.156 152.47 111.14H152.52L165.01 118.38V184.05V184.14ZM152.51 176.82L164.94 184V118.45L152.51 111.32V176.82Z" fill="#231F20"/>
<path d="M184.54 184.09L174.77 189.73V124.06L184.54 118.42V184.09Z" fill="#9AB0B8"/>
<path d="M131.09 203.66L140.87 209.3V143.63L131.09 137.99V203.66Z" fill="#CAD7DB"/>
<path d="M118.56 196.43L131.09 203.66V137.99L118.56 130.76V196.43Z" fill="#677E8F"/>
<path d="M150.64 203.66L140.87 209.3V143.63L150.64 137.99V203.66Z" fill="#9AB0B8"/>
<path d="M194.32 201.02L204.09 206.67V171.11L194.32 165.47V201.02Z" fill="#9AB0B8"/>
<path d="M174.77 189.74L194.32 201.02V165.47L174.77 154.18V189.74Z" fill="#263040"/>
<path d="M213.87 201.02L204.09 206.67V171.11L213.87 165.47V201.02Z" fill="#263040"/>
<path d="M179.95 196.54L204.1 182.59V171.09L179.95 185.03V196.54Z" fill="#7B8F96"/>
<path d="M179.95 201.7L204.1 187.76V182.59L179.95 196.54V201.7Z" fill="#263040"/>
<path d="M160.4 220.58L170.18 226.22V190.67L160.4 185.03V220.58Z" fill="#CAD7DB"/>
<path d="M140.86 209.3L160.4 220.58V185.03L140.86 173.74V209.3Z" fill="#3B4759"/>
<path d="M179.95 220.58L170.18 226.22V190.67L179.95 185.03V220.58Z" fill="#263040"/>
<path d="M213.87 165.47L170.18 190.67L140.86 173.74L184.54 148.55L213.87 165.47Z" fill="#4A5669"/>
<path d="M172.64 187.66L207.06 167.79L194.7 153.58L160.27 173.46L172.64 187.66Z" fill="#DEECF1"/>
<path d="M175.23 183.67L201.58 168.45L192.11 157.58L165.76 172.79L175.23 183.67Z" fill="#00AEEF"/>
<g style="mix-blend-mode:multiply">
<path d="M191.83 158.33L166.1 173.18L165.76 172.79L192.11 157.58L201.58 168.45L200.96 168.81L191.83 158.33Z" fill="#00AEEF"/>
</g>
<path d="M172.64 187.66L160.27 180.52V173.46L172.64 187.66Z" fill="#CAD7DB"/>
<path d="M184.54 118.42L140.87 143.63L118.56 130.76L162.23 105.53L184.54 118.42Z" fill="#DEECF1"/>
<path d="M150.64 140.62L174.77 126.69V124.06L150.64 137.99V140.62Z" fill="#CAD7DB"/>
<path d="M150.64 168.1L173.12 155.14V127.64L150.64 140.62V168.1Z" fill="#263040"/>
<g style="mix-blend-mode:multiply">
<path d="M153.91 140.85L169.85 131.65V131.28L153.91 140.48V140.85Z" fill="#4F5465"/>
<path d="M153.91 142.44L169.85 133.25V132.88L153.91 142.08V142.44Z" fill="#4F5465"/>
<path d="M163.23 136.27L169.85 132.45V132.08L163.23 135.9V136.27Z" fill="#4F5465"/>
<path d="M153.91 141.65L160.53 137.83V137.46L153.91 141.28V141.65Z" fill="#4F5465"/>
<path d="M163.23 137.86L169.85 134.04V133.67L163.23 137.49V137.86Z" fill="#4F5465"/>
<path d="M153.91 143.24L160.53 139.42V139.05L153.91 142.87V143.24Z" fill="#4F5465"/>
<path d="M153.91 144.04L169.85 134.84V134.47L153.91 143.67V144.04Z" fill="#4F5465"/>
<path d="M153.91 145.63L169.85 136.43V136.06L153.91 145.26V145.63Z" fill="#4F5465"/>
<path d="M163.23 139.45L169.85 135.63V135.26L163.23 139.08V139.45Z" fill="#4F5465"/>
<path d="M153.91 144.83L160.53 141.01V140.64L153.91 144.46V144.83Z" fill="#4F5465"/>
<path d="M163.23 141.05L169.85 137.22V136.85L163.23 140.68V141.05Z" fill="#4F5465"/>
<path d="M153.91 146.42L160.53 142.6V142.23L153.91 146.05V146.42Z" fill="#4F5465"/>
<path d="M153.91 147.22L169.85 138.02V137.65L153.91 146.85V147.22Z" fill="#4F5465"/>
<path d="M153.91 148.81L169.85 139.61V139.24L153.91 148.44V148.81Z" fill="#4F5465"/>
<path d="M163.23 142.64L169.85 138.81V138.44L163.23 142.27V142.64Z" fill="#4F5465"/>
<path d="M153.91 148.01L160.53 144.19V143.82L153.91 147.64V148.01Z" fill="#4F5465"/>
<path d="M163.23 144.23L169.85 140.41V140.04L163.23 143.86V144.23Z" fill="#4F5465"/>
<path d="M153.91 149.61L160.53 145.78V145.41L153.91 149.24V149.61Z" fill="#4F5465"/>
<path d="M153.91 150.4L169.85 141.2V140.83L153.91 150.03V150.4Z" fill="#4F5465"/>
<path d="M153.91 151.99L169.85 142.79V142.42L153.91 151.62V151.99Z" fill="#4F5465"/>
<path d="M153.91 153.58L169.85 144.38V144.01L153.91 153.21V153.58Z" fill="#4F5465"/>
<path d="M163.23 145.82L169.85 142V141.63L163.23 145.45V145.82Z" fill="#4F5465"/>
<path d="M153.91 151.2L160.53 147.37V147.01L153.91 150.83V151.2Z" fill="#4F5465"/>
<path d="M163.23 147.41L169.85 143.59V143.22L163.23 147.04V147.41Z" fill="#4F5465"/>
<path d="M153.91 152.79L160.53 148.97V148.6L153.91 152.42V152.79Z" fill="#4F5465"/>
</g>
<g style="mix-blend-mode:multiply">
<path d="M153.91 154.73L169.85 145.53V145.16L153.91 154.36V154.73Z" fill="#4F5465"/>
<path d="M153.91 156.32L169.85 147.12V146.75L153.91 155.95V156.32Z" fill="#4F5465"/>
<path d="M163.23 150.15L169.85 146.33V145.96L163.23 149.78V150.15Z" fill="#4F5465"/>
<path d="M153.91 155.53L160.53 151.71V151.34L153.91 155.16V155.53Z" fill="#4F5465"/>
<path d="M163.23 151.74L169.85 147.92V147.55L163.23 151.37V151.74Z" fill="#4F5465"/>
<path d="M153.91 157.12L160.53 153.3V152.93L153.91 156.75V157.12Z" fill="#4F5465"/>
<path d="M153.91 157.92L169.85 148.72V148.35L153.91 157.55V157.92Z" fill="#4F5465"/>
<path d="M153.91 159.51L169.85 150.31V149.94L153.91 159.14V159.51Z" fill="#4F5465"/>
<path d="M163.23 153.33L169.85 149.51V149.14L163.23 152.96V153.33Z" fill="#4F5465"/>
<path d="M153.91 158.71L160.53 154.89V154.52L153.91 158.34V158.71Z" fill="#4F5465"/>
<path d="M163.23 154.92L169.85 151.1V150.73L163.23 154.55V154.92Z" fill="#4F5465"/>
<path d="M153.91 160.3L160.53 156.48V156.11L153.91 159.93V160.3Z" fill="#4F5465"/>
<path d="M153.91 161.1L169.85 151.9V151.53L153.91 160.73V161.1Z" fill="#4F5465"/>
<path d="M153.91 162.69L169.85 153.49V153.12L153.91 162.32V162.69Z" fill="#4F5465"/>
<path d="M163.23 156.52L169.85 152.69V152.32L163.23 156.15V156.52Z" fill="#4F5465"/>
<path d="M153.91 161.89L160.53 158.07V157.7L153.91 161.52V161.89Z" fill="#4F5465"/>
<path d="M163.23 158.11L169.85 154.28V153.92L163.23 157.74V158.11Z" fill="#4F5465"/>
<path d="M153.91 163.48L160.53 159.66V159.29L153.91 163.11V163.48Z" fill="#4F5465"/>
<path d="M153.91 164.28L169.85 155.08V154.71L153.91 163.91V164.28Z" fill="#4F5465"/>
<path d="M153.91 165.87L169.85 156.67V156.3L153.91 165.5V165.87Z" fill="#4F5465"/>
<path d="M163.23 159.7L169.85 155.88V155.51L163.23 159.33V159.7Z" fill="#4F5465"/>
<path d="M153.91 165.08L160.53 161.25V160.88L153.91 164.71V165.08Z" fill="#4F5465"/>
</g>
<path d="M121.33 157.94L128.32 161.97V143.93L121.33 139.89V157.94Z" fill="#3A3838"/>
<path d="M121.33 139.89L122.05 140.31V157.41L128.32 161.03V161.97L121.33 157.94V139.89Z" fill="#1E1B1C"/>
<path d="M89.25 139.41L96.24 143.45V125.41L89.25 121.37V139.41Z" fill="#FFF200"/>
<path d="M89.25 121.37L89.97 121.79V138.89L96.24 142.5V143.45L89.25 139.41V121.37Z" fill="#F0C800"/>
<path d="M57.1699 120.94L64.1599 124.98V106.94L57.1699 102.9V120.94Z" fill="#EE2A7B"/>
<path d="M57.1699 102.9L57.8899 103.32V120.41L64.1599 124.03V124.98L57.1699 120.94V102.9Z" fill="#B00B4F"/>
<path d="M25.0801 102.41L32.0701 106.45V88.4101L25.0801 84.3701V102.41Z" fill="#00AEEF"/>
<path d="M25.0801 84.3701L25.8001 84.7801V101.88L32.0701 105.5V106.45L25.0801 102.41V84.3701Z" fill="#006BB3"/>
<path d="M0 153.87L118.55 222.24V214.71L0 146.34V153.87Z" fill="#3B4759"/>
<path d="M0 146.34L118.55 214.71L140.86 201.83L22.31 133.45L0 146.34Z" fill="#4A5669"/>
<path d="M118.55 214.71V222.24L140.86 209.36V201.83L118.55 214.71Z" fill="#263040"/>
<path d="M177.15 190.27L180.57 185.92L203.72 172.55L207.15 172.95L214.44 168.74L216.27 169.79V172.36L171.67 198.1L169.85 197.05V194.49L177.15 190.27Z" fill="#DEECF1"/>
<path d="M178.97 191.32L182.39 186.97L205.54 173.6L208.97 174L216.27 169.79V172.36L171.67 198.1V195.54L178.97 191.32Z" fill="#9AB0B8"/>
<path d="M203.72 172.55L205.54 173.6L208.97 174L207.15 172.95L203.72 172.55Z" fill="#CAD7DB"/>
<path d="M180.57 185.92L182.39 186.97L178.97 191.32L177.15 190.27L180.57 185.92Z" fill="#CAD7DB"/>
<path d="M206.01 177.78C206.01 178.38 206.43 178.62 206.95 178.32C207.224 178.141 207.451 177.9 207.615 177.617C207.778 177.334 207.872 177.016 207.89 176.69C207.89 176.09 207.47 175.85 206.95 176.15C206.676 176.329 206.448 176.569 206.285 176.853C206.122 177.136 206.027 177.453 206.01 177.78Z" fill="#4A5669"/>
<path d="M204.01 176.62C204.03 176.293 204.126 175.975 204.291 175.692C204.456 175.409 204.685 175.168 204.96 174.99C205.063 174.918 205.185 174.88 205.31 174.88C205.435 174.88 205.558 174.918 205.66 174.99L207.6 176.11C207.497 176.071 207.385 176.058 207.275 176.072C207.166 176.086 207.061 176.126 206.97 176.19C206.696 176.369 206.469 176.609 206.305 176.893C206.142 177.176 206.048 177.494 206.03 177.82C206.017 177.935 206.035 178.052 206.082 178.157C206.13 178.263 206.205 178.354 206.3 178.42L204.3 177.28C204.196 177.207 204.113 177.107 204.062 176.991C204.011 176.874 203.993 176.746 204.01 176.62Z" fill="#263040"/>
<path d="M206.37 177.59C206.37 177.98 206.64 178.14 206.98 177.95C207.16 177.832 207.309 177.674 207.417 177.488C207.524 177.302 207.587 177.094 207.6 176.88C207.6 176.49 207.32 176.33 206.98 176.52C206.802 176.638 206.654 176.797 206.548 176.982C206.442 177.168 206.381 177.376 206.37 177.59Z" fill="#00AEEF"/>
<path d="M206.75 177.79C206.929 177.675 207.079 177.519 207.187 177.335C207.295 177.15 207.357 176.943 207.37 176.73C207.372 176.632 207.348 176.535 207.3 176.45C207.48 176.45 207.6 176.62 207.6 176.88C207.587 177.094 207.524 177.303 207.416 177.488C207.309 177.674 207.159 177.832 206.98 177.95C206.74 178.08 206.54 178.04 206.43 177.87C206.542 177.879 206.655 177.851 206.75 177.79Z" fill="#263040"/>
<path d="M184.41 190.65C184.41 191.25 184.83 191.5 185.35 191.2C185.624 191.019 185.851 190.776 186.014 190.491C186.177 190.206 186.272 189.888 186.29 189.56C186.29 188.96 185.87 188.72 185.35 189.02C185.076 189.199 184.849 189.439 184.685 189.723C184.522 190.006 184.428 190.324 184.41 190.65Z" fill="#4A5669"/>
<path d="M182.39 189.49C182.408 189.164 182.502 188.846 182.665 188.563C182.829 188.279 183.056 188.039 183.33 187.86C183.434 187.787 183.558 187.748 183.685 187.748C183.812 187.748 183.936 187.787 184.04 187.86L185.98 188.98C185.877 188.94 185.765 188.927 185.655 188.941C185.545 188.955 185.44 188.996 185.35 189.06C185.076 189.239 184.849 189.479 184.685 189.763C184.522 190.046 184.428 190.364 184.41 190.69C184.399 190.805 184.417 190.922 184.462 191.028C184.508 191.135 184.579 191.228 184.67 191.3L182.67 190.15H182.62C182.526 190.07 182.456 189.967 182.415 189.851C182.375 189.735 182.366 189.611 182.39 189.49Z" fill="#263040"/>
<path d="M184.73 190.46C184.73 190.86 185.01 191.01 185.35 190.82C185.529 190.702 185.677 190.543 185.783 190.358C185.888 190.172 185.949 189.964 185.96 189.75C185.96 189.36 185.69 189.2 185.35 189.4C185.171 189.515 185.021 189.671 184.913 189.856C184.805 190.04 184.743 190.247 184.73 190.46Z" fill="#00AEEF"/>
<path d="M185.12 190.66C185.298 190.544 185.447 190.388 185.553 190.204C185.659 190.019 185.72 189.812 185.73 189.6C185.735 189.503 185.714 189.406 185.67 189.32C185.84 189.32 185.96 189.49 185.96 189.75C185.949 189.964 185.888 190.172 185.782 190.357C185.676 190.543 185.528 190.702 185.35 190.82C185.11 190.96 184.9 190.92 184.8 190.74C184.912 190.749 185.025 190.721 185.12 190.66Z" fill="#263040"/>
<path d="M52.0902 67.2401C51.3902 67.6501 51.0902 68.1301 51.3102 68.6901C51.6876 69.455 52.3209 70.0635 53.1002 70.4101C55.2102 71.6301 57.1002 71.7701 58.6702 70.8501C59.1175 70.6019 59.5253 70.2885 59.8802 69.9201C60.1955 69.5821 60.4894 69.2247 60.7602 68.8501L63.2702 70.2901C62.6091 71.183 61.7544 71.9146 60.7702 72.4301C59.1865 73.3689 57.3708 73.8437 55.5302 73.8001C53.5942 73.7259 51.7087 73.1616 50.0502 72.1601C49.098 71.6757 48.2882 70.952 47.7002 70.0601C47.4901 69.7343 47.3669 69.3602 47.3424 68.9733C47.3179 68.5865 47.3929 68.1998 47.5602 67.8501C48.0579 66.9848 48.8032 66.2882 49.7002 65.8501C50.9959 65.1248 52.4009 64.6148 53.8602 64.3401L55.2902 66.2101C54.6902 66.3301 54.1302 66.4701 53.5902 66.6301C53.0687 66.7758 52.5654 66.9805 52.0902 67.2401Z" fill="#00AEEF"/>
<path d="M55.7699 73.85H55.5299C53.5837 73.7722 51.6886 73.2047 50.0199 72.2C49.0641 71.7124 48.2511 70.9854 47.6599 70.09C47.4456 69.7568 47.3195 69.3747 47.2932 68.9794C47.267 68.5841 47.3415 68.1886 47.5099 67.83C48.0109 66.9478 48.7627 66.2342 49.6699 65.78C50.9722 65.0515 52.3838 64.5382 53.8499 64.26L55.2799 66.13C54.6899 66.25 54.1199 66.39 53.5999 66.55C53.0799 66.7001 52.5798 66.9115 52.1099 67.18C51.4199 67.58 51.1699 68.04 51.3499 68.58C51.7305 69.3283 52.3548 69.9244 53.1199 70.27C55.1999 71.47 57.0599 71.62 58.6399 70.71C59.0777 70.4566 59.4782 70.1436 59.8299 69.78C60.148 69.448 60.442 69.0937 60.7099 68.72C60.7205 68.7139 60.7326 68.7106 60.7449 68.7106C60.7572 68.7106 60.7692 68.7139 60.7799 68.72L63.2799 70.17C62.611 71.0646 61.7542 71.8019 60.7699 72.33C59.2674 73.2709 57.5418 73.7955 55.7699 73.85ZM53.8399 64.32C52.3963 64.6005 51.0059 65.1067 49.7199 65.82C48.8303 66.2614 48.0923 66.9576 47.5999 67.82C47.4379 68.1623 47.3657 68.5402 47.3902 68.9181C47.4147 69.296 47.5351 69.6615 47.7399 69.98C48.3293 70.8582 49.1307 71.5736 50.0699 72.06C51.7264 73.0481 53.6028 73.6082 55.5299 73.69H55.7699C57.5277 73.6886 59.2535 73.2192 60.7699 72.33C61.7233 71.8201 62.5555 71.1107 63.2099 70.25L60.7999 68.85C60.5344 69.201 60.2471 69.535 59.9399 69.85C59.5802 70.22 59.1694 70.5366 58.7199 70.79C57.0999 71.72 55.2099 71.58 53.0999 70.35C52.3117 69.9957 51.6692 69.3815 51.2799 68.61C51.0899 68.02 51.3599 67.51 52.0899 67.1C52.5659 66.8248 53.0728 66.6066 53.5999 66.45C54.0999 66.3 54.6499 66.17 55.2199 66.04L53.8399 64.32Z" fill="#231F20"/>
<path d="M91.3999 91.5801L81.2699 88.3201H81.1999C82.6499 89.0401 83.7499 89.6101 84.4899 90.0401L89.2499 92.7901L86.6299 94.3201L75.6299 88.0001L79.5699 85.7201L89.6399 88.8901H89.6999L84.1599 83.1001L88.1099 80.8201L99.0599 87.1501L96.3399 88.7201L91.5399 85.9501L90.7199 85.4601L88.5799 84.1101H88.5099L94.1799 89.9301L91.3999 91.5801Z" fill="#EE2A7B"/>
<path d="M86.6295 94.3799L75.6796 88.0499C75.6752 88.0423 75.6729 88.0336 75.6729 88.0249C75.6729 88.0161 75.6752 88.0075 75.6796 87.9999L79.6195 85.7299L89.6195 88.8899L84.1396 83.1699L88.0895 80.8899H88.1396L99.1396 87.2199C99.1458 87.2245 99.1508 87.2306 99.1543 87.2375C99.1577 87.2445 99.1595 87.2521 99.1595 87.2599C99.1595 87.2676 99.1577 87.2753 99.1543 87.2823C99.1508 87.2892 99.1458 87.2952 99.1396 87.2999L96.4196 88.8699L91.6096 86.0999L90.7896 85.6099C90.4996 85.4399 89.7896 84.9999 88.7396 84.3199L94.3095 90.0499L91.4995 91.6799H91.4496L81.5496 88.4899C82.8596 89.1499 83.8796 89.6799 84.5496 90.0899L89.2996 92.8399L86.6796 94.3599L86.6295 94.3799ZM75.7696 88.0099L86.6295 94.3199L89.1496 92.8599L84.4695 90.1499C83.7195 89.7199 82.6096 89.1499 81.1796 88.4399C81.1752 88.4323 81.1729 88.4237 81.1729 88.4149C81.1729 88.4061 81.1752 88.3975 81.1796 88.3899H81.2396L91.3495 91.6399L94.0995 90.0599L88.4796 84.2799H88.5496C88.5572 84.2755 88.5658 84.2732 88.5746 84.2732C88.5833 84.2732 88.5919 84.2755 88.5995 84.2799L90.7396 85.6299L91.5496 86.1099L96.3296 88.8699L98.9496 87.3599L88.0995 81.0899L84.2296 83.3299L89.7195 89.0599C89.7195 89.0599 89.7195 89.0599 89.7195 89.1099H89.6595L79.6595 85.9499L75.7696 88.0099Z" fill="#231F20"/>
<path d="M119.86 106.32L117.68 102.89L120.89 101.04L123.96 106.97L128.24 109.44L125.24 111.17L121.05 108.75L110.68 106.92L113.9 105.06L119.86 106.32Z" fill="#FFF200"/>
<path d="M125.26 111.19L121.01 108.76L110.65 106.94C110.645 106.924 110.645 106.906 110.65 106.89L113.87 105.03L119.69 106.27L117.58 102.93L120.78 101.07L123.85 107L128.12 109.46C128.126 109.476 128.126 109.494 128.12 109.51L125.12 111.23L125.26 111.19ZM110.84 106.87L121.08 108.67L125.25 111.08L128.13 109.41L123.93 106.99L120.88 101.1L117.76 102.9L119.91 106.29V106.34C119.91 106.34 119.91 106.34 119.85 106.34L113.94 105.08L110.84 106.87Z" fill="#231F20"/>
<path d="M161.71 125.06L158.36 126.99L152.01 125.82L151.66 126.63L155.32 128.75L152.32 130.46L141.32 124.14L144.32 122.42L149.07 125.17C148.868 124.742 148.704 124.297 148.58 123.84L147.52 120.57L150.76 118.7L152.21 123.53L161.71 125.06Z" fill="#231F20"/>
<path d="M152.35 130.51L141.4 124.18L144.4 122.46H144.45L149.06 125.12C148.899 124.731 148.758 124.334 148.64 123.93L147.59 120.67V120.61L150.83 118.74L152.27 123.54L161.68 125.06C161.689 125.064 161.696 125.07 161.701 125.078C161.706 125.086 161.709 125.096 161.709 125.105C161.709 125.114 161.706 125.124 161.701 125.132C161.696 125.139 161.689 125.146 161.68 125.15L158.34 127.08L152.01 125.88L151.69 126.61L155.32 128.7C155.327 128.706 155.332 128.713 155.335 128.72C155.339 128.728 155.341 128.736 155.341 128.745C155.341 128.753 155.339 128.762 155.335 128.77C155.332 128.777 155.327 128.784 155.32 128.79L152.32 130.51H152.35ZM141.49 124.14L152.35 130.41L155.22 128.75L151.63 126.67V126.61L151.98 125.8C151.99 125.796 152 125.793 152.01 125.793C152.021 125.793 152.031 125.796 152.04 125.8L158.38 126.97L161.58 125.12L152.28 123.61L150.84 118.85L147.69 120.66L148.74 123.89C148.857 124.346 149.021 124.788 149.23 125.21C149.23 125.21 149.23 125.26 149.23 125.27H149.17L144.44 122.54L141.49 124.14Z" fill="#231F20"/>
<g style="mix-blend-mode:soft-light">
<path d="M192.11 157.58L165.76 172.79L173.37 181.54L194.54 160.37L192.11 157.58Z" fill="white"/>
</g>
<g style="mix-blend-mode:soft-light">
<path d="M25.0801 101.59L32.0701 94.6001V88.4101L31.1001 87.8401L25.0801 93.8601V101.59Z" fill="white"/>
<path d="M32.0702 102.23V98.3701L26.9502 103.49L29.4002 104.9L32.0702 102.23Z" fill="white"/>
</g>
<g style="mix-blend-mode:soft-light">
<path d="M57.1699 120.13L64.1599 113.14V106.95L63.1799 106.38L57.1699 112.4V120.13Z" fill="white"/>
<path d="M64.16 120.77V116.91L59.04 122.03L61.48 123.44L64.16 120.77Z" fill="white"/>
</g>
<g style="mix-blend-mode:soft-light">
<path d="M89.25 138.59L96.24 131.6V125.41L95.27 124.85L89.25 130.86V138.59Z" fill="white"/>
<path d="M96.2401 139.23V135.37L91.1201 140.49L93.5701 141.91L96.2401 139.23Z" fill="white"/>
</g>
<g style="mix-blend-mode:soft-light">
<path d="M121.33 157.12L128.32 150.13V143.93L127.35 143.37L121.33 149.38V157.12Z" fill="white"/>
<path d="M128.32 157.75V153.89L123.2 159.02L125.65 160.43L128.32 157.75Z" fill="white"/>
</g>
</g>
<g clip-path="url(#clip1_304_12127)">
<path d="M272.851 38.2258L258.755 46.3634L192.543 8.13756L206.65 0L272.851 38.2258Z" fill="#EAEAEA"/>
<path d="M215.311 6.27481L203.426 13.1378L195.234 8.42086L207.13 1.55786L215.311 6.27481Z" fill="#F9F9F9"/>
<path d="M203.426 13.2031L195.19 8.46432L207.075 1.60132L215.257 6.31827L203.372 13.1813L203.426 13.2031ZM195.354 8.42074L203.426 13.0832L215.202 6.28559L207.173 1.60132L195.354 8.42074Z" fill="#231F20"/>
<path d="M225.474 12.1573L213.589 19.0203L205.408 14.2924L217.293 7.42944L225.474 12.1573Z" fill="#D6D5D5"/>
<path d="M213.589 19.0311L205.408 14.3142L217.293 7.45117L225.474 12.179L213.622 19.0311H213.589ZM205.517 14.2488L213.589 18.9113L225.376 12.1137L217.304 7.45117L205.517 14.2488Z" fill="#231F20"/>
<path d="M235.649 18.0289L223.764 24.8919L215.583 20.164L227.468 13.301L235.649 18.0289Z" fill="#B0AFAF"/>
<path d="M223.764 24.9464L215.583 20.2294L227.468 13.3665L235.682 17.9418C235.689 17.9469 235.694 17.9534 235.698 17.961C235.702 17.9686 235.704 17.9769 235.704 17.9854C235.704 17.9938 235.702 18.0022 235.698 18.0097C235.694 18.0173 235.689 18.0239 235.682 18.0289L223.797 24.8919L223.764 24.9464ZM215.692 20.1205L223.764 24.783L235.497 18.0289L227.424 13.3665L215.692 20.1205Z" fill="#231F20"/>
<path d="M245.824 23.9007L233.939 30.7637L225.758 26.0358L237.643 19.1729L245.824 23.9007Z" fill="#838181"/>
<path d="M233.94 30.818L225.693 26.0902C225.686 26.0841 225.681 26.0765 225.677 26.0681C225.673 26.0596 225.671 26.0504 225.671 26.0412C225.671 26.0319 225.673 26.0227 225.677 26.0143C225.681 26.0058 225.686 25.9983 225.693 25.9922L237.676 19.1292H237.731L245.912 23.857L234.027 30.72L233.94 30.818ZM225.867 26.0466L233.94 30.6982L245.716 23.9006L237.676 19.2381L225.867 26.0466Z" fill="#231F20"/>
<path d="M255.999 29.7723L244.114 36.6353L235.933 31.9074L247.818 25.0444L255.999 29.7723Z" fill="#555253"/>
<path d="M244.113 36.6899L235.932 31.962C235.925 31.9559 235.92 31.9483 235.916 31.9399C235.912 31.9314 235.91 31.9223 235.91 31.913C235.91 31.9037 235.912 31.8946 235.916 31.8861C235.92 31.8777 235.925 31.8701 235.932 31.864L247.817 25.001H247.872L256.064 29.7288L244.168 36.5918L244.113 36.6899ZM236.041 31.9184L244.113 36.5809L255.889 29.7724L247.817 25.1099L236.041 31.9184Z" fill="#231F20"/>
<path d="M266.174 35.644L254.278 42.507L246.097 37.79L257.993 30.927L266.174 35.644Z" fill="#2D2A2A"/>
<path d="M254.289 42.5615L246.107 37.8337L257.992 30.9707L266.174 35.6986L254.289 42.5615ZM246.205 37.7901L254.289 42.4526L266.065 35.6441L257.992 31.0143L246.205 37.7901Z" fill="#231F20"/>
<path d="M269.855 53.4553L263.842 64.4361L174.568 48.1283L180.582 37.1475L269.855 53.4553Z" fill="#D6D6D6"/>
<path d="M193.284 40.4155L188.219 49.6751L177.184 47.6597L182.249 38.4001L193.284 40.4155Z" fill="#29A9D7"/>
<path d="M188.219 49.7295L177.184 47.7142L182.249 38.4546L193.284 40.4699L188.208 49.7186C188.208 49.7186 188.241 49.7295 188.219 49.7295ZM177.325 47.6161L188.219 49.6097L193.241 40.459L182.347 38.4655L177.325 47.6161Z" fill="#231F20"/>
<path d="M206.999 42.9211L201.934 52.1807L190.898 50.1654L195.975 40.9058L206.999 42.9211Z" fill="#29B5D7"/>
<path d="M201.934 52.2351L190.898 50.2198L195.964 40.9602L206.999 42.9755L201.923 52.2242C201.923 52.2242 201.955 52.2351 201.934 52.2351ZM191.04 50.1218L201.934 52.1153L206.956 42.9646L196.062 40.9711L191.04 50.1218Z" fill="#231F20"/>
<path d="M220.714 45.4265L215.649 54.6861L204.613 52.6707L209.69 43.4111L220.714 45.4265Z" fill="#29BFD7"/>
<path d="M215.649 54.7405L204.613 52.7252L209.679 43.4656H209.744L220.769 45.4809V45.5354L215.692 54.7841C215.692 54.7841 215.67 54.7405 215.649 54.7405ZM204.755 52.6271L215.649 54.6207L220.671 45.47L209.777 43.4765L204.755 52.6271Z" fill="#231F20"/>
<path d="M234.429 47.9321L229.363 57.1917L218.328 55.1763L223.405 45.9167L234.429 47.9321Z" fill="#29CBD7"/>
<path d="M229.363 57.2461L218.328 55.2308L223.394 45.9712H223.459L234.407 47.8885L229.331 57.1372C229.331 57.1372 229.385 57.2461 229.363 57.2461ZM218.415 55.1327L229.309 57.1263L234.331 47.9756L223.437 45.9821L218.415 55.1327Z" fill="#231F20"/>
<path d="M248.145 50.4377L243.079 59.6973L232.044 57.682L237.12 48.4224L248.145 50.4377Z" fill="#29D6D7"/>
<path d="M243.122 59.7517L232.087 57.7364L237.152 48.4768H237.218L248.242 50.4921L243.122 59.7191V59.7517ZM232.174 57.6384L243.068 59.6319L248.09 50.4812L237.196 48.4877L232.174 57.6384Z" fill="#231F20"/>
<path d="M261.87 52.9431L256.794 62.2027L245.759 60.1873L250.835 50.9277L261.87 52.9431Z" fill="#2BE3DA"/>
<path d="M256.794 62.2571L245.77 60.2418L250.835 50.9822C250.845 50.9774 250.856 50.9749 250.868 50.9749C250.879 50.9749 250.89 50.9774 250.9 50.9822L261.925 52.9975L256.859 62.2462C256.851 62.255 256.84 62.2608 256.828 62.2628C256.817 62.2648 256.804 62.2628 256.794 62.2571ZM245.846 60.1438L256.739 62.1373L261.751 52.9866L250.857 50.9931L245.846 60.1438Z" fill="#231F20"/>
<path d="M265.237 52.0825L268.668 63.4228L176.421 72.7042L173 61.3639L265.237 52.0825Z" fill="#EAEAEA"/>
<path d="M186.878 60.8845L189.765 70.4491L178.37 71.593L175.483 62.0284L186.878 60.8845Z" fill="#FE5C39"/>
<path d="M178.37 71.6476L175.483 62.0829L186.889 60.9282L189.776 70.4928L178.37 71.6476ZM175.581 62.0829L178.436 71.5386L189.732 70.4493L186.878 60.9936L175.581 62.0829Z" fill="#231F20"/>
<path d="M201.051 59.4575L203.938 69.0221L192.543 70.166L189.656 60.6014L201.051 59.4575Z" fill="#FB753A"/>
<path d="M192.543 70.2315L189.656 60.6668L201.062 59.5121C201.079 59.5054 201.099 59.5054 201.116 59.5121L204.003 69.0767L192.543 70.2315ZM189.743 60.6559L192.598 70.1116L203.894 69.0223L201.04 59.5666L189.743 60.6559Z" fill="#231F20"/>
<path d="M215.224 58.0305L218.111 67.5951L206.716 68.739L203.829 59.1743L215.224 58.0305Z" fill="#F88C3B"/>
<path d="M206.716 68.7933L203.829 59.2287L215.235 58.074L218.122 67.6386L206.716 68.7824V68.7933ZM203.905 59.2287L206.759 68.6844L218.056 67.595L215.191 58.1393L203.905 59.2287Z" fill="#231F20"/>
<path d="M229.397 56.6035L232.284 66.1681L220.889 67.312L217.991 57.7473L229.397 56.6035Z" fill="#F69C3C"/>
<path d="M220.889 67.3663L218.002 57.8017L229.408 56.647L232.294 66.2116L220.889 67.3554V67.3663ZM218.067 57.8017L220.921 67.2574L232.218 66.168L229.353 56.7123L218.067 57.8017Z" fill="#231F20"/>
<path d="M243.569 55.1763L246.456 64.7409L235.061 65.8847L232.163 56.3201L243.569 55.1763Z" fill="#F3B33D"/>
<path d="M235.061 65.9394L232.174 56.3747L243.569 55.22C243.579 55.2152 243.59 55.2126 243.601 55.2126C243.613 55.2126 243.624 55.2152 243.634 55.22L246.521 64.7846L235.115 65.9285L235.061 65.9394ZM232.228 56.3747L235.082 65.8304L246.368 64.7411L243.514 55.2854L232.228 56.3747Z" fill="#231F20"/>
<path d="M257.742 53.7493L260.628 63.3139L249.223 64.4577L246.336 54.904L257.742 53.7493Z" fill="#F0CB3F"/>
<path d="M249.233 64.5231H249.179L246.292 54.9585L257.687 53.8038C257.697 53.7989 257.708 53.7964 257.719 53.7964C257.731 53.7964 257.742 53.7989 257.752 53.8038L260.639 63.3684L249.233 64.5231ZM246.39 54.9803L249.244 64.4359L260.53 63.3466L257.676 53.8909L246.39 54.9803Z" fill="#231F20"/>
<path d="M255.214 126.246L249.081 126.955L251.031 121.312L247.839 121.682L248.482 119.83L243.286 120.429L244.114 118.022L238.427 118.675L239.56 115.385L231.619 116.311L232.686 113.196L225.061 114.078L226.945 108.631L221.117 109.307L222.751 104.601L217.74 105.178L218.23 103.773L211.912 104.492L213.339 100.374L204.58 101.387L206.225 96.6157L202.162 97.095L202.805 95.2322L228.971 80.1118L282.851 111.224L254.8 127.434L255.214 126.246Z" fill="#F3F3F3"/>
<g style="mix-blend-mode:multiply">
<path d="M228.972 80.1118L282.852 111.224L277.808 114.133L223.917 83.0204L228.972 80.1118Z" fill="#EAEAEA"/>
</g>
<path d="M270.781 85.2537C270.781 89.8618 274.049 91.7246 278.015 89.426C280.117 88.053 281.866 86.2045 283.12 84.03C284.375 81.8555 285.1 79.4161 285.237 76.9092C285.237 72.3012 281.969 70.4275 278.015 72.737C275.909 74.1068 274.156 75.9544 272.899 78.1294C271.642 80.3044 270.917 82.7453 270.781 85.2537Z" fill="#CCCCCC"/>
<path d="M218.742 55.5466C218.874 53.0341 219.597 50.5882 220.852 48.4076C222.107 46.227 223.859 44.3733 225.965 42.9971C228.143 41.7443 230.072 41.7334 231.412 42.7139L282.873 72.1267C282.074 71.831 281.216 71.734 280.371 71.8441C279.527 71.9541 278.722 72.268 278.025 72.7586C275.92 74.1284 274.167 75.976 272.91 78.151C271.653 80.326 270.928 82.767 270.792 85.2754C270.792 87.5412 271.576 89.1426 272.851 89.9052L221.052 60.318C220.927 60.2579 220.807 60.1888 220.692 60.111C220.013 59.5726 219.479 58.8732 219.138 58.0761C218.798 57.279 218.662 56.4096 218.742 55.5466Z" fill="#EAEAEA"/>
<g style="mix-blend-mode:soft-light">
<path d="M223.318 45.176L275.128 75.1227C274.451 75.8613 273.842 76.6598 273.309 77.5084L221.434 47.5291C221.993 46.6919 222.623 45.9046 223.318 45.176Z" fill="white"/>
</g>
<g style="mix-blend-mode:soft-light">
<path d="M220.246 49.6313L272.154 79.6325C271.395 81.2372 270.944 82.9703 270.825 84.7416L218.797 54.6751C218.98 52.9219 219.471 51.2147 220.246 49.6313Z" fill="white"/>
</g>
<g style="mix-blend-mode:multiply">
<path d="M238.765 61.5164C237.436 60.5359 235.497 60.5468 233.318 61.7996C231.859 62.6808 230.583 63.8348 229.56 65.1984L272.786 89.8834C271.511 89.1209 270.727 87.5195 270.727 85.2536C270.779 83.5693 271.149 81.9099 271.816 80.3624L238.765 61.5164Z" fill="#EAEAEA"/>
</g>
<path d="M276.555 106.583C276.555 111.191 279.823 113.065 283.777 110.756C285.891 109.391 287.652 107.545 288.917 105.37C290.181 103.195 290.914 100.751 291.054 98.2389C291.054 93.6309 287.786 91.7681 283.821 94.0666C281.711 95.4348 279.953 97.2812 278.691 99.456C277.428 101.631 276.696 104.073 276.555 106.583Z" fill="#CCCCCC"/>
<path d="M224.516 76.8875C224.648 74.3781 225.372 71.9356 226.627 69.7587C227.882 67.5817 229.633 65.7319 231.738 64.3598C233.917 63.1179 235.845 63.0961 237.185 64.0765L288.647 93.4894C287.848 93.1884 286.987 93.0875 286.14 93.1958C285.293 93.304 284.486 93.618 283.788 94.1103C281.686 95.4833 279.937 97.3319 278.682 99.5064C277.428 101.681 276.703 104.12 276.566 106.627C276.566 108.893 277.35 110.494 278.614 111.268L226.782 81.648C226.657 81.5873 226.537 81.5181 226.422 81.441C225.753 80.899 225.228 80.1992 224.895 79.4045C224.562 78.6098 224.432 77.7449 224.516 76.8875Z" fill="#EAEAEA"/>
<g style="mix-blend-mode:soft-light">
<path d="M229.058 66.5383L280.869 96.485C280.185 97.2206 279.572 98.0194 279.038 98.8707L227.174 68.8914C227.726 68.0492 228.357 67.2614 229.058 66.5383Z" fill="white"/>
<path d="M225.964 71.0266L277.862 101.028C277.109 102.635 276.658 104.367 276.533 106.137L224.516 76.0704C224.686 74.3146 225.177 72.605 225.964 71.0266Z" fill="white"/>
</g>
<path d="M281.609 103.664C281.609 105.047 282.579 105.603 283.788 104.917C284.421 104.505 284.948 103.951 285.327 103.298C285.705 102.645 285.924 101.912 285.967 101.158C285.967 99.7859 284.997 99.2194 283.788 99.9166C283.155 100.325 282.627 100.877 282.249 101.529C281.87 102.18 281.651 102.912 281.609 103.664Z" fill="#BF7E41"/>
<path d="M282.971 104.372C283.604 103.964 284.132 103.411 284.511 102.76C284.889 102.109 285.108 101.377 285.15 100.625C285.158 100.279 285.075 99.9372 284.91 99.6333C285.531 99.7096 285.999 100.254 285.999 101.158C285.957 101.912 285.738 102.645 285.359 103.298C284.981 103.951 284.454 104.505 283.821 104.917C282.982 105.407 282.252 105.254 281.893 104.655C282.273 104.673 282.649 104.574 282.971 104.372Z" fill="#E3B268"/>
<path d="M275.804 82.3341C275.804 83.7067 276.773 84.2732 277.982 83.576C278.615 83.1671 279.142 82.6145 279.521 81.9633C279.899 81.3121 280.119 80.5807 280.161 79.8286C280.161 78.4451 279.192 77.8895 277.982 78.5758C277.35 78.9871 276.823 79.5417 276.444 80.1947C276.065 80.8476 275.846 81.5806 275.804 82.3341Z" fill="#BF7E41"/>
<path d="M277.198 83.0422C277.83 82.6309 278.358 82.0763 278.736 81.4234C279.115 80.7704 279.334 80.0374 279.376 79.2839C279.388 78.9413 279.305 78.602 279.137 78.3035C279.769 78.3797 280.226 78.9244 280.226 79.8286C280.184 80.5807 279.964 81.3121 279.586 81.9633C279.207 82.6145 278.68 83.1671 278.047 83.576C277.198 84.0662 276.479 83.9246 276.119 83.3145C276.498 83.3393 276.876 83.244 277.198 83.0422Z" fill="#E3B268"/>
</g>
<defs>
<clipPath id="clip0_304_12127">
<rect width="216.27" height="176.22" fill="white" transform="translate(0 50)"/>
</clipPath>
<clipPath id="clip1_304_12127">
<rect width="118" height="127.434" fill="white" transform="translate(173)"/>
</clipPath>
</defs>
</svg>
