<svg width="110" height="70" viewBox="0 0 110 70" fill="none" xmlns="http://www.w3.org/2000/svg">
<path d="M12.0512 69.0635C10.405 69.0635 8.75245 69.1624 7.1156 69.0425C3.27855 68.7605 0.605758 66.1745 0.392936 62.4966C0.248968 60.0217 0.299044 57.5378 0.280266 55.0599C0.280266 54.4599 0.571331 54.2139 1.19728 54.2109C3.22534 54.2109 5.25341 54.2109 7.28148 54.2109C7.98567 54.2109 8.2517 54.4779 8.25796 55.1678C8.25796 56.5928 8.25796 58.0148 8.25796 59.4367C8.25796 60.9697 9.01222 61.7047 10.6115 61.7227C11.6255 61.7377 12.6396 61.7407 13.6536 61.7227C15.0839 61.6957 15.8789 60.9667 15.8976 59.5867C15.9289 57.1388 15.8976 54.6939 15.9195 52.2459C15.9195 51.8259 15.6441 51.7779 15.3562 51.6849L2.14872 47.5061C0.709039 47.0561 0.270876 46.4891 0.270876 45.0701C0.270876 40.6303 0.270876 36.1874 0.270876 31.7475C0.248606 30.4431 0.503089 29.1479 1.01888 27.9406C2.02979 25.6667 3.90763 24.4517 6.38012 24.0407C7.21764 23.9041 8.06563 23.8348 8.9152 23.8337C11.1957 23.8057 13.4773 23.8057 15.7599 23.8337C17.3039 23.8067 18.8308 24.1468 20.2041 24.8237C21.1798 25.3012 22.0097 26.0129 22.6131 26.8893C23.2164 27.7657 23.5726 28.777 23.6469 29.8246C23.8816 32.5245 23.8127 35.2604 23.8722 37.9783C23.8707 38.0308 23.8644 38.083 23.8534 38.1343C23.8524 38.2355 23.8298 38.3353 23.7869 38.4277C23.7439 38.5201 23.6817 38.6031 23.6039 38.6715C23.5261 38.7398 23.4345 38.7921 23.3348 38.8251C23.235 38.8581 23.1292 38.8711 23.024 38.8633C20.9375 38.8773 18.8563 38.8773 16.7802 38.8633C16.1543 38.8633 15.9133 38.5633 15.9102 37.9633C15.9102 36.5414 15.9102 35.1164 15.9102 33.6945C15.9102 31.9875 15.1496 31.2705 13.3563 31.2615C12.3798 31.2615 11.4002 31.2615 10.4237 31.2615C9.0623 31.2915 8.27047 32.0505 8.26109 33.3615C8.24544 35.9114 8.26109 38.4613 8.24544 41.0113C8.24544 41.4222 8.48017 41.4942 8.78062 41.5872L21.866 45.6761C23.409 46.1591 23.8878 46.7861 23.8878 48.349C23.8878 52.5129 23.8878 56.6768 23.8878 60.8407C23.9325 62.2472 23.6857 63.6481 23.1617 64.9626C22.035 67.5365 19.888 68.7905 17.1026 69.0335C15.4344 69.1774 13.7412 69.0575 12.0575 69.0575L12.0512 69.0635Z" fill="url(#paint0_linear_138_102)"/>
<path d="M37.7524 31.3184V42.6761H48.622C49.7549 42.6761 49.9552 42.8651 49.9584 43.9481C49.9584 45.646 49.9584 47.346 49.9584 49.0479C49.9584 50.0259 49.7299 50.2329 48.7065 50.2329C45.2659 50.2329 41.8232 50.2329 38.3784 50.2329H37.7524V61.6956H52.1492C53.2196 61.6956 53.4543 61.9176 53.4543 62.9495C53.4543 64.6475 53.4543 66.3484 53.4543 68.0494C53.4543 68.9703 53.2196 69.1953 52.2744 69.1953H30.9922C30.0783 69.1953 29.8311 68.9644 29.8311 68.0884V24.8896C29.8311 24.0106 30.072 23.7856 30.9891 23.7856C38.0831 23.7856 45.1772 23.7856 52.2712 23.7856C53.2102 23.7856 53.448 24.0226 53.4512 24.9346C53.4512 26.6706 53.4512 28.4055 53.4512 30.1395C53.4512 31.0994 53.2039 31.3394 52.1993 31.3394H37.7524V31.3184Z" fill="url(#paint1_linear_138_102)"/>
<path d="M107.057 69.2224C107.727 69.2224 108.325 69.1954 108.917 69.2374C109.12 69.2374 109.305 69.4414 109.499 69.5374C109.314 69.6514 109.129 69.8644 108.938 69.8704C105.993 69.9244 103.045 69.9754 100.1 69.9844C94.3977 69.9994 88.6984 69.9844 82.9992 69.9844C81.4187 69.9844 81.6409 70.1164 81.6221 68.6914C81.6079 68.4963 81.5828 68.302 81.547 68.1094H81.3561C81.3254 68.3161 81.3118 68.5247 81.3154 68.7334C81.3592 69.1954 81.1871 69.4054 80.6895 69.4924C75.7476 70.3324 70.9591 69.8224 66.4398 67.7464C59.1225 64.3805 54.6062 58.8277 53.007 51.1959C50.7723 40.5162 57.2947 29.3295 68.0297 25.6756C77.3281 22.5107 85.6845 24.2777 92.9737 30.6555C93.0738 30.7425 93.1833 30.8205 93.3805 30.9735C93.3805 30.3435 93.3805 29.8155 93.3805 29.2845C93.3805 28.2166 94.0941 27.4846 95.1207 27.4846C96.1472 27.4846 96.8827 28.2016 96.8858 29.2575C96.8858 31.7235 96.8858 34.1864 96.8858 36.6493C96.8869 36.9047 96.9468 37.1566 97.0611 37.3873C99.5303 42.2231 100.035 47.7664 98.4757 52.9389C98.3986 53.2046 98.3586 53.479 98.3568 53.7548C98.3568 58.7667 98.3568 63.7805 98.3568 68.7964C98.3568 68.9164 98.3568 69.0394 98.3818 69.2014H99.302C99.302 68.9974 99.3364 68.7814 99.3364 68.5684C99.3364 64.4385 99.3364 60.3086 99.3364 56.1788C99.3364 55.4378 99.3614 55.4138 100.122 55.4108H106.206C107.054 55.4108 107.07 55.4108 107.07 56.2178V69.1894L107.057 69.2224ZM90.1913 33.5894C90.1826 33.5405 90.1668 33.4931 90.1444 33.4484C90.0855 33.3821 90.0217 33.3199 89.9535 33.2624C85.046 28.9695 79.2905 27.2626 72.7618 28.4086C70.0081 28.8986 67.3943 29.9438 65.0937 31.4749C62.793 33.006 60.858 34.9882 59.4167 37.2901C57.9753 39.592 57.0606 42.1611 56.7331 44.8273C56.4056 47.4935 56.6728 50.196 57.5169 52.7559C60.5371 62.0766 70.7181 67.7344 80.6175 65.5985C81.162 65.4815 81.3029 65.5985 81.3091 66.1265C81.3154 66.6545 81.3091 67.2364 81.3091 67.7884L81.5376 67.8064C81.5796 67.6145 81.6078 67.4201 81.6221 67.2244C81.6221 62.8506 81.6221 58.4777 81.6221 54.1058C81.6221 53.3828 81.644 53.3618 82.3732 53.3618H88.6327C89.3244 53.3618 89.3588 53.3978 89.3588 54.0818V64.4735C90.1475 64.0685 90.6451 63.6846 90.6264 62.7216C90.5575 58.4887 90.5951 54.2558 90.5982 50.0199C90.5982 49.366 90.6639 49.306 91.3399 49.306C93.4264 49.306 95.5129 49.306 97.5994 49.306C98.3036 49.306 98.3568 49.36 98.3599 50.0589V51.6579C99.593 46.756 99.014 42.0582 96.7262 37.4803C96.0251 38.4493 95.1426 38.4733 94.1004 38.1733C91.8845 37.5343 89.6499 36.9733 87.4215 36.3733C86.2792 36.0733 85.7095 35.2064 85.9912 34.2344C86.2729 33.2624 87.2431 32.8034 88.3667 33.1034C88.952 33.2534 89.556 33.4184 90.1913 33.5894ZM106.319 56.1638H100.059V69.2134H106.319V56.1638ZM82.32 67.5814C82.5221 67.5461 82.7217 67.499 82.9178 67.4404C84.1697 66.9845 85.406 66.5105 86.6547 66.0575C86.8257 66.01 86.9731 65.905 87.0697 65.7617C87.1663 65.6184 87.2056 65.4464 87.1805 65.2775C87.1586 62.0316 87.1805 58.7887 87.1805 55.5428C87.1601 55.3886 87.1686 55.2321 87.2056 55.0808C87.2556 54.9638 87.409 54.8108 87.5185 54.8108C87.6281 54.8108 87.7814 54.9608 87.8315 55.0778C87.8673 55.2303 87.8747 55.3878 87.8534 55.5428C87.8534 58.6307 87.8534 61.7186 87.8534 64.8065C87.8534 64.9865 87.8691 65.1665 87.8785 65.3615C88.0025 65.3464 88.1222 65.3078 88.2305 65.2477C88.3388 65.1877 88.4335 65.1076 88.509 65.012C88.5845 64.9164 88.6393 64.8073 88.6702 64.6912C88.7012 64.575 88.7076 64.4541 88.6891 64.3355C88.6578 61.0896 88.6671 57.8467 88.6891 54.6038C88.6891 54.1538 88.5764 54.0038 88.085 54.0038C86.3668 54.0338 84.6423 54.0038 82.9272 54.0188C82.7332 54.0188 82.5423 54.0398 82.3326 54.0518L82.32 67.5814ZM91.3212 63.0456L91.6654 62.7696C93.3164 61.3591 94.7262 59.7091 95.8436 57.8797C96.0525 57.5237 96.1674 57.1241 96.1785 56.7157C96.2161 54.9998 96.1941 53.2838 96.1941 51.5649C96.1766 51.4656 96.1766 51.3642 96.1941 51.2649C96.2849 51.0699 96.407 50.8899 96.5071 50.7009C96.6229 50.8839 96.8201 51.0639 96.8389 51.2469C96.867 52.6509 96.8389 54.0548 96.8389 55.4468C96.8389 55.5638 96.8639 55.6808 96.8858 55.8728C97.4243 55.0532 97.6784 54.0913 97.6119 53.1248C97.5587 52.0899 97.6119 51.0549 97.6119 50.0079H91.3212V63.0456ZM97.6057 69.1834V55.4048C97.1163 56.1393 96.8577 56.9932 96.8608 57.8647C96.9077 61.0056 96.8796 64.1435 96.8796 67.2814C96.9046 67.4184 96.9046 67.5585 96.8796 67.6954C96.7932 67.8571 96.6882 68.0091 96.5666 68.1484C96.4375 68.0177 96.3251 67.8726 96.2317 67.7164C96.2048 67.5807 96.2048 67.4412 96.2317 67.3054V58.1167C96.1645 58.159 96.1017 58.2072 96.0439 58.2607C94.8217 60.1508 93.3158 61.8581 91.5747 63.3276C91.4244 63.4871 91.3418 63.6946 91.3431 63.9095C91.3243 65.5205 91.3431 67.1345 91.3431 68.7454C91.3431 68.8954 91.365 69.0454 91.3775 69.1834H97.6057ZM54.5217 45.8621C54.5718 51.9369 56.1805 56.4338 59.4824 60.3306C62.9285 64.4986 67.9065 67.246 73.3972 68.0104C74.2764 68.116 75.162 68.1661 76.0481 68.1604C76.192 68.1604 76.3422 67.9444 76.4893 67.8274C76.3524 67.7171 76.207 67.6168 76.0543 67.5274C75.9698 67.4854 75.8415 67.5274 75.7413 67.5274C70.3521 67.4486 65.1936 65.4179 61.3022 61.8432C57.4109 58.2685 55.075 53.4147 54.7639 48.257C54.4528 43.0993 56.1895 38.0198 59.6251 34.0391C63.0607 30.0583 67.9406 27.4712 73.2845 26.7976C74.1984 26.6836 75.1248 26.6776 76.0418 26.5846C76.2014 26.5666 76.3548 26.3626 76.4893 26.2456C76.3541 26.1373 76.2119 26.0371 76.0637 25.9456C75.9948 25.9066 75.8853 25.9456 75.7945 25.9456C72.6648 26.0026 69.6196 26.5636 66.8341 27.9496C58.8283 31.9125 54.9349 38.3893 54.5217 45.8621ZM88.6171 69.2614V65.4335C88.0318 65.5865 87.7595 65.8835 87.8346 66.4535C87.8612 66.834 87.8612 67.2159 87.8346 67.5964C87.8346 67.8334 87.8847 68.1304 87.5217 68.1424C87.1586 68.1544 87.1805 67.8424 87.1774 67.6174C87.1774 67.1614 87.1774 66.7175 87.1774 66.2705L82.3482 68.0254V69.2644L88.6171 69.2614ZM90.545 69.2614V64.0895C90.3355 64.2629 90.1115 64.4195 89.8752 64.5575C89.412 64.7735 89.3244 65.1125 89.34 65.5715C89.3745 66.5375 89.34 67.5064 89.34 68.4754V69.2734L90.545 69.2614ZM94.8703 37.4623C94.9642 37.3873 95.1488 37.3063 95.1833 37.1833C95.2177 37.0603 95.0831 36.9133 94.9798 36.8173C94.8741 36.751 94.7544 36.708 94.6293 36.6913L88.2509 34.8914C88.1427 34.8398 88.0242 34.8112 87.9035 34.8074C87.7658 34.8374 87.5717 34.9244 87.5404 35.0234C87.5394 35.0946 87.554 35.1653 87.5831 35.2309C87.6122 35.2965 87.6552 35.3556 87.7094 35.4044C87.7846 35.4854 87.9348 35.4974 88.0568 35.5333L94.4352 37.3483C94.5448 37.3963 94.6668 37.4263 94.8703 37.4803V37.4623Z" fill="url(#paint2_linear_138_102)"/>
<path d="M24.2448 15.4848H21.3498C21.3498 15.6618 21.3248 15.8358 21.3248 16.0068C21.3248 17.8068 21.3248 19.6247 21.3248 21.4336C21.3248 22.0126 21.2058 22.1296 20.6081 22.1356C19.6691 22.1356 18.7302 22.1356 17.7913 22.1356C17.2092 22.1356 17.0871 22.0156 17.084 21.4726V0.701241C17.084 0.131257 17.181 0.0442597 17.7788 0.0412598C20.4234 0.0412598 23.0649 0.0412598 25.7095 0.0412598C26.2515 0.0524089 26.7899 0.129011 27.312 0.269253C28.1302 0.46596 28.8554 0.920961 29.371 1.56095C29.8865 2.20094 30.1622 2.98864 30.1538 3.79715C30.2226 6.44308 30.2101 9.092 30.1538 11.7379C30.1535 12.2851 30.0205 12.8247 29.7652 13.3141C29.5099 13.8036 29.1393 14.2293 28.6828 14.5578C28.5762 14.6218 28.4969 14.72 28.4591 14.8349C28.4212 14.9498 28.4273 15.0738 28.4762 15.1848C29.002 17.2248 29.5122 19.2677 30.0411 21.3107C30.2132 21.9976 30.1037 22.1326 29.3619 22.1356H26.7736C26.0162 22.1356 25.9255 22.0666 25.7533 21.3797L24.3919 15.9798C24.3512 15.8118 24.298 15.6588 24.2448 15.4848ZM21.3404 11.3779C22.5579 11.3779 23.7378 11.4109 24.9146 11.3779C25.5624 11.3389 25.9349 10.9279 25.9349 10.271C25.9568 8.59402 25.9599 6.92006 25.9349 5.24311C25.9349 4.51413 25.4998 4.14214 24.7299 4.10614C24.2667 4.08514 23.791 4.10614 23.3403 4.10614H21.3404V11.3779Z" fill="url(#paint3_linear_138_102)"/>
<path d="M46.66 11.0542C46.66 13.2261 46.66 15.395 46.66 17.567C46.6645 18.0432 46.6183 18.5186 46.5223 18.9859C46.1499 20.6239 45.1233 21.7188 43.3926 21.9678C41.2149 22.2931 38.9978 22.2931 36.8202 21.9678C34.9423 21.6678 33.8532 20.4499 33.5997 18.6529C33.5424 18.2452 33.5132 17.8344 33.512 17.423C33.512 13.1951 33.512 8.96821 33.512 4.74233C33.5066 4.15085 33.5738 3.5608 33.7123 2.98438C34.1693 1.20843 35.4681 0.230462 37.3147 0.113466C39.1624 -0.0290328 41.0191 -0.0290328 42.8668 0.113466C45.3205 0.347459 46.5912 1.82342 46.6475 4.20835C46.6882 6.49428 46.6475 8.78022 46.6475 11.0662L46.66 11.0542ZM37.7904 11.1082C37.7904 13.0161 37.7904 14.924 37.7904 16.829C37.7904 17.636 38.1722 18.029 39.0047 18.047C39.76 18.075 40.5143 18.075 41.2675 18.047C42.1188 18.02 42.5194 17.63 42.5194 16.802C42.5194 12.9861 42.5194 9.17221 42.5194 5.36032C42.5194 4.51734 42.0906 4.12135 41.2143 4.10335C40.5477 4.10335 39.8779 4.10335 39.2081 4.10335C38.1753 4.10335 37.7872 4.48434 37.7872 5.48631C37.7831 7.36026 37.7841 9.23421 37.7904 11.1082Z" fill="url(#paint4_linear_138_102)"/>
<path d="M101.049 11.108V16.6939C101.049 17.7529 101.427 18.1128 102.532 18.1158C103.202 18.1158 103.872 18.1158 104.541 18.1158C105.355 18.0978 105.768 17.7019 105.793 16.9159C105.793 16.0429 105.793 15.1699 105.793 14.3C105.793 13.868 105.975 13.664 106.438 13.667C107.399 13.667 108.36 13.667 109.321 13.667C109.633 13.667 109.928 13.751 109.925 14.117C109.925 15.5959 110.022 17.0869 109.853 18.5508C109.593 20.7078 108.247 21.9257 105.969 22.0637C104.291 22.1732 102.607 22.1732 100.93 22.0637C98.2068 21.8777 96.7891 20.4318 96.7578 17.8039C96.7046 13.304 96.7327 8.82211 96.7578 4.33424C96.7664 3.80823 96.8528 3.28604 97.0144 2.78329C97.5339 1.07034 98.8484 0.19436 100.614 0.0833632C102.513 -0.0411946 104.419 -0.026151 106.316 0.128362C108.507 0.329356 109.812 1.79631 109.903 3.91125C109.959 5.24022 109.921 6.57518 109.934 7.90714C109.934 8.30913 109.731 8.47412 109.336 8.47412C108.36 8.47412 107.381 8.47412 106.4 8.47412C105.975 8.47412 105.775 8.26713 105.79 7.85614C105.79 7.03416 105.79 6.21219 105.79 5.39021C105.79 4.56824 105.408 4.14525 104.52 4.11225C103.8 4.08525 103.077 4.08525 102.357 4.11225C101.443 4.14225 101.061 4.53524 101.058 5.42021C101.049 7.33416 101.049 9.2271 101.049 11.108Z" fill="url(#paint5_linear_138_102)"/>
<path d="M0.634189 11.108V0.845267C0.634189 0.158287 0.724951 0.0712891 1.42601 0.0712891C3.983 0.0712891 6.54313 0.0712891 9.10012 0.0712891C9.64783 0.0806927 10.1927 0.149121 10.7245 0.275283C11.5425 0.437269 12.2783 0.862257 12.8099 1.47985C13.3415 2.09744 13.6371 2.87058 13.6476 3.67119C13.7227 6.33211 13.7384 8.99903 13.6476 11.66C13.5756 13.7059 11.9231 15.1279 9.71042 15.2239C8.27074 15.2839 6.82793 15.3049 5.38825 15.2989C4.92192 15.2989 4.81551 15.4459 4.81864 15.8658C4.84055 17.7258 4.81864 19.5827 4.81864 21.4427C4.81864 22.0427 4.72162 22.1357 4.10819 22.1297C3.19744 22.1297 2.28669 22.1087 1.37907 22.0847C0.696784 22.0667 0.62793 21.9917 0.62793 21.3197L0.634189 11.108ZM4.8249 7.68207V10.886C4.8249 11.111 4.8249 11.321 5.16291 11.315C6.22389 11.294 7.288 11.315 8.34898 11.258C9.16584 11.207 9.50072 10.826 9.51011 10.034C9.52472 8.45605 9.52472 6.87809 9.51011 5.30014C9.51011 4.46916 9.06569 4.07917 8.18624 4.07317C7.30678 4.06717 6.33656 4.09717 5.41016 4.07317C4.96574 4.07317 4.80612 4.18417 4.81864 4.62816C4.84681 5.64513 4.8249 6.6651 4.8249 7.68207Z" fill="url(#paint6_linear_138_102)"/>
<path d="M77.0342 4.20828V9.60813H77.6006C79.3846 9.60813 81.1717 9.60813 82.9556 9.60813C83.6066 9.60813 83.7161 9.70712 83.7224 10.3101C83.7224 11.2301 83.7224 12.1511 83.7224 13.073C83.7224 13.64 83.5847 13.766 82.9932 13.766H77.0123V21.2898C77.0123 22.0428 76.9121 22.1358 76.1203 22.1358C75.1595 22.1358 74.1986 22.1358 73.2347 22.1358C72.6776 22.1358 72.5273 21.9918 72.5273 21.4638C72.5273 14.54 72.5273 7.61518 72.5273 0.689382C72.5273 0.239395 72.7089 0.0354004 73.2002 0.0354004C77.1479 0.0354004 81.0955 0.0354004 85.0431 0.0354004C85.5439 0.0354004 85.7098 0.254394 85.7035 0.698381C85.7035 1.63735 85.7035 2.57333 85.7035 3.5123C85.7035 4.08228 85.5783 4.19328 84.968 4.19328H77.0342V4.20828Z" fill="url(#paint7_linear_138_102)"/>
<path d="M54.4339 17.9537H60.0487C61.5948 17.9537 61.5009 17.8788 61.4946 19.3517C61.4946 20.0417 61.4946 20.7317 61.4946 21.4216C61.4946 21.9916 61.3538 22.1326 60.7748 22.1356H50.6595C50.0961 22.1356 49.9521 21.9946 49.9521 21.4666C49.9521 14.5428 49.9521 7.61904 49.9521 0.695241C49.9521 0.155257 50.0773 0.0442597 50.6595 0.0412598H53.5451C54.3557 0.0412598 54.4277 0.107258 54.4277 0.878236V17.9537H54.4339Z" fill="url(#paint8_linear_138_102)"/>
<path d="M69.2316 11.108V21.3558C69.2316 22.0367 69.1345 22.1327 68.4397 22.1357C67.4445 22.1357 66.4492 22.1357 65.454 22.1357C64.9908 22.1357 64.7686 21.9707 64.7686 21.4937C64.7686 14.5579 64.7686 7.62114 64.7686 0.683342C64.7686 0.221355 64.9438 0.0263608 65.4352 0.0323607C66.4649 0.0503602 67.4946 0.0323607 68.5242 0.0323607C69.1502 0.0323607 69.2316 0.125358 69.2316 0.731341C69.2357 4.19124 69.2357 7.65014 69.2316 11.108Z" fill="url(#paint9_linear_138_102)"/>
<path d="M93.4491 11.0539V21.3077C93.4491 22.0516 93.3678 22.1296 92.5978 22.1296C91.637 22.1296 90.6762 22.1296 89.7154 22.1296C89.1144 22.1296 88.9893 22.0066 88.9893 21.4367V0.72824C88.9893 0.128257 89.0831 0.0442597 89.7091 0.0412598H92.5978C93.3991 0.0412598 93.4554 0.0922583 93.4554 0.845237L93.4491 11.0539Z" fill="url(#paint10_linear_138_102)"/>
<path opacity="0.35" d="M54.5215 45.8621C54.9346 38.3894 58.828 31.9125 66.8339 27.9287C69.6193 26.5427 72.6583 25.9817 75.7943 25.9247C75.885 25.9247 75.9946 25.8947 76.0634 25.9247C76.2117 26.0162 76.3538 26.1163 76.4891 26.2247C76.342 26.3417 76.2012 26.5457 76.0415 26.5637C75.1245 26.6567 74.1981 26.6627 73.2842 26.7767C67.941 27.45 63.0614 30.0363 59.6256 34.0162C56.1899 37.996 54.4525 43.0746 54.7624 48.2317C55.0723 53.3889 57.4065 58.2426 61.2963 61.8181C65.186 65.3935 70.3431 67.4257 75.7317 67.5065C75.8412 67.5065 75.9696 67.4735 76.0447 67.5065C76.1974 67.5959 76.3428 67.6962 76.4797 67.8065C76.3326 67.9235 76.1824 68.1425 76.0384 68.1395C75.1523 68.1452 74.2668 68.0951 73.3875 67.9895C67.8969 67.2251 62.9188 64.4777 59.4727 60.3097C56.1802 56.4338 54.5716 51.937 54.5215 45.8621Z" fill="url(#paint11_linear_138_102)"/>
<path d="M94.8698 37.4803C94.6663 37.4263 94.5568 37.3963 94.4222 37.3603L88.0438 35.5453C87.9217 35.5093 87.7715 35.4973 87.6964 35.4163C87.6422 35.3676 87.5991 35.3085 87.57 35.2429C87.5409 35.1773 87.5264 35.1066 87.5274 35.0353C87.5587 34.9363 87.7527 34.8493 87.8904 34.8193C88.016 34.8191 88.1401 34.8457 88.2535 34.8973L94.6319 36.6973C94.757 36.7139 94.8767 36.757 94.9824 36.8233C95.0857 36.9193 95.2171 37.0903 95.1859 37.1893C95.1546 37.2883 94.9636 37.4053 94.8698 37.4803Z" fill="url(#paint12_linear_138_102)"/>
<path d="M75.8883 40.4443C75.8883 39.3673 75.8883 38.2933 75.8883 37.2194C75.8883 36.9194 75.7381 36.4394 76.2451 36.4424C76.7052 36.4424 76.5769 36.9044 76.5769 37.1954C76.5769 39.3953 76.5769 41.5953 76.5769 43.7952C76.5769 44.1522 76.652 44.3322 77.0589 44.4492C77.625 44.6214 78.1103 44.9783 78.4304 45.4578C78.7506 45.9373 78.8854 46.5092 78.8115 47.0741C78.7516 47.6127 78.5108 48.1182 78.1253 48.5142C77.7397 48.9103 77.2304 49.1755 76.6739 49.27C76.0986 49.3667 75.5061 49.2725 74.994 49.0031C74.482 48.7337 74.081 48.3052 73.8571 47.7881C73.8211 47.6605 73.7374 47.55 73.6221 47.4776C73.5067 47.4051 73.3676 47.3758 73.2312 47.3951C71.4566 47.4101 69.6821 47.3951 67.9106 47.3951C67.7499 47.4113 67.5874 47.398 67.4318 47.3561C67.3715 47.3268 67.3192 47.2844 67.279 47.2323C67.2388 47.1802 67.2118 47.1199 67.2002 47.0561C67.2107 46.9915 67.2376 46.9303 67.2785 46.878C67.3194 46.8257 67.3731 46.7838 67.4349 46.7561C67.6086 46.7136 67.7883 46.6984 67.967 46.7111C69.704 46.7111 71.4441 46.7111 73.1811 46.7111C73.5129 46.7111 73.6506 46.6181 73.7132 46.2941C73.7866 45.8446 73.9964 45.4258 74.3164 45.0897C74.6364 44.7536 75.0525 44.5152 75.5128 44.4042C75.8633 44.3052 75.9071 44.1432 75.904 43.8522C75.8821 42.7332 75.8883 41.5872 75.8883 40.4443ZM78.2012 47.0651C78.2224 46.551 78.0411 46.048 77.6931 45.6561C77.3452 45.2643 76.8562 45.0123 76.3234 44.9502C76.1481 44.9292 75.9478 45.1032 75.76 45.1901C75.9009 45.3341 76.0229 45.5741 76.1888 45.6071C76.5425 45.6498 76.8691 45.8107 77.1113 46.0614C77.3534 46.3122 77.4956 46.6368 77.5127 46.9781C77.5314 47.1281 77.7568 47.2541 77.8851 47.3891L78.2012 47.0651Z" fill="url(#paint13_linear_138_102)"/>
<path d="M90.955 47.4069C90.4667 47.4069 89.9754 47.4369 89.4903 47.3919C89.3025 47.3739 89.1335 47.1879 88.9551 47.0919C89.1241 46.9749 89.29 46.762 89.4621 46.756C90.4386 46.723 91.4182 46.723 92.3915 46.756C92.5731 46.756 92.7483 46.9599 92.9267 47.0559C92.7389 47.1729 92.5605 47.3709 92.3634 47.3919C91.8946 47.4225 91.4244 47.4275 90.955 47.4069Z" fill="url(#paint14_linear_138_102)"/>
<path d="M64.7434 58.4616C64.6558 58.3866 64.493 58.3146 64.493 58.2396C64.4848 58.0749 64.5368 57.9125 64.6401 57.7806C65.1597 57.2527 65.7042 56.7457 66.2394 56.2297C66.4333 56.0254 66.6425 55.8349 66.8654 55.6597C66.9687 55.5907 67.2441 55.5757 67.2848 55.6327C67.363 55.7497 67.4099 56.0047 67.338 56.0797C66.5618 56.8537 65.7731 57.6067 64.9656 58.3596C64.8968 58.4033 64.822 58.4376 64.7434 58.4616Z" fill="url(#paint15_linear_138_102)"/>
<path d="M67.4638 38.2543C67.3918 38.3443 67.3386 38.4763 67.2416 38.5123C67.1855 38.5318 67.1254 38.5384 67.0662 38.5317C67.0069 38.5249 66.9502 38.5049 66.9004 38.4733C66.1086 37.7353 65.3356 36.9944 64.5625 36.2294C64.4812 36.1484 64.5625 35.9294 64.5625 35.7674C64.7253 35.7674 64.9506 35.7134 65.0383 35.7944C65.8113 36.4994 66.5593 37.2253 67.3104 37.9543C67.3742 38.0479 67.4257 38.1487 67.4638 38.2543Z" fill="url(#paint16_linear_138_102)"/>
<path d="M61.6418 47.4069C61.1557 47.425 60.6689 47.419 60.1834 47.3889C60.0081 47.3709 59.8485 47.17 59.6826 47.053C59.8391 46.945 59.9956 46.753 60.1489 46.753C61.1567 46.723 62.1666 46.723 63.1785 46.753C63.3288 46.753 63.4759 46.972 63.623 47.089C63.4665 47.197 63.31 47.3889 63.1566 47.3889C62.6559 47.4069 62.1488 47.4069 61.6418 47.4069Z" fill="url(#paint17_linear_138_102)"/>
<path d="M76.6352 61.1615C76.6352 61.6295 76.6633 62.1005 76.6352 62.5655C76.6196 62.7215 76.4198 62.8655 76.3073 63.0125C76.1949 62.8595 75.9951 62.7125 75.9951 62.5565C75.9639 61.5875 75.9639 60.6155 75.9951 59.6466C75.9951 59.4966 76.2043 59.3466 76.3073 59.2056C76.4198 59.3526 76.6196 59.5056 76.6196 59.6556C76.6633 60.1535 76.6352 60.6575 76.6352 61.1615Z" fill="url(#paint18_linear_138_102)"/>
<path d="M104.804 62.4247C104.804 60.7417 104.804 59.0588 104.804 57.3758C104.788 57.2205 104.803 57.0638 104.848 56.9138C104.878 56.8563 104.922 56.8065 104.977 56.7685C105.031 56.7305 105.094 56.7052 105.16 56.6948C105.227 56.7054 105.291 56.7313 105.345 56.7705C105.399 56.8097 105.443 56.8609 105.472 56.9198C105.52 57.0693 105.536 57.2263 105.519 57.3818V67.4285C105.519 67.4975 105.544 67.5785 105.519 67.6325C105.422 67.8095 105.304 67.9775 105.207 68.1485C105.082 67.9745 104.851 67.8035 104.848 67.6295C104.804 65.8956 104.804 64.1586 104.804 62.4247Z" fill="url(#paint19_linear_138_102)"/>
<path d="M78.2008 47.0649L77.8878 47.3889C77.7595 47.2539 77.5341 47.1279 77.5153 46.9779C77.4982 46.6366 77.3561 46.312 77.114 46.0613C76.8718 45.8105 76.5452 45.6496 76.1915 45.607C76.0256 45.574 75.9035 45.334 75.7627 45.19C75.9505 45.103 76.1508 44.929 76.326 44.95C76.8584 45.0128 77.3466 45.2651 77.6938 45.6569C78.0411 46.0487 78.2221 46.5512 78.2008 47.0649Z" fill="url(#paint20_linear_138_102)"/>
<defs>
<linearGradient id="paint0_linear_138_102" x1="12.0813" y1="23.8127" x2="12.0813" y2="69.1043" gradientUnits="userSpaceOnUse">
<stop stop-color="#8997FF" stop-opacity="0.81"/>
<stop offset="1" stop-color="#B970FF" stop-opacity="0.88"/>
</linearGradient>
<linearGradient id="paint1_linear_138_102" x1="41.6427" y1="23.7856" x2="41.6427" y2="69.1953" gradientUnits="userSpaceOnUse">
<stop stop-color="#8997FF" stop-opacity="0.81"/>
<stop offset="1" stop-color="#B970FF" stop-opacity="0.88"/>
</linearGradient>
<linearGradient id="paint2_linear_138_102" x1="81.034" y1="24.1416" x2="81.034" y2="69.991" gradientUnits="userSpaceOnUse">
<stop stop-color="#8997FF" stop-opacity="0.81"/>
<stop offset="1" stop-color="#B970FF" stop-opacity="0.88"/>
</linearGradient>
<linearGradient id="paint3_linear_138_102" x1="23.6424" y1="0.0412598" x2="23.6424" y2="22.1356" gradientUnits="userSpaceOnUse">
<stop stop-color="#8997FF" stop-opacity="0.81"/>
<stop offset="1" stop-color="#B970FF" stop-opacity="0.88"/>
</linearGradient>
<linearGradient id="paint4_linear_138_102" x1="40.0887" y1="0.0065918" x2="40.0887" y2="22.2118" gradientUnits="userSpaceOnUse">
<stop stop-color="#8997FF" stop-opacity="0.81"/>
<stop offset="1" stop-color="#B970FF" stop-opacity="0.88"/>
</linearGradient>
<linearGradient id="paint5_linear_138_102" x1="103.34" y1="0" x2="103.34" y2="22.1459" gradientUnits="userSpaceOnUse">
<stop stop-color="#8997FF" stop-opacity="0.81"/>
<stop offset="1" stop-color="#B970FF" stop-opacity="0.88"/>
</linearGradient>
<linearGradient id="paint6_linear_138_102" x1="7.16895" y1="0.0712891" x2="7.16895" y2="22.1299" gradientUnits="userSpaceOnUse">
<stop stop-color="#8997FF" stop-opacity="0.81"/>
<stop offset="1" stop-color="#B970FF" stop-opacity="0.88"/>
</linearGradient>
<linearGradient id="paint7_linear_138_102" x1="79.1155" y1="0.0354004" x2="79.1155" y2="22.1358" gradientUnits="userSpaceOnUse">
<stop stop-color="#8997FF" stop-opacity="0.81"/>
<stop offset="1" stop-color="#B970FF" stop-opacity="0.88"/>
</linearGradient>
<linearGradient id="paint8_linear_138_102" x1="55.7249" y1="0.0412598" x2="55.7249" y2="22.1356" gradientUnits="userSpaceOnUse">
<stop stop-color="#8997FF" stop-opacity="0.81"/>
<stop offset="1" stop-color="#B970FF" stop-opacity="0.88"/>
</linearGradient>
<linearGradient id="paint9_linear_138_102" x1="67.0016" y1="0.0322266" x2="67.0016" y2="22.1357" gradientUnits="userSpaceOnUse">
<stop stop-color="#8997FF" stop-opacity="0.81"/>
<stop offset="1" stop-color="#B970FF" stop-opacity="0.88"/>
</linearGradient>
<linearGradient id="paint10_linear_138_102" x1="91.2223" y1="0.0412598" x2="91.2223" y2="22.1296" gradientUnits="userSpaceOnUse">
<stop stop-color="#8997FF" stop-opacity="0.81"/>
<stop offset="1" stop-color="#B970FF" stop-opacity="0.88"/>
</linearGradient>
<linearGradient id="paint11_linear_138_102" x1="65.5053" y1="25.9114" x2="65.5053" y2="68.1399" gradientUnits="userSpaceOnUse">
<stop stop-color="#8997FF" stop-opacity="0.81"/>
<stop offset="1" stop-color="#B970FF" stop-opacity="0.88"/>
</linearGradient>
<linearGradient id="paint12_linear_138_102" x1="91.3589" y1="34.8193" x2="91.3589" y2="37.4803" gradientUnits="userSpaceOnUse">
<stop stop-color="#8997FF" stop-opacity="0.81"/>
<stop offset="1" stop-color="#B970FF" stop-opacity="0.88"/>
</linearGradient>
<linearGradient id="paint13_linear_138_102" x1="73.0157" y1="36.4424" x2="73.0157" y2="49.307" gradientUnits="userSpaceOnUse">
<stop stop-color="#8997FF" stop-opacity="0.81"/>
<stop offset="1" stop-color="#B970FF" stop-opacity="0.88"/>
</linearGradient>
<linearGradient id="paint14_linear_138_102" x1="90.9409" y1="46.7312" x2="90.9409" y2="47.4193" gradientUnits="userSpaceOnUse">
<stop stop-color="#8997FF" stop-opacity="0.81"/>
<stop offset="1" stop-color="#B970FF" stop-opacity="0.88"/>
</linearGradient>
<linearGradient id="paint15_linear_138_102" x1="65.9329" y1="55.5977" x2="65.9329" y2="58.4616" gradientUnits="userSpaceOnUse">
<stop stop-color="#8997FF" stop-opacity="0.81"/>
<stop offset="1" stop-color="#B970FF" stop-opacity="0.88"/>
</linearGradient>
<linearGradient id="paint16_linear_138_102" x1="65.9951" y1="35.7498" x2="65.9951" y2="38.5342" gradientUnits="userSpaceOnUse">
<stop stop-color="#8997FF" stop-opacity="0.81"/>
<stop offset="1" stop-color="#B970FF" stop-opacity="0.88"/>
</linearGradient>
<linearGradient id="paint17_linear_138_102" x1="61.6528" y1="46.7305" x2="61.6528" y2="47.4171" gradientUnits="userSpaceOnUse">
<stop stop-color="#8997FF" stop-opacity="0.81"/>
<stop offset="1" stop-color="#B970FF" stop-opacity="0.88"/>
</linearGradient>
<linearGradient id="paint18_linear_138_102" x1="76.3097" y1="59.2056" x2="76.3097" y2="63.0125" gradientUnits="userSpaceOnUse">
<stop stop-color="#8997FF" stop-opacity="0.81"/>
<stop offset="1" stop-color="#B970FF" stop-opacity="0.88"/>
</linearGradient>
<linearGradient id="paint19_linear_138_102" x1="105.164" y1="56.6948" x2="105.164" y2="68.1485" gradientUnits="userSpaceOnUse">
<stop stop-color="#8997FF" stop-opacity="0.81"/>
<stop offset="1" stop-color="#B970FF" stop-opacity="0.88"/>
</linearGradient>
<linearGradient id="paint20_linear_138_102" x1="76.9826" y1="44.9482" x2="76.9826" y2="47.3889" gradientUnits="userSpaceOnUse">
<stop stop-color="#8997FF" stop-opacity="0.81"/>
<stop offset="1" stop-color="#B970FF" stop-opacity="0.88"/>
</linearGradient>
</defs>
</svg>
