<?xml version="1.0" standalone="no"?>
<!DOCTYPE svg PUBLIC "-//W3C//DTD SVG 20010904//EN"
 "http://www.w3.org/TR/2001/REC-SVG-20010904/DTD/svg10.dtd">
<svg version="1.0" xmlns="http://www.w3.org/2000/svg"
 width="880.000000pt" height="880.000000pt" viewBox="0 0 880.000000 880.000000"
 preserveAspectRatio="xMidYMid meet">
<metadata>
Created by potrace 1.14, written by Peter Selinger 2001-2017
</metadata>
<g transform="translate(0.000000,880.000000) scale(0.100000,-0.100000)"
fill="#000000" stroke="none">
<path d="M71 7186 c-19 -8 -20 -25 -21 -872 0 -817 1 -864 17 -872 10 -5 82
-10 160 -11 107 -2 143 1 150 11 4 7 8 127 9 265 0 139 4 256 7 260 4 4 83 8
175 9 289 4 357 20 441 104 81 81 85 105 85 495 0 182 -3 346 -6 365 -20 124
-107 208 -248 242 -55 13 -741 17 -769 4z m636 -320 c11 -4 29 -19 38 -33 15
-23 17 -54 16 -237 0 -116 -2 -218 -4 -226 -9 -34 -20 -49 -46 -60 -36 -14
-310 -20 -318 -6 -4 5 -7 131 -7 279 -1 237 1 271 15 281 18 12 268 14 306 2z"/>
<path d="M1378 7183 c-15 -18 -18 -1720 -3 -1740 13 -17 302 -20 319 -3 7 7
12 87 13 238 1 125 2 239 2 255 l1 27 114 0 c101 0 115 -2 120 -17 9 -31 37
-137 42 -160 17 -85 85 -327 95 -339 9 -11 44 -14 166 -14 131 0 155 2 160 16
3 9 -25 133 -62 277 -37 144 -67 269 -67 278 0 9 23 39 50 66 83 83 86 98 86
508 0 261 -3 362 -13 398 -8 26 -18 47 -23 47 -5 0 -7 4 -4 9 3 5 -1 14 -9 21
-8 7 -15 18 -15 24 -1 17 -84 76 -129 92 -73 25 -96 26 -464 28 -298 2 -370 0
-379 -11z m649 -325 c15 -7 32 -23 38 -34 7 -13 10 -109 10 -254 l-1 -232 -27
-24 c-27 -23 -34 -24 -183 -24 l-154 0 -1 28 c0 15 -1 144 -2 287 l-1 260 35
5 c65 9 258 1 286 -12z"/>
<path d="M3015 7194 c-5 -2 -26 -5 -45 -7 -53 -6 -130 -28 -130 -38 0 -5 -6
-9 -13 -9 -20 0 -83 -67 -103 -109 -39 -81 -41 -121 -42 -717 -1 -623 1 -652
51 -736 67 -115 182 -152 477 -152 107 0 183 5 271 18 130 20 228 127 246 269
6 50 8 1033 3 1165 -2 34 -7 62 -11 62 -5 0 -6 6 -3 13 12 32 -79 177 -112
177 -8 0 -14 4 -14 9 0 4 -30 18 -67 31 -61 20 -90 23 -283 25 -118 1 -219 1
-225 -1z m322 -329 c18 -3 38 -16 48 -32 16 -24 18 -67 17 -513 -1 -295 -5
-497 -11 -513 -16 -40 -46 -50 -161 -52 -123 -1 -176 9 -192 39 -9 15 -12 158
-13 515 -1 484 -1 494 19 524 14 20 31 32 51 34 16 3 30 5 31 6 5 4 181 -2
211 -8z"/>
<path d="M4008 7182 c-16 -18 -18 -292 -3 -292 7 0 6 -3 0 -8 -15 -10 -14
-1427 1 -1442 17 -17 883 -15 900 2 14 15 16 42 15 188 -1 58 -5 111 -10 119
-8 12 -57 15 -283 15 l-273 1 -1 610 c0 336 -3 616 -8 623 -4 6 -3 12 1 12 10
0 8 168 -1 178 -4 3 -79 7 -167 7 -128 1 -162 -1 -171 -13z"/>
<path d="M5195 7184 c-16 -16 -20 -1705 -4 -1735 9 -17 23 -19 168 -19 119 0
161 3 170 13 15 19 13 1734 -3 1745 -21 13 -317 10 -331 -4z"/>
<path d="M5818 7189 c-17 -11 -19 -1732 -2 -1749 17 -17 314 -14 332 4 12 12
15 70 16 333 l1 318 254 1 c228 1 256 3 267 19 18 24 16 291 -2 306 -8 7 -103
11 -266 12 l-253 2 -1 171 c0 93 -3 175 -7 180 -3 6 -2 16 2 23 5 7 6 22 4 32
-3 10 -1 20 3 20 5 1 158 2 341 3 182 1 335 5 340 10 10 10 10 302 -1 313 -10
10 -1012 12 -1028 2z"/>
<path d="M7128 7183 c-6 -7 -8 -13 -5 -13 3 0 2 -13 -3 -28 -4 -16 -4 -36 1
-45 5 -8 5 -18 1 -21 -7 -4 -7 -30 2 -101 1 -11 -1 -30 -6 -42 -4 -13 -3 -25
3 -28 5 -4 7 -11 3 -16 -4 -8 -6 -52 -4 -139 1 -8 0 -37 0 -65 -1 -27 -1 -54
0 -60 1 -5 1 -14 0 -20 -1 -5 -2 -265 -2 -578 0 -434 3 -571 12 -582 10 -12
43 -15 171 -15 156 0 160 0 168 23 11 29 9 1723 -2 1734 -5 4 -80 8 -168 9
-120 0 -162 -3 -171 -13z"/>
<path d="M8048 7195 c-2 -1 -22 -5 -45 -9 -116 -15 -207 -97 -242 -216 -20
-67 -20 -64 -21 -655 0 -630 0 -636 39 -713 49 -97 155 -159 286 -168 72 -4
379 -4 426 1 155 16 251 94 290 235 7 27 13 117 14 228 1 154 -1 184 -14 196
-12 10 -50 13 -158 12 -78 0 -145 -5 -150 -9 -4 -5 -8 -67 -9 -138 -2 -151
-12 -183 -59 -199 -46 -15 -243 -11 -276 5 -14 8 -30 24 -35 37 -6 14 -10 208
-10 521 l1 499 30 24 c32 25 48 27 198 26 86 -1 137 -21 144 -57 2 -11 5 -75
6 -143 2 -105 5 -126 20 -136 19 -15 276 -19 299 -5 9 6 13 49 13 166 1 250
-14 319 -85 397 -32 35 -110 85 -110 70 0 -4 -6 -1 -14 6 -8 6 -30 13 -48 15
-18 2 -33 4 -33 5 0 4 -453 9 -457 5z"/>
<path d="M707 5294 c-1 -1 -38 -4 -82 -7 -113 -9 -149 -15 -220 -38 -124 -40
-243 -133 -291 -226 -10 -21 -23 -41 -28 -44 -5 -4 -5 -12 -2 -18 4 -6 3 -11
-2 -11 -6 0 -20 -37 -33 -82 -23 -83 -23 -84 -24 -715 0 -711 -3 -678 75 -722
21 -12 182 -67 357 -122 294 -92 494 -155 518 -163 6 -2 12 -4 15 -4 3 -1 39
-13 80 -27 41 -15 85 -28 98 -31 47 -9 100 -36 104 -52 9 -42 -1 -634 -12
-667 -13 -41 -58 -81 -104 -93 -18 -6 -109 -9 -202 -8 -196 2 -233 13 -270 79
-20 36 -22 54 -23 260 -1 206 -2 223 -21 241 -18 19 -34 20 -301 20 -280 0
-282 0 -300 -22 -17 -21 -18 -44 -14 -330 5 -372 8 -403 47 -496 49 -116 138
-212 250 -271 37 -20 68 -33 68 -29 0 3 6 2 13 -4 11 -9 41 -17 107 -30 14 -2
215 -5 448 -7 423 -2 459 1 577 35 118 35 250 149 303 262 28 59 59 164 68
233 8 52 7 1160 -1 1196 -17 79 -64 118 -187 156 -29 9 -55 17 -58 17 -3 1
-11 5 -17 9 -7 5 -13 6 -13 3 0 -3 -17 1 -37 9 -21 8 -47 16 -58 18 -11 1 -24
5 -30 8 -8 5 -131 45 -165 54 -23 6 -106 32 -155 48 -33 10 -64 20 -70 21 -5
1 -39 12 -75 23 -36 12 -130 42 -210 67 -80 26 -151 50 -158 54 -10 7 -12 80
-10 359 l3 350 28 36 c33 43 53 56 96 59 17 1 31 5 31 9 0 4 8 5 18 3 9 -2 82
-6 162 -8 162 -4 162 -4 207 -31 56 -33 65 -73 66 -318 2 -190 4 -219 20 -237
17 -20 27 -20 295 -19 226 0 281 3 297 15 19 14 20 26 19 272 -1 474 -13 549
-109 688 -53 76 -181 163 -280 189 -16 5 -34 9 -40 11 -81 23 -147 27 -458 28
-170 1 -309 1 -310 0z"/>
<path d="M2429 5292 c-43 -9 -42 39 -44 -1795 0 -958 2 -1757 6 -1776 4 -18
13 -39 19 -45 8 -8 259 -11 920 -11 860 0 910 1 927 18 16 16 18 42 19 276 1
283 0 288 -58 300 -18 4 -295 7 -615 6 l-583 0 0 457 0 458 453 1 c248 0 461
2 472 4 49 9 52 25 50 296 -1 140 -3 259 -4 266 -4 35 -38 38 -506 38 l-460 1
-2 29 c-4 83 -3 868 1 873 4 3 275 6 604 6 379 1 603 5 613 11 32 20 36 51 34
301 -1 232 -2 252 -20 270 -18 18 -48 19 -914 19 -493 1 -903 -1 -912 -3z"/>
<path d="M5990 5261 c0 -3 -21 -7 -48 -8 -68 -3 -125 -10 -142 -16 -8 -3 -22
-5 -30 -6 -55 -1 -337 -83 -439 -128 -84 -37 -165 -76 -171 -83 -3 -3 -20 -12
-37 -19 -18 -8 -33 -16 -33 -20 0 -4 -12 -12 -27 -19 -32 -13 -126 -81 -131
-94 -2 -4 -8 -8 -13 -8 -27 0 -289 -253 -289 -280 0 -5 -4 -10 -9 -10 -9 0
-131 -165 -131 -177 0 -3 -11 -20 -24 -38 -23 -30 -135 -251 -140 -277 -2 -7
-9 -26 -15 -43 -7 -16 -14 -38 -16 -47 -2 -9 -9 -27 -16 -40 -7 -13 -11 -23
-9 -23 1 0 -7 -40 -18 -90 -36 -157 -47 -256 -45 -425 2 -116 29 -318 53 -395
5 -16 17 -55 25 -85 9 -30 19 -62 22 -70 3 -8 7 -20 8 -27 5 -22 79 -189 108
-243 40 -74 147 -234 194 -290 40 -48 168 -176 223 -224 73 -64 348 -246 380
-252 3 0 34 -14 70 -31 103 -49 201 -87 300 -114 25 -7 50 -14 55 -16 20 -6
122 -25 210 -37 156 -24 448 -15 608 17 32 6 44 28 46 85 1 13 5 20 11 17 6
-3 10 -35 10 -70 0 -60 2 -65 25 -71 13 -3 505 -4 1092 -2 975 3 1070 5 1091
20 l24 16 -23 12 c-12 7 -55 13 -93 13 -39 0 -73 4 -76 8 -3 4 -5 245 -4 536
1 290 -3 535 -7 544 -7 14 -41 16 -303 15 -162 0 -298 -4 -302 -9 -4 -4 -8
-250 -8 -547 0 -297 -3 -540 -6 -541 -3 0 -13 -2 -24 -4 -48 -9 -46 -35 -46
639 0 549 2 639 16 686 9 29 18 63 20 74 2 12 6 32 9 46 23 109 29 178 29 335
0 183 -7 248 -45 400 -11 44 -21 87 -23 95 -7 29 -78 205 -102 252 -24 47 -24
49 -24 376 -1 298 -2 332 -19 362 -23 44 -64 66 -120 67 -61 1 -121 -34 -121
-71 0 -9 -4 -16 -9 -16 -5 0 -9 -24 -9 -52 0 -29 -1 -73 -1 -97 l-1 -44 -23
21 c-13 12 -27 19 -32 15 -4 -5 -6 -3 -2 3 3 5 -5 19 -19 29 -14 10 -34 26
-44 34 -10 9 -28 23 -40 31 -12 8 -28 20 -34 25 -24 22 -115 84 -147 101 -19
9 -36 20 -39 24 -5 8 -177 96 -250 128 -135 59 -362 118 -485 127 -22 2 -40 4
-40 5 0 1 -73 3 -162 5 -90 1 -163 -1 -163 -4z m-5 -141 c5 8 12 7 22 -1 12
-11 11 -14 -9 -25 -13 -8 -19 -13 -15 -14 22 -1 46 21 40 38 -6 15 -5 15 11 3
14 -12 19 -12 25 -2 11 18 13 18 38 -4 19 -16 21 -21 8 -28 -31 -17 -123 -26
-143 -13 -7 4 -12 3 -12 -2 0 -5 -18 -8 -41 -8 -22 1 -42 -1 -44 -5 -3 -3 -18
-6 -35 -7 -17 0 -28 4 -25 9 4 5 1 9 -4 9 -6 0 -11 -7 -11 -15 0 -8 -6 -15
-12 -16 -32 -1 -85 -10 -115 -18 -36 -10 -56 4 -32 21 12 8 11 9 -1 5 -8 -2
-15 -12 -15 -23 0 -18 -7 -20 -46 -15 -5 0 -7 5 -4 11 4 6 -1 7 -11 3 -15 -5
-15 -7 0 -15 20 -11 11 -29 -10 -21 -9 3 -20 0 -25 -8 -7 -12 -9 -12 -9 1 -1
11 -4 10 -16 -5 -12 -16 -16 -17 -24 -6 -4 8 -16 16 -24 17 -9 1 -14 -2 -10
-7 3 -5 10 -7 15 -4 5 4 9 -1 9 -10 0 -9 -4 -13 -10 -10 -5 3 -10 1 -10 -5 0
-6 -4 -9 -9 -6 -4 3 -25 -4 -47 -14 -21 -11 -44 -20 -52 -20 -7 0 -11 -4 -8
-9 3 -4 -4 -8 -15 -7 -11 0 -24 8 -29 16 -6 9 -10 10 -10 3 0 -6 5 -15 10 -18
15 -9 2 -25 -21 -25 -11 0 -22 -7 -25 -15 -5 -11 -10 -13 -19 -5 -9 7 -16 6
-25 -5 -8 -9 -21 -13 -34 -10 -20 6 -20 5 -2 -6 15 -9 16 -13 5 -20 -8 -5 -17
-3 -21 4 -5 8 -8 3 -8 -11 0 -13 -4 -20 -10 -17 -6 3 -13 0 -16 -8 -3 -9 -19
-21 -35 -27 -16 -7 -29 -20 -30 -29 0 -10 -2 -11 -6 -3 -2 6 -10 12 -16 12 -5
0 -8 -3 -4 -6 12 -12 -67 -74 -88 -69 -11 3 -14 2 -7 -1 17 -8 15 -24 -4 -24
-9 0 -12 -5 -8 -12 4 -7 3 -8 -4 -4 -7 4 -12 2 -12 -4 0 -6 -4 -9 -8 -6 -4 2
-14 -9 -22 -27 -12 -28 -14 -29 -21 -11 -7 17 -8 17 -8 -4 -1 -15 -5 -21 -12
-16 -7 4 -10 1 -7 -7 6 -17 -31 -51 -45 -42 -6 3 -7 1 -3 -6 4 -6 -4 -25 -18
-42 -14 -17 -26 -35 -26 -40 0 -5 -7 -9 -16 -9 -8 0 -13 -4 -10 -9 9 -15 -23
-36 -36 -23 -12 12 38 91 74 117 13 8 19 15 15 15 -5 0 -2 7 7 15 17 17 30 20
21 5 -3 -5 -1 -10 4 -10 14 0 14 13 -1 28 -7 7 -8 12 -2 12 14 0 83 67 78 74
-2 3 -2 5 1 3 3 -2 33 23 67 55 35 32 69 58 76 58 6 0 12 4 12 9 0 9 75 61 87
61 5 -1 -3 -10 -16 -20 -16 -14 -19 -20 -8 -20 13 0 29 21 31 42 1 4 19 20 40
34 21 15 36 20 32 13 -4 -8 2 -3 13 11 11 14 21 19 21 13 0 -7 4 -13 10 -13 5
0 6 7 3 17 -4 11 -3 14 5 9 7 -4 15 -1 18 8 3 8 19 19 36 25 41 15 47 13 24
-4 -11 -8 -15 -15 -9 -15 6 0 16 7 23 15 11 13 15 13 22 3 7 -10 8 -10 5 2 -2
8 -10 14 -16 12 -6 -1 -11 2 -11 7 0 5 13 12 30 16 16 4 32 11 35 16 4 5 15 9
26 9 10 0 19 5 19 12 0 6 3 9 6 5 3 -3 25 2 47 12 23 10 48 16 56 13 8 -2 11
0 8 5 -3 5 3 9 13 10 10 1 21 -6 23 -15 3 -9 6 -3 7 13 1 17 4 24 7 17 4 -10
8 -10 19 -1 8 6 27 9 43 7 17 -2 28 -1 25 4 -5 7 1 9 39 12 6 1 12 -5 12 -13
0 -8 7 -16 15 -18 9 -3 11 -1 5 4 -23 19 -13 39 17 34 4 0 19 4 33 9 20 8 24
7 19 -3 -5 -8 -2 -8 9 2 11 9 17 10 17 2 0 -6 5 -11 11 -11 5 0 7 5 4 10 -3 6
3 10 14 10 10 0 28 3 38 6 15 5 15 4 3 -5 -11 -8 -11 -11 -2 -11 7 0 15 7 18
15 5 11 11 12 24 5 13 -7 21 -7 25 0z m225 -167 c25 0 154 -14 170 -18 8 -2
31 -6 51 -9 79 -12 199 -48 289 -88 25 -11 50 -21 56 -22 6 -1 24 -10 39 -20
15 -10 33 -19 39 -20 25 -5 187 -111 284 -186 82 -64 93 -87 32 -65 -22 8 -40
12 -40 10 0 -3 -12 0 -27 6 -39 14 -112 19 -140 8 -51 -19 -98 -93 -90 -139 6
-30 37 -77 61 -93 20 -13 257 -84 346 -103 14 -3 57 -14 95 -25 39 -11 88 -24
110 -30 22 -6 52 -15 66 -19 55 -17 142 3 162 36 17 29 36 12 62 -53 15 -38
33 -81 40 -98 22 -48 64 -202 82 -300 24 -130 21 -495 -3 -536 -2 -4 -6 -26
-9 -50 -9 -67 -15 -59 -15 17 0 38 -5 76 -10 84 -8 13 -53 15 -304 15 -162 0
-298 -4 -302 -8 -4 -4 -8 -259 -8 -568 l-1 -561 -37 -34 c-21 -19 -42 -34 -48
-34 -7 0 -10 145 -10 428 0 235 -4 433 -9 440 -6 10 -71 13 -302 12 -161 0
-297 -4 -301 -8 -4 -4 -9 -262 -10 -572 -2 -388 -6 -564 -14 -567 -7 -2 -10
22 -9 73 2 83 -9 106 -48 98 -20 -3 -51 -9 -112 -20 -120 -22 -302 -21 -480 2
-89 11 -279 63 -363 99 -375 163 -645 407 -813 735 -18 36 -34 67 -34 70 -1 3
-7 19 -14 35 -17 39 -51 136 -56 155 -2 8 -10 42 -18 75 -25 96 -32 170 -32
335 0 146 7 236 19 270 3 8 8 26 10 40 22 109 57 210 112 326 143 299 392 549
701 703 108 54 286 119 348 128 22 3 45 9 51 14 6 5 13 7 15 5 2 -2 24 0 49 4
67 13 185 24 267 24 47 0 69 4 65 11 -3 6 0 6 9 -1 8 -6 21 -11 29 -11z
m-1006 -118 c-4 -8 -11 -15 -16 -15 -6 0 -5 6 2 15 7 8 14 15 16 15 2 0 1 -7
-2 -15z m-545 -506 c-5 -11 -14 -19 -18 -19 -13 0 -21 39 -10 46 5 3 6 11 2
17 -3 7 3 4 15 -7 17 -14 19 -23 11 -37z m-34 -40 c-5 -7 -11 -6 -20 1 -11 9
-12 15 -2 25 10 11 13 10 20 -1 4 -8 5 -19 2 -25z m-19 -14 c3 -8 -3 -27 -15
-43 -11 -16 -18 -32 -14 -36 3 -3 -1 -6 -10 -6 -9 0 -19 -5 -23 -12 -4 -7 -3
-8 4 -4 7 4 12 2 12 -3 0 -6 -5 -11 -11 -11 -5 0 -7 -4 -4 -10 8 -13 -5 -13
-25 0 -8 5 -10 10 -4 10 5 0 16 16 24 35 7 19 17 32 21 30 4 -3 10 2 13 11 3
8 2 12 -4 9 -6 -3 -10 -2 -10 3 0 6 7 13 16 16 8 3 12 10 9 16 -3 5 -1 10 5
10 6 0 13 -7 16 -15z m-71 -145 c3 -5 1 -10 -5 -10 -6 0 -8 -4 -5 -10 3 -5 1
-10 -4 -10 -6 0 -10 -3 -9 -7 2 -5 -6 -28 -16 -53 -11 -25 -19 -49 -18 -53 1
-4 -5 -10 -13 -13 -8 -4 -15 -10 -15 -16 0 -5 4 -6 10 -3 5 3 3 -10 -5 -28 -8
-19 -11 -38 -7 -42 4 -5 1 -5 -7 0 -11 6 -13 3 -9 -13 4 -12 2 -22 -3 -22 -4
0 -6 -7 -3 -15 4 -8 2 -15 -4 -15 -5 0 -8 -11 -7 -25 2 -14 -1 -25 -7 -25 -5
0 -6 -9 -3 -20 4 -11 2 -20 -4 -20 -6 0 -11 -5 -11 -11 0 -5 5 -7 11 -3 7 4 7
-1 -1 -16 -6 -12 -9 -28 -6 -36 3 -8 2 -14 -3 -14 -5 0 -9 -15 -9 -32 -2 -135
-7 -236 -12 -228 -7 11 -3 185 5 250 3 25 5 57 5 73 0 15 4 27 8 27 5 0 8 11
7 25 -2 14 0 25 5 25 4 0 6 9 3 20 -3 11 -1 20 4 20 5 0 9 10 8 23 -2 25 14
68 30 79 6 5 6 8 -2 8 -6 0 -9 9 -6 20 3 11 10 20 15 20 5 0 7 4 3 9 -3 5 0
13 6 16 5 4 8 13 5 21 -3 8 -1 14 5 14 6 0 8 4 5 8 -3 5 4 23 15 41 11 18 17
36 14 42 -4 5 1 9 9 9 8 0 18 -4 21 -10z m-151 -796 c3 -8 2 -12 -4 -9 -6 3
-10 10 -10 16 0 14 7 11 14 -7z m3422 -304 c1 -166 -8 -224 -43 -275 -15 -22
-14 -35 -14 205 1 115 -2 149 -14 165 -14 17 -17 18 -25 5 -12 -19 -12 -1 -14
-266 -2 -170 -6 -239 -16 -265 -32 -77 -161 -242 -279 -356 -47 -45 -87 -80
-90 -77 -5 5 -9 1003 -3 1021 3 8 70 11 250 10 l247 -2 1 -165z m-3382 44 c3
-8 2 -12 -4 -9 -6 3 -10 10 -10 16 0 14 7 11 14 -7z m34 -149 c-3 -3 -9 2 -12
12 -6 14 -5 15 5 6 7 -7 10 -15 7 -18z m26 -65 c5 -17 4 -20 -2 -10 -5 8 -13
26 -16 40 -5 17 -4 20 2 10 5 -8 13 -26 16 -40z m2596 10 c11 -7 14 -83 15
-422 1 -436 -1 -459 -45 -471 -20 -5 -20 -3 -20 408 0 428 -2 449 -40 425 -13
-8 -15 -72 -16 -435 -1 -352 -3 -429 -15 -440 -21 -21 -352 -143 -364 -134 -6
5 -9 191 -8 531 1 287 2 528 2 534 1 13 470 17 491 4z m-2567 -72 c6 -22 5
-22 -8 -4 -17 22 -20 40 -6 32 5 -3 11 -16 14 -28z m12 -37 c-3 -5 -1 -12 5
-16 5 -3 17 -23 27 -43 9 -20 25 -49 35 -64 11 -16 16 -28 13 -28 -8 0 -35 27
-37 37 -3 19 -39 93 -48 98 -13 8 -13 25 1 25 5 0 8 -4 4 -9z m3283 -551 c0
-493 -2 -540 -17 -541 -60 -4 -465 -3 -472 2 -5 3 -9 103 -9 224 l-1 218 108
107 c110 109 147 149 185 204 12 17 25 33 29 36 4 3 15 20 26 39 10 19 24 36
29 38 7 2 11 -119 11 -377 0 -324 2 -383 15 -396 34 -34 37 0 40 457 3 407 5
448 22 487 11 23 23 42 27 42 4 0 7 -243 7 -540z m692 491 c3 0 5 -234 5 -518
l0 -518 -247 0 c-137 -1 -249 2 -249 5 -7 28 -2 1027 4 1031 7 5 469 5 487 0z
m-3862 -139 c6 -16 21 -38 32 -50 12 -12 17 -22 13 -22 -4 0 -3 -4 2 -8 24
-17 104 -120 98 -126 -3 -3 0 -6 7 -6 15 0 144 -129 137 -137 -3 -2 -31 20
-62 51 -32 31 -54 56 -49 56 5 1 -1 6 -13 13 -12 7 -21 15 -20 18 1 3 -10 17
-25 31 -16 14 -28 28 -28 32 0 4 -9 17 -21 29 -12 12 -38 47 -58 77 -52 76
-54 81 -39 75 7 -3 19 -18 26 -33z m308 -369 c-10 -10 -19 5 -10 18 6 11 8 11
12 0 2 -7 1 -15 -2 -18z m92 -55 c26 -16 31 -23 20 -30 -9 -6 -6 -7 10 -3 18
5 22 2 22 -17 0 -17 3 -19 9 -9 7 12 12 11 30 -1 11 -8 18 -18 14 -21 -3 -4 3
-7 14 -7 11 0 26 -7 33 -15 7 -8 18 -15 26 -15 7 0 12 -9 11 -20 -2 -23 -17
-27 -17 -4 0 8 -4 12 -10 9 -5 -3 -10 -1 -10 5 0 6 -5 8 -12 4 -7 -5 -9 -2 -5
8 4 11 1 14 -11 11 -10 -2 -27 5 -38 16 -12 11 -24 17 -28 14 -3 -3 -8 2 -12
11 -3 9 -11 16 -16 16 -15 0 -58 37 -51 44 3 3 -1 6 -11 6 -9 0 -19 7 -22 15
-4 8 -12 15 -20 15 -14 0 -19 12 -8 23 3 3 16 -3 28 -14 11 -11 36 -30 54 -41z
m2205 -261 c-1 -100 -2 -190 -2 -199 -1 -14 -10 -18 -46 -18 l-45 0 0 168 c0
92 4 172 8 177 12 18 64 55 76 55 8 0 11 -54 9 -183z m-1993 123 c0 -5 -5 -10
-11 -10 -5 0 -7 5 -4 10 3 6 8 10 11 10 2 0 4 -4 4 -10z m30 -16 c0 5 8 2 18
-7 9 -8 22 -17 27 -18 36 -8 45 -12 45 -21 0 -5 5 -6 10 -3 6 3 10 -2 11 -12
0 -10 3 -13 6 -5 2 6 9 12 15 12 6 0 8 -7 4 -15 -3 -8 -1 -15 4 -15 6 0 10 5
10 10 0 6 14 4 34 -4 19 -8 37 -12 40 -8 3 3 6 0 6 -7 0 -7 5 -9 10 -6 6 3 10
1 10 -5 0 -7 7 -10 15 -6 8 3 15 1 15 -4 0 -6 -5 -10 -12 -10 -6 0 -8 -3 -5
-6 4 -4 12 -2 20 4 10 8 20 8 39 -3 20 -10 28 -10 32 -2 2 7 5 4 5 -5 1 -10 6
-18 12 -18 5 0 7 5 4 10 -3 6 -2 10 4 10 18 0 23 -20 7 -26 -9 -3 -13 -10 -10
-15 3 -5 -2 -6 -10 -3 -9 3 -16 11 -16 18 0 6 -5 4 -10 -4 -8 -13 -10 -12 -10
3 0 9 -2 17 -4 17 -2 0 -13 3 -23 6 -16 6 -16 5 2 -10 17 -13 12 -13 -35 3
-30 10 -68 25 -85 32 -16 7 -32 13 -35 14 -53 20 -70 29 -70 36 0 6 -6 9 -12
8 -28 -3 -38 2 -38 19 0 14 -2 15 -10 2 -6 -10 -10 -11 -10 -3 0 7 -11 15 -25
19 -21 5 -23 9 -14 21 10 11 14 11 20 1 5 -7 9 -9 9 -4z m1810 -174 l0 -150
-250 0 -250 0 0 49 c0 44 3 50 28 59 15 6 36 14 47 18 11 4 22 8 25 8 7 2 129
46 155 56 11 4 44 17 73 28 58 23 52 29 56 -58 3 -67 4 -70 25 -70 25 0 31 19
31 105 0 65 3 76 22 89 12 9 26 16 30 16 5 0 8 -67 8 -150z m-1290 4 c19 -2
46 -6 60 -7 14 -1 29 -6 33 -12 6 -7 10 -6 13 2 4 8 13 9 27 4 12 -5 53 -8 90
-7 43 1 72 -3 78 -11 16 -18 4 -29 -35 -31 -27 -2 -34 1 -30 12 3 8 1 17 -4
20 -5 3 -9 -2 -8 -12 2 -26 -71 -26 -77 0 -5 19 -37 15 -37 -4 0 -6 6 -5 15 2
12 10 15 10 15 -3 0 -9 -7 -14 -17 -12 -10 2 -18 4 -18 5 0 1 -25 3 -55 6 -63
5 -67 8 -50 29 7 8 8 15 2 15 -5 0 -13 -7 -16 -16 -5 -13 -14 -15 -39 -10 -17
4 -40 9 -51 11 -27 6 -31 12 -17 29 9 10 20 12 49 5 20 -5 53 -12 72 -15z"/>
<path d="M5950 5100 c0 -5 5 -10 10 -10 6 0 10 5 10 10 0 6 -4 10 -10 10 -5 0
-10 -4 -10 -10z"/>
<path d="M6070 5100 c0 -5 5 -10 10 -10 6 0 10 5 10 10 0 6 -4 10 -10 10 -5 0
-10 -4 -10 -10z"/>
<path d="M6038 5083 c7 -3 16 -2 19 1 4 3 -2 6 -13 5 -11 0 -14 -3 -6 -6z"/>
<path d="M5828 5073 c6 -2 18 -2 25 0 6 3 1 5 -13 5 -14 0 -19 -2 -12 -5z"/>
<path d="M5653 5045 c0 -8 4 -15 9 -15 4 0 8 4 8 9 0 6 -4 12 -8 15 -5 3 -9
-1 -9 -9z"/>
<path d="M5510 5010 c0 -5 5 -10 11 -10 5 0 7 5 4 10 -3 6 -8 10 -11 10 -2 0
-4 -4 -4 -10z"/>
<path d="M5475 5000 c-3 -5 -1 -10 4 -10 6 0 11 5 11 10 0 6 -2 10 -4 10 -3 0
-8 -4 -11 -10z"/>
<path d="M5380 4960 c0 -5 5 -10 10 -10 6 0 10 5 10 10 0 6 -4 10 -10 10 -5 0
-10 -4 -10 -10z"/>
<path d="M5356 4947 c3 -10 9 -15 12 -12 3 3 0 11 -7 18 -10 9 -11 8 -5 -6z"/>
<path d="M5035 4759 c-4 -6 -4 -13 -1 -16 3 -4 6 -1 6 6 0 7 5 9 12 5 7 -4 8
-3 4 4 -9 15 -13 15 -21 1z"/>
<path d="M4980 4720 c-9 -6 -10 -10 -3 -10 6 0 15 5 18 10 8 12 4 12 -15 0z"/>
<path d="M4946 4684 c-11 -8 -16 -14 -10 -14 13 0 39 18 34 24 -3 2 -14 -2
-24 -10z"/>
<path d="M4740 4470 c-9 -6 -10 -10 -3 -10 6 0 15 5 18 10 8 12 4 12 -15 0z"/>
<path d="M4700 4419 c0 -5 5 -7 10 -4 6 3 10 8 10 11 0 2 -4 4 -10 4 -5 0 -10
-5 -10 -11z"/>
<path d="M4670 4379 c0 -5 5 -7 10 -4 6 3 10 8 10 11 0 2 -4 4 -10 4 -5 0 -10
-5 -10 -11z"/>
<path d="M5165 4318 c6 -29 181 -198 205 -198 10 0 20 7 23 15 6 13 -20 41
-151 165 -49 45 -83 54 -77 18z"/>
<path d="M6088 4279 c-16 -9 -18 -36 -18 -311 0 -275 -1 -302 -17 -314 -10 -7
-26 -14 -37 -14 -30 0 -103 -80 -115 -128 -7 -23 -17 -43 -24 -43 -7 -1 -117
-2 -244 -3 -243 -2 -270 -6 -247 -43 9 -14 40 -16 253 -16 167 0 246 -3 252
-11 5 -6 23 -30 39 -53 38 -54 96 -84 163 -85 226 -4 295 288 91 378 -35 15
-54 30 -55 41 0 10 -1 147 -2 305 -1 176 -6 291 -12 297 -7 6 -16 6 -27 0z"/>
<path d="M4858 3460 c-75 -6 -89 -13 -66 -37 21 -21 258 -24 283 -3 11 10 13
16 5 24 -14 14 -134 23 -222 16z"/>
<path d="M7203 3460 c-70 -6 -93 -19 -68 -40 22 -19 258 -18 280 0 40 33 -61
52 -212 40z"/>
<path d="M5261 2664 c-97 -92 -118 -125 -87 -137 15 -6 216 180 216 200 0 6
-6 16 -14 22 -11 9 -34 -8 -115 -85z"/>
<path d="M6091 2446 c-19 -23 -20 -249 -1 -271 11 -13 16 -14 26 -3 14 14 16
43 15 169 -1 94 -16 134 -40 105z"/>
<path d="M8388 2648 c-2 -7 -4 -205 -3 -440 0 -381 2 -430 17 -444 15 -15 17
-15 29 7 9 18 12 106 11 354 0 181 -1 332 -2 335 -6 16 -4 46 3 51 4 3 4 17
-1 30 -5 13 -6 33 -2 44 11 30 -4 70 -27 73 -11 2 -22 -3 -25 -10z"/>
<path d="M5450 1889 c0 -5 5 -7 10 -4 6 3 10 8 10 11 0 2 -4 4 -10 4 -5 0 -10
-5 -10 -11z"/>
<path d="M5494 1876 c11 -9 24 -16 30 -16 12 0 7 5 -24 19 -24 11 -24 11 -6
-3z"/>
<path d="M5720 1813 c8 -3 19 -11 23 -17 6 -7 7 -6 4 4 -2 8 -12 16 -23 17
-13 2 -15 1 -4 -4z"/>
<path d="M5820 1790 c-9 -6 -10 -10 -3 -10 6 0 15 5 18 10 8 12 4 12 -15 0z"/>
<path d="M5870 1779 c0 -5 5 -7 10 -4 6 3 10 8 10 11 0 2 -4 4 -10 4 -5 0 -10
-5 -10 -11z"/>
<path d="M6086 1777 c3 -10 9 -15 12 -12 3 3 0 11 -7 18 -10 9 -11 8 -5 -6z"/>
<path d="M5970 1769 c0 -5 5 -7 10 -4 6 3 10 8 10 11 0 2 -4 4 -10 4 -5 0 -10
-5 -10 -11z"/>
<path d="M6050 1776 c0 -2 7 -7 16 -10 8 -3 12 -2 9 4 -6 10 -25 14 -25 6z"/>
</g>
</svg>
