<svg xmlns="http://www.w3.org/2000/svg" xmlns:xlink="http://www.w3.org/1999/xlink" viewBox="0 0 62.48 69.95"><defs><style>.cls-1{isolation:isolate;}.cls-2{fill:url(#linear-gradient);}.cls-3{mix-blend-mode:multiply;opacity:0.3;}.cls-4{fill:url(#linear-gradient-2);}.cls-5{fill:url(#linear-gradient-3);}.cls-6{fill:url(#linear-gradient-4);}.cls-7{fill:url(#linear-gradient-5);}.cls-8{fill:url(#linear-gradient-6);}.cls-9{fill:url(#linear-gradient-7);}.cls-10{fill:url(#linear-gradient-8);}.cls-11{fill:url(#linear-gradient-9);}.cls-12{fill:url(#linear-gradient-10);}.cls-13{fill:url(#linear-gradient-11);}.cls-14{fill:url(#linear-gradient-12);}.cls-15{fill:url(#linear-gradient-13);}.cls-16{fill:url(#linear-gradient-14);}.cls-17{fill:url(#linear-gradient-15);}.cls-18{fill:url(#linear-gradient-16);}.cls-19{fill:url(#linear-gradient-17);}.cls-20{fill:url(#linear-gradient-18);}.cls-21{fill:url(#linear-gradient-19);}.cls-22{fill:url(#linear-gradient-20);}.cls-23{fill:url(#linear-gradient-21);}.cls-24{fill:url(#linear-gradient-22);}.cls-25{fill:url(#linear-gradient-23);}.cls-26{fill:url(#linear-gradient-24);}.cls-27{fill:url(#linear-gradient-25);}.cls-28{fill:url(#linear-gradient-26);}.cls-29{fill:url(#linear-gradient-27);}.cls-30{fill:url(#linear-gradient-28);}.cls-31{fill:url(#linear-gradient-29);}.cls-32{fill:url(#linear-gradient-30);}.cls-33{fill:url(#linear-gradient-31);}.cls-34{fill:url(#linear-gradient-32);}.cls-35{fill:url(#linear-gradient-33);}.cls-36{fill:url(#linear-gradient-34);}.cls-37{mix-blend-mode:screen;}.cls-38{fill:url(#linear-gradient-35);}.cls-39{fill:url(#linear-gradient-36);}</style><linearGradient id="linear-gradient" x1="37.78" y1="66.83" x2="37.78" y2="-1.07" gradientUnits="userSpaceOnUse"><stop offset="0" stop-color="#667eea"/><stop offset="1"/></linearGradient><linearGradient id="linear-gradient-2" x1="6.76" y1="39.81" x2="41.55" y2="39.81" xlink:href="#linear-gradient"/><linearGradient id="linear-gradient-3" x1="6.55" y1="39.66" x2="41.33" y2="39.66" xlink:href="#linear-gradient"/><linearGradient id="linear-gradient-4" x1="6.33" y1="39.5" x2="41.11" y2="39.5" xlink:href="#linear-gradient"/><linearGradient id="linear-gradient-5" x1="6.11" y1="39.35" x2="40.9" y2="39.35" xlink:href="#linear-gradient"/><linearGradient id="linear-gradient-6" x1="5.89" y1="39.19" x2="40.68" y2="39.19" xlink:href="#linear-gradient"/><linearGradient id="linear-gradient-7" x1="5.67" y1="39.03" x2="40.46" y2="39.03" xlink:href="#linear-gradient"/><linearGradient id="linear-gradient-8" x1="5.46" y1="38.88" x2="40.24" y2="38.88" xlink:href="#linear-gradient"/><linearGradient id="linear-gradient-9" x1="5.24" y1="38.72" x2="40.02" y2="38.72" xlink:href="#linear-gradient"/><linearGradient id="linear-gradient-10" x1="5.02" y1="38.57" x2="39.81" y2="38.57" xlink:href="#linear-gradient"/><linearGradient id="linear-gradient-11" x1="4.8" y1="38.41" x2="39.59" y2="38.41" xlink:href="#linear-gradient"/><linearGradient id="linear-gradient-12" x1="4.58" y1="38.25" x2="39.37" y2="38.25" xlink:href="#linear-gradient"/><linearGradient id="linear-gradient-13" x1="4.36" y1="38.1" x2="39.15" y2="38.1" xlink:href="#linear-gradient"/><linearGradient id="linear-gradient-14" x1="4.15" y1="37.94" x2="38.93" y2="37.94" xlink:href="#linear-gradient"/><linearGradient id="linear-gradient-15" x1="3.93" y1="37.79" x2="38.71" y2="37.79" xlink:href="#linear-gradient"/><linearGradient id="linear-gradient-16" x1="3.71" y1="37.63" x2="38.5" y2="37.63" xlink:href="#linear-gradient"/><linearGradient id="linear-gradient-17" x1="3.49" y1="37.47" x2="38.28" y2="37.47" xlink:href="#linear-gradient"/><linearGradient id="linear-gradient-18" x1="3.27" y1="37.32" x2="38.06" y2="37.32" xlink:href="#linear-gradient"/><linearGradient id="linear-gradient-19" x1="3.06" y1="37.16" x2="37.84" y2="37.16" xlink:href="#linear-gradient"/><linearGradient id="linear-gradient-20" x1="2.84" y1="37.01" x2="37.62" y2="37.01" xlink:href="#linear-gradient"/><linearGradient id="linear-gradient-21" x1="2.62" y1="36.85" x2="37.4" y2="36.85" xlink:href="#linear-gradient"/><linearGradient id="linear-gradient-22" x1="2.4" y1="36.69" x2="37.19" y2="36.69" xlink:href="#linear-gradient"/><linearGradient id="linear-gradient-23" x1="2.18" y1="36.54" x2="36.97" y2="36.54" xlink:href="#linear-gradient"/><linearGradient id="linear-gradient-24" x1="1.96" y1="36.38" x2="36.75" y2="36.38" xlink:href="#linear-gradient"/><linearGradient id="linear-gradient-25" x1="1.75" y1="36.23" x2="36.53" y2="36.23" xlink:href="#linear-gradient"/><linearGradient id="linear-gradient-26" x1="1.53" y1="36.07" x2="36.31" y2="36.07" xlink:href="#linear-gradient"/><linearGradient id="linear-gradient-27" x1="1.31" y1="35.91" x2="36.1" y2="35.91" xlink:href="#linear-gradient"/><linearGradient id="linear-gradient-28" x1="1.09" y1="35.76" x2="35.88" y2="35.76" xlink:href="#linear-gradient"/><linearGradient id="linear-gradient-29" x1="0.87" y1="35.6" x2="35.66" y2="35.6" xlink:href="#linear-gradient"/><linearGradient id="linear-gradient-30" x1="0.65" y1="35.45" x2="35.44" y2="35.45" xlink:href="#linear-gradient"/><linearGradient id="linear-gradient-31" x1="0.44" y1="35.29" x2="35.22" y2="35.29" xlink:href="#linear-gradient"/><linearGradient id="linear-gradient-32" x1="0.22" y1="35.13" x2="35" y2="35.13" xlink:href="#linear-gradient"/><linearGradient id="linear-gradient-33" x1="0" y1="34.98" x2="34.79" y2="34.98" xlink:href="#linear-gradient"/><linearGradient id="linear-gradient-34" x1="17.39" y1="65.15" x2="17.39" y2="0.83" xlink:href="#linear-gradient"/><linearGradient id="linear-gradient-35" x1="37.78" y1="6.64" x2="37.78" y2="42.94" xlink:href="#linear-gradient"/><linearGradient id="linear-gradient-36" x1="17.39" y1="6.64" x2="17.39" y2="42.94" xlink:href="#linear-gradient"/></defs><g class="cls-1"><g id="Layer_2" data-name="Layer 2"><g id="Layer_1-2" data-name="Layer 1"><polygon class="cls-2" points="13.08 0 13.08 10.57 47.56 34.98 13.08 59.39 13.08 69.95 62.48 34.98 13.08 0"/><g class="cls-3"><polygon class="cls-4" points="6.76 15.19 6.76 64.44 41.55 39.81 6.76 15.19"/><polygon class="cls-5" points="6.55 15.03 6.55 64.29 41.33 39.66 6.55 15.03"/><polygon class="cls-6" points="6.33 14.87 6.33 64.13 41.12 39.5 6.33 14.87"/><polygon class="cls-7" points="6.11 14.72 6.11 63.98 40.9 39.35 6.11 14.72"/><polygon class="cls-8" points="5.89 14.56 5.89 63.82 40.68 39.19 5.89 14.56"/><polygon class="cls-9" points="5.67 14.4 5.67 63.66 40.46 39.03 5.67 14.4"/><polygon class="cls-10" points="5.46 14.25 5.46 63.51 40.24 38.88 5.46 14.25"/><polygon class="cls-11" points="5.24 14.09 5.24 63.35 40.02 38.72 5.24 14.09"/><polygon class="cls-12" points="5.02 13.94 5.02 63.2 39.8 38.57 5.02 13.94"/><polygon class="cls-13" points="4.8 13.78 4.8 63.04 39.59 38.41 4.8 13.78"/><polygon class="cls-14" points="4.58 13.63 4.58 62.88 39.37 38.25 4.58 13.63"/><polygon class="cls-15" points="4.36 13.47 4.36 62.73 39.15 38.1 4.36 13.47"/><polygon class="cls-16" points="4.15 13.31 4.15 62.57 38.93 37.94 4.15 13.31"/><polygon class="cls-17" points="3.93 13.16 3.93 62.42 38.71 37.79 3.93 13.16"/><polygon class="cls-18" points="3.71 13 3.71 62.26 38.5 37.63 3.71 13"/><polygon class="cls-19" points="3.49 12.85 3.49 62.1 38.28 37.47 3.49 12.85"/><polygon class="cls-20" points="3.27 12.69 3.27 61.95 38.06 37.32 3.27 12.69"/><polygon class="cls-21" points="3.06 12.53 3.06 61.79 37.84 37.16 3.06 12.53"/><polygon class="cls-22" points="2.84 12.38 2.84 61.63 37.62 37.01 2.84 12.38"/><polygon class="cls-23" points="2.62 12.22 2.62 61.48 37.41 36.85 2.62 12.22"/><polygon class="cls-24" points="2.4 12.06 2.4 61.32 37.19 36.69 2.4 12.06"/><polygon class="cls-25" points="2.18 11.91 2.18 61.17 36.97 36.54 2.18 11.91"/><polygon class="cls-26" points="1.96 11.75 1.96 61.01 36.75 36.38 1.96 11.75"/><polygon class="cls-27" points="1.75 11.6 1.75 60.85 36.53 36.23 1.75 11.6"/><polygon class="cls-28" points="1.53 11.44 1.53 60.7 36.31 36.07 1.53 11.44"/><polygon class="cls-29" points="1.31 11.28 1.31 60.54 36.09 35.91 1.31 11.28"/><polygon class="cls-30" points="1.09 11.13 1.09 60.39 35.88 35.76 1.09 11.13"/><polygon class="cls-31" points="0.87 10.97 0.87 60.23 35.66 35.6 0.87 10.97"/><polygon class="cls-32" points="0.66 10.82 0.66 60.08 35.44 35.45 0.66 10.82"/><polygon class="cls-33" points="0.44 10.66 0.44 59.92 35.22 35.29 0.44 10.66"/><polygon class="cls-34" points="0.22 10.5 0.22 59.76 35 35.13 0.22 10.5"/><polygon class="cls-35" points="0 10.35 0 59.61 34.79 34.98 0 10.35"/></g><polygon class="cls-36" points="0 10.35 0 59.61 34.79 34.98 0 10.35"/><g class="cls-37"><polygon class="cls-38" points="13.08 0 13.08 10.57 47.56 34.98 62.48 34.98 13.08 0"/><polygon class="cls-39" points="0 10.35 0 34.98 34.79 34.98 17.39 22.66 0 10.35"/></g></g></g></g></svg>