<svg xmlns="http://www.w3.org/2000/svg" viewBox="0 0 133.06 99.93"><g id="Layer_2" data-name="Layer 2"><g id="Objects"><path d="M94.09,19.12H38.89A10.22,10.22,0,0,0,28.58,29.53V75.35A10.46,10.46,0,0,0,38.89,86h8.82v3.71c0,.21,0,.42,0,.63a9.69,9.69,0,0,0,9.9,9.56H75c5.61,0,10.6-4.06,11-9.56,0-.21,0-.42,0-.63V86h8.13c5.82,0,10.13-4.86,10.13-10.68V29.53A10.08,10.08,0,0,0,94.09,19.12ZM38.15,40.43a9.15,9.15,0,0,1,9.14-9.15H85.51a9.15,9.15,0,0,1,9.15,9.15v7.78a9.15,9.15,0,0,1-9.15,9.14H47.29a9.14,9.14,0,0,1-9.14-9.14Zm9.56,40.36a6.78,6.78,0,0,1-2.81.6,6.92,6.92,0,1,1,6.92-6.92c0,.09,0,.17,0,.26A6.9,6.9,0,0,1,47.71,80.79Zm18.78.6a6.92,6.92,0,0,1-6.92-6.66c0-.09,0-.17,0-.26a6.93,6.93,0,0,1,13.86,0,2.28,2.28,0,0,1,0,.26A6.92,6.92,0,0,1,66.49,81.39Zm21.59,0A6.77,6.77,0,0,1,86,81.06a6.91,6.91,0,0,1-4.79-6.33,2.28,2.28,0,0,1,0-.26,6.93,6.93,0,1,1,6.93,6.92Z"/><path d="M125.55,15.79a7.5,7.5,0,0,0-3.07,14.35V44.83a4.14,4.14,0,0,1-4.18,3.83h-1V38.25c0-2.31-1.37-4.36-3.68-4.36h-.67V13c0-7.32-5.48-13-12.52-13H32.92a12.88,12.88,0,0,0-13,13V33.89h-.15A4.15,4.15,0,0,0,15.54,38V48.66h-.78a3.6,3.6,0,0,1-3.56-3.83v-15a7.51,7.51,0,1,0-7,.22V44.83A10.68,10.68,0,0,0,14.76,55.62h.78V66a4.35,4.35,0,0,0,4.2,4.36h4.5V13c0-5,3.8-9.48,8.68-9.48h67.47c4.79,0,9,4.41,9,9.48V33.89h-.87v36.5h5c2.31,0,3.68-1.76,3.68-4.06V55.62h1c5.87,0,10.26-4.92,10.26-10.79V30.17a7.5,7.5,0,0,0-3-14.38Z"/><path d="M47.56,53H86.11a5.07,5.07,0,0,0,5.07-5.07V40.69a5.07,5.07,0,0,0-5.07-5.06H47.56a5.07,5.07,0,0,0-5.07,5.06v7.25A5.07,5.07,0,0,0,47.56,53ZM79.45,40.39a4.39,4.39,0,1,1-4.4,4.39A4.38,4.38,0,0,1,79.45,40.39Zm-25.92,0a4.39,4.39,0,1,1-4.39,4.39A4.38,4.38,0,0,1,53.53,40.39Z"/></g></g></svg>